<?xml  version="1.0" encoding="UTF-8"?>
<!DOCTYPE svg PUBLIC "-//W3C//DTD SVG 1.0//EN" "http://www.w3.org/TR/2001/REC-SVG-20010904/DTD/svg10.dtd" >
<svg xmlns="http://www.w3.org/2000/svg" >
<metadata>
<version>1.0</version>
<id><![CDATA[Proxima N W10 Smbd]]></id>
<vendor>Monotype Imaging Inc.</vendor>
<credits>
<name>Fonts.com WebFonts</name>
<URL>http://webfonts.fonts.com</URL>
<role>Home of the Web fonts</role>
</credits>
<license>
<URL>http://webfonts.fonts.com/Legal</URL>
</license>
<copyright><![CDATA[Copyright (c) Mark Simonson, 2005. All rights reserved.]]></copyright>
<trademark><![CDATA[Proxima Nova is a trademark of Mark Simonson.]]></trademark>
<licensee>
<name></name>
</licensee>
</metadata>
<defs >
<font horiz-adv-x="551" id="045f9457-353b-4c90-a9d1-b2b3b44551cc">
<font-face font-family="" panose-1="2 0 5 6 3 0 0 2 0 4" ascent="741" descent="-259" units-per-em="1000" alphabetic="0">
</font-face>
<missing-glyph horiz-adv-x="0" />

<glyph unicode="&#xA;" />
<glyph unicode="&#xD;" horiz-adv-x="0" />
<glyph unicode=" " horiz-adv-x="257" />
<glyph unicode="!" horiz-adv-x="245" d="M77 204L58 667H186L168 204H77ZM122 -10Q93 -10 73 10T53 59Q53 88 73 108T122 129Q151 129 171 109T192 59Q192 31 172 11T122 -10Z"  />
<glyph unicode="&quot;" horiz-adv-x="379" d="M83 391Q73 450 65 498Q62 519 59 539T53 575T50 603T48 618Q48 642 65 659T107 677Q131 677 148 660T166 618Q166 615 165 604T161 576T155 539T148 498Q140 450 131 391H83ZM249 391Q239 450 231 498Q228 519 225 539T219 575T216 603T214 618Q214 642 231 659T273 677Q297 677 314 660T331 618Q331 615 330 604T326 576T320 539T313 498Q305 450 296 391H249Z"  />
<glyph unicode="#" horiz-adv-x="606" d="M242 0L301 174H199L141 0H61L119 174H19L41 243H143L202 423H100L121 491H226L284 667H364L306 491H407L465 667H545L486 491H587L567 423H463L403 243H508L487 174H380L322 0H242ZM383 423H282L223 243H323L383 423Z"  />
<glyph unicode="$" horiz-adv-x="605" d="M268 -10Q190 -4 132 23T35 94L100 184Q129 153 171 128T268 95V288Q229 298 191 311T123 345T75 400T56 482Q56 520 71 553T113 612T180 654T268 675V768H348V674Q469 661 549 584L482 497Q453 525 419 542T348 567V395Q387 384 425 371T495 335T545 278T564 194Q564 156 552 121T513 59T445 13T348 -10V-100H268V-10ZM445 183Q445 217 418 235T348 267V94Q400 102 422 128T445 183ZM176 490Q176 461 202 444T268 416V572Q225 567 201 545T176 490Z"  />
<glyph unicode="%" horiz-adv-x="746" d="M193 346Q156 346 126 358T74 393T40 445T28 510Q28 545 40 575T73 628T125 664T193 677Q230 677 261 664T314 629T348 576T360 510Q360 475 348 445T314 393T261 359T193 346ZM129 0L555 667H622L195 0H129ZM552 -12Q515 -12 485 0T433 35T399 87T387 152Q387 187 399 217T432 270T484 306T552 319Q589 319 619 306T672 271T706 218T718 152Q718 117 706 87T672 35T620 1T552 -12ZM193 412Q232 412 257 439T282 510Q282 555 257 582T193 610Q155 610 130 583T105 510Q105 467 130 440T193 412ZM552 54Q591 54 616 81T641 152Q641 197 616 224T552 252Q513 252 489 225T464 152Q464 108 488 81T552 54Z"  />
<glyph unicode="&amp;" horiz-adv-x="644" d="M490 0Q478 11 463 26T431 58Q393 26 347 7T244 -12Q199 -12 160 0T92 35T46 94T29 178Q29 216 41 245T73 298T119 340T174 373Q153 411 140 447T127 519Q127 553 140 582T178 632T236 665T308 677Q342 677 372 668T424 642T460 599T473 540Q473 502 459 474T421 425T367 387T306 355Q323 332 340 311T372 273Q389 253 405 234T438 196Q461 232 478 269T504 335L590 296Q572 256 549 213T497 131Q527 99 559 67T627 0H490ZM257 72Q289 72 318 85T372 119Q347 146 326 170T290 211Q272 233 253 257T216 307Q183 285 162 257T141 187Q141 160 150 139T176 102T213 80T257 72ZM233 517Q233 494 242 468T266 416Q290 427 310 439T346 465T371 497T380 535Q380 566 361 582T313 599Q279 599 256 576T233 517Z"  />
<glyph unicode="&apos;" horiz-adv-x="214" d="M83 391Q73 450 65 498Q62 519 59 539T53 575T50 603T48 618Q48 642 65 659T107 677Q131 677 148 660T166 618Q166 615 165 604T161 576T155 539T148 498Q140 450 131 391H83Z"  />
<glyph unicode="(" horiz-adv-x="276" d="M193 -199Q158 -156 130 -104T83 5T53 122T42 243Q42 303 52 363T82 481T130 589T193 685L258 636Q233 589 214 544T182 452T163 354T156 243Q156 184 162 133T182 34T214 -58T258 -149L193 -199Z"  />
<glyph unicode=")" horiz-adv-x="276" d="M17 -149Q42 -103 61 -58T94 34T113 132T120 243Q120 302 114 353T94 452T62 544T17 636L82 685Q118 641 146 590T193 481T223 364T234 243Q234 183 224 123T194 5T146 -104T82 -199L17 -149Z"  />
<glyph unicode="*" horiz-adv-x="346" d="M145 376L150 488L56 427L29 475L128 526L29 577L56 625L150 565L145 677H201L195 565L289 625L317 577L218 526L317 475L289 427L195 488L201 376H145Z"  />
<glyph unicode="+" horiz-adv-x="502" d="M288 303V96H214V303H29V371H214V571H288V371H473V303H288Z"  />
<glyph unicode="&#x2c;" horiz-adv-x="245" d="M198 38Q198 -14 172 -59T104 -133L57 -94Q69 -87 81 -76T102 -53T119 -27T129 0Q127 -1 122 -2T112 -3Q86 -3 69 14T52 60Q52 89 72 109T120 129Q151 129 174 106T198 38Z"  />
<glyph unicode="-" horiz-adv-x="300" d="M30 197V287H270V197H30Z"  />
<glyph unicode="." horiz-adv-x="245" d="M122 -11Q93 -11 73 9T52 59Q52 88 72 108T122 129Q151 129 171 109T192 59Q192 30 172 10T122 -11Z"  />
<glyph unicode="/" horiz-adv-x="315" d="M0 -20L237 687H315L78 -20H0Z"  />
<glyph unicode="0" horiz-adv-x="616" d="M308 -12Q238 -12 188 18T105 97T57 208T41 333Q41 396 56 457T104 568T187 647T308 677Q378 677 428 647T511 568T559 458T575 333Q575 270 560 208T512 98T429 19T308 -12ZM308 92Q349 92 377 112T422 165T448 241T456 333Q456 381 448 424T423 501T377 553T308 573Q267 573 239 554T194 501T168 425T160 333Q160 285 168 242T193 165T239 112T308 92Z"  />
<glyph unicode="1" horiz-adv-x="380" d="M192 0V515L83 402L15 473L207 667H309V0H192Z"  />
<glyph unicode="2" horiz-adv-x="595" d="M50 0V92Q147 165 215 220T327 319T390 399T410 471Q410 497 400 516T372 548T334 567T289 573Q230 573 186 551T109 493L41 570Q86 624 151 650T287 677Q335 677 379 664T456 624T509 560T529 471Q529 425 509 381T450 292T358 201T237 103H533V0H50Z"  />
<glyph unicode="3" horiz-adv-x="574" d="M276 -12Q186 -12 122 19T24 96L87 173Q119 135 168 114T272 92Q338 92 374 119T411 194Q411 244 373 266T263 288Q242 288 218 288T186 287V392Q195 391 219 391T263 391Q292 391 317 396T360 412T389 439T400 479Q400 502 390 519T361 549T318 567T265 573Q214 573 172 554T93 499L33 572Q71 617 131 647T276 677Q330 677 374 665T450 629T499 573T517 497Q517 464 504 438T471 392T424 360T372 344Q396 342 423 331T474 300T512 250T527 182Q527 140 510 104T460 43T381 3T276 -12Z"  />
<glyph unicode="4" horiz-adv-x="580" d="M346 0V151H28V245L302 667H463V254H552V151H463V0H346ZM346 562L143 254H346V562Z"  />
<glyph unicode="5" horiz-adv-x="600" d="M304 -12Q217 -12 157 15T56 91L123 171Q157 133 201 113T303 92Q334 92 359 101T403 126T430 163T440 209Q440 263 404 295T306 328Q263 328 228 314T160 270L77 294V667H514V564H194V371Q218 395 257 412T345 429Q387 429 425 415T493 373T540 305T558 214Q558 162 540 120T487 49T407 4T304 -12Z"  />
<glyph unicode="6" horiz-adv-x="601" d="M316 -12Q242 -12 190 15T105 90T57 200T41 332Q41 404 60 467T116 576T208 650T335 677Q398 677 445 657T527 603L472 514Q446 542 415 557T335 573Q293 573 261 555T206 507T171 437T159 353Q159 348 159 344T160 334Q171 351 189 367T231 397T281 419T339 427Q384 427 424 414T495 373T544 306T562 212Q562 165 545 125T495 54T418 6T316 -12ZM310 92Q343 92 368 102T410 129T435 167T444 208Q444 239 433 261T403 298T359 320T307 327Q264 327 226 306T161 248Q164 221 173 193T199 143T244 106T310 92Z"  />
<glyph unicode="7" horiz-adv-x="532" d="M121 0L373 564H27V667H508V586L249 0H121Z"  />
<glyph unicode="8" horiz-adv-x="595" d="M298 -12Q247 -12 201 -1T119 34T63 92T42 171Q42 203 54 230T86 279T134 317T192 344Q164 353 139 367T94 400T64 445T53 502Q53 548 74 581T131 635T209 667T298 677Q342 677 385 667T464 636T521 581T543 502Q543 470 532 445T501 401T457 367T403 344Q433 334 460 318T508 279T541 230T553 171Q553 126 533 92T477 35T395 0T298 -12ZM298 390Q313 393 335 399T376 416T410 443T424 484Q424 505 415 521T388 549T348 567T298 573Q243 573 207 550T171 484Q171 460 185 444T219 416T261 399T298 390ZM298 92Q326 92 350 98T394 117T424 146T435 186Q435 212 420 231T382 262T337 282T298 291Q282 289 259 282T213 263T176 231T160 186Q160 164 171 147T200 117T244 99T298 92Z"  />
<glyph unicode="9" horiz-adv-x="601" d="M265 -11Q203 -11 156 9T74 63L128 151Q154 124 185 109T265 93Q310 93 343 112T398 161T430 231T441 312V332Q429 315 411 299T369 269T319 247T262 238Q217 238 177 252T105 293T56 360T38 454Q38 500 55 541T105 612T182 660T284 678Q357 678 409 650T495 575T543 466T559 333Q559 261 540 198T484 89T392 16T265 -11ZM293 339Q336 339 375 360T439 417Q437 444 428 472T401 522T356 559T290 574Q257 574 233 564T191 536T166 499T157 458Q157 427 168 405T198 368T241 346T293 339Z"  />
<glyph unicode=":" horiz-adv-x="245" d="M122 350Q93 350 73 370T52 420Q52 449 72 469T122 490Q151 490 171 470T192 420Q192 391 172 371T122 350ZM122 -11Q93 -11 73 9T52 59Q52 88 72 108T122 129Q151 129 171 109T192 59Q192 30 172 10T122 -11Z"  />
<glyph unicode=";" horiz-adv-x="245" d="M122 350Q93 350 73 371T52 420Q52 449 72 469T122 490Q151 490 171 470T192 420Q192 392 172 371T122 350ZM198 41Q198 -11 172 -56T104 -130L57 -91Q69 -84 81 -73T102 -50T119 -24T129 3Q127 2 122 1T112 0Q86 0 69 17T52 63Q52 92 72 112T120 132Q151 132 174 109T198 41Z"  />
<glyph unicode="&lt;" horiz-adv-x="502" d="M29 297V372L473 580V499L108 334L473 170V90L29 297Z"  />
<glyph unicode="=" horiz-adv-x="502" d="M29 395V463H473V395H29ZM29 205V272H473V205H29Z"  />
<glyph unicode="&gt;" horiz-adv-x="502" d="M29 90V170L393 334L29 499V580L473 372V297L29 90Z"  />
<glyph unicode="?" horiz-adv-x="458" d="M189 196Q153 230 153 281Q153 311 165 333T195 373T233 405T272 433T302 464T314 501Q314 530 291 551T219 573Q173 573 140 554T80 503L13 578Q51 625 107 651T231 677Q278 677 315 665T379 632T420 583T434 520Q434 483 421 457T388 410T345 373T302 342T269 309T255 270Q255 258 261 246T277 225L189 196ZM225 -11Q196 -11 176 9T155 59Q155 88 175 108T225 129Q254 129 274 109T295 59Q295 30 275 10T225 -11Z"  />
<glyph unicode="@" horiz-adv-x="783" d="M352 -70Q284 -70 226 -46T126 20T59 120T35 244Q35 324 68 395T155 521T282 606T432 638Q503 638 561 614T660 547T724 448T747 327Q747 266 730 221T685 145T625 100T560 85Q515 85 492 108T465 162L464 168Q438 131 398 108T314 85Q278 85 250 97T201 132T171 184T160 251Q160 302 179 347T231 425T304 478T390 498Q437 498 469 478T516 427L528 483H622L568 228Q567 223 567 217T566 205Q566 181 578 169T607 157Q622 157 639 166T672 195T697 248T707 327Q707 387 687 437T631 524T543 581T428 601Q356 601 292 572T179 494T101 381T72 246Q72 186 93 135T152 47T242 -12T356 -34Q408 -34 453 -20T540 21L560 -7Q513 -37 461 -53T352 -70ZM348 160Q370 160 389 167T424 185T453 209T475 236L502 362Q498 372 491 382T472 402T445 417T411 423Q378 423 350 409T301 372T269 319T257 258Q257 215 281 188T348 160Z"  />
<glyph unicode="A" horiz-adv-x="673" d="M538 0L489 128H183L134 0H1L263 667H409L671 0H538ZM336 549L216 231H456L336 549Z"  />
<glyph unicode="B" horiz-adv-x="648" d="M71 0V667H399Q445 667 480 654T540 617T576 563T589 497Q589 465 580 439T554 394T517 362T473 344Q500 340 523 326T564 289T592 239T602 180Q602 141 590 108T552 51T491 14T408 0H71ZM375 391Q420 391 444 415T469 477Q469 515 445 539T375 564H188V391H375ZM380 103Q428 103 455 127T482 196Q482 234 457 261T380 288H188V103H380Z"  />
<glyph unicode="C" horiz-adv-x="682" d="M391 -12Q317 -12 253 13T142 83T68 192T41 333Q41 410 68 473T142 582T253 653T391 678Q442 678 483 666T557 633T615 585T659 528L559 477Q535 519 490 546T391 574Q341 574 299 556T227 506T179 430T161 333Q161 280 178 236T226 160T299 110T391 92Q445 92 490 119T559 189L659 138Q640 108 615 81T557 33T483 0T391 -12Z"  />
<glyph unicode="D" horiz-adv-x="710" d="M71 0V667H319Q397 667 461 643T571 574T642 468T668 333Q668 259 643 198T572 93T462 25T319 0H71ZM319 103Q373 103 416 121T488 170T532 244T548 333Q548 381 533 423T489 497T418 546T319 564H188V103H319Z"  />
<glyph unicode="E" horiz-adv-x="577" d="M71 0V667H528V564H188V391H521V288H188V103H528V0H71Z"  />
<glyph unicode="F" horiz-adv-x="562" d="M71 0V667H528V564H188V391H521V288H188V0H71Z"  />
<glyph unicode="G" horiz-adv-x="717" d="M391 -13Q319 -13 255 11T144 81T69 191T41 333Q41 411 68 475T143 584T255 653T391 678Q440 678 480 667T554 638T613 594T660 539L564 485Q538 523 493 548T391 574Q341 574 299 556T227 506T179 430T161 333Q161 280 178 236T226 160T299 109T391 91Q442 91 484 110T549 151V255H350V358H666V108Q616 53 548 20T391 -13Z"  />
<glyph unicode="H" horiz-adv-x="723" d="M535 0V291H188V0H71V667H188V394H535V667H652V0H535Z"  />
<glyph unicode="I" horiz-adv-x="259" d="M71 0V667H188V0H71Z"  />
<glyph unicode="J" horiz-adv-x="481" d="M185 -12Q133 -12 88 4T8 58L62 147Q82 125 110 109T176 92Q230 92 261 125T293 213V667H410V211Q410 154 393 112T346 43T275 2T185 -12Z"  />
<glyph unicode="K" horiz-adv-x="621" d="M470 0L246 281L188 213V0H71V667H188V349L449 667H594L323 352L614 0H470Z"  />
<glyph unicode="L" horiz-adv-x="517" d="M71 0V667H188V103H482V0H71Z"  />
<glyph unicode="M" horiz-adv-x="835" d="M647 0V495L442 0H392L188 495V0H71V667H236L417 228L599 667H764V0H647Z"  />
<glyph unicode="N" horiz-adv-x="720" d="M536 0L188 476V0H71V667H191L532 204V667H649V0H536Z"  />
<glyph unicode="O" horiz-adv-x="765" d="M382 -12Q307 -12 245 14T137 86T66 195T41 333Q41 408 66 471T136 580T244 652T382 678Q457 678 519 652T627 580T698 471T723 333Q723 258 698 195T628 86T520 14T382 -12ZM382 92Q432 92 473 110T543 161T587 237T603 333Q603 385 588 429T543 505T473 555T382 574Q331 574 291 556T221 505T177 429T161 333Q161 282 176 238T221 161T290 111T382 92Z"  />
<glyph unicode="P" horiz-adv-x="608" d="M71 0V667H364Q416 667 457 650T525 605T567 538T582 458Q582 416 568 378T525 312T457 266T364 249H188V0H71ZM348 352Q398 352 430 381T462 458Q462 506 430 535T348 564H188V352H348Z"  />
<glyph unicode="Q" horiz-adv-x="765" d="M382 -12Q307 -12 245 14T137 86T66 195T41 333Q41 408 66 471T136 580T244 652T382 678Q457 678 519 652T627 580T698 471T723 333Q723 261 700 200T634 93L689 31L608 -37L550 28Q476 -12 382 -12ZM382 92Q433 92 476 112L394 206L475 273L557 179Q603 242 603 333Q603 385 588 429T543 505T473 555T382 574Q331 574 291 556T221 505T177 429T161 333Q161 282 176 238T221 161T290 111T382 92Z"  />
<glyph unicode="R" horiz-adv-x="628" d="M452 0L304 249H188V0H71V667H364Q413 667 453 652T522 609T566 543T582 458Q582 413 569 379T533 321T483 282T424 262L587 0H452ZM348 352Q398 352 430 381T462 458Q462 506 430 535T348 564H188V352H348Z"  />
<glyph unicode="S" horiz-adv-x="594" d="M299 -12Q206 -12 140 17T28 94L93 184Q128 147 181 120T304 92Q340 92 365 100T407 121T430 150T438 183Q438 209 422 226T378 254T315 274T244 293T172 316T110 351T66 404T49 482Q49 523 66 558T116 620T192 662T292 677Q370 677 432 653T542 584L475 497Q436 536 386 554T282 573Q230 573 200 551T169 490Q169 459 197 443T269 414T363 389T456 354T528 294T557 194Q557 152 542 115T496 50T415 5T299 -12Z"  />
<glyph unicode="T" horiz-adv-x="577" d="M230 0V564H28V667H549V564H347V0H230Z"  />
<glyph unicode="U" horiz-adv-x="719" d="M360 -12Q287 -12 233 8T143 64T89 150T71 263V667H189V267Q189 187 232 140T360 92Q444 92 487 139T530 267V667H648V264Q648 202 630 151T576 64T486 8T360 -12Z"  />
<glyph unicode="V" horiz-adv-x="673" d="M263 0L1 667H134L336 127L538 667H671L409 0H263Z"  />
<glyph unicode="W" horiz-adv-x="903" d="M581 0L451 492L322 0H197L6 667H137L267 153L405 667H498L636 153L765 667H896L706 0H581Z"  />
<glyph unicode="X" horiz-adv-x="661" d="M517 0L330 261L143 0H3L253 342L18 667H158L330 422L501 667H642L408 343L657 0H517Z"  />
<glyph unicode="Y" horiz-adv-x="637" d="M260 0V277L1 667H135L319 381L501 667H635L377 277V0H260Z"  />
<glyph unicode="Z" horiz-adv-x="589" d="M44 0V95L385 564H44V667H537V572L196 103H544V0H44Z"  />
<glyph unicode="[" horiz-adv-x="264" d="M44 -190V678H247V606H121V-118H247V-190H44Z"  />
<glyph unicode="\" horiz-adv-x="315" d="M0 687H78L315 -20H237L0 687Z"  />
<glyph unicode="]" horiz-adv-x="264" d="M17 -190V-118H143V606H17V678H220V-190H17Z"  />
<glyph unicode="^" horiz-adv-x="437" d="M338 333L218 594L99 333H19L180 667H258L418 333H338Z"  />
<glyph unicode="_" horiz-adv-x="564" d="M-3 -112V-40H567V-112H-3Z"  />
<glyph unicode="`" horiz-adv-x="240" d="M165 556L0 700H100L240 556H165Z"  />
<glyph unicode="a" horiz-adv-x="536" d="M363 0V52Q336 21 296 5T207 -12Q177 -12 147 -2T93 28T54 78T39 148Q39 190 54 219T93 268T147 296T207 305Q256 305 296 290T363 243V315Q363 357 332 381T250 405Q169 405 107 344L64 417Q106 457 157 476T267 495Q307 495 343 486T407 457T451 403T468 320V0H363ZM248 60Q283 60 314 72T363 110V183Q345 208 314 220T248 233Q203 233 174 210T145 146Q145 107 174 84T248 60Z"  />
<glyph unicode="b" horiz-adv-x="581" d="M173 145Q190 118 225 100T297 81Q328 81 353 93T397 126T424 176T434 241Q434 276 425 305T397 356T354 390T297 402Q279 402 261 397T226 382T196 361T173 336V145ZM68 0V667H173V416Q202 454 242 474T328 495Q374 495 413 477T481 426T526 346T542 241Q542 181 526 134T482 55T414 5T328 -12Q280 -12 241 9T173 66V0H68Z"  />
<glyph unicode="c" horiz-adv-x="497" d="M288 -12Q233 -12 187 7T108 60T57 140T38 242Q38 297 56 343T108 423T187 476T288 495Q359 495 403 470T473 409L404 345Q363 402 293 402Q260 402 233 390T187 357T158 307T147 242Q147 207 157 178T187 127T233 93T293 81Q362 81 404 138L473 74Q447 39 403 14T288 -12Z"  />
<glyph unicode="d" horiz-adv-x="581" d="M408 0V66Q380 30 340 9T253 -12Q206 -12 167 5T99 54T54 134T38 241Q38 299 54 346T98 426T166 477T253 495Q298 495 338 475T408 416V667H513V0H408ZM283 81Q321 81 355 99T408 145V337Q390 364 356 383T283 402Q220 402 184 357T147 241Q147 206 156 177T184 126T227 93T283 81Z"  />
<glyph unicode="e" horiz-adv-x="557" d="M291 -12Q237 -12 191 6T110 57T57 138T38 242Q38 294 56 340T106 421T184 475T283 495Q337 495 381 476T456 421T504 337T521 232V207H148Q151 180 162 156T193 113T240 85T302 74Q337 74 375 87T439 127L487 58Q451 23 400 6T291 -12ZM419 281Q418 302 410 325T386 366T344 397T283 409Q249 409 225 398T184 368T158 326T147 281H419Z"  />
<glyph unicode="f" horiz-adv-x="308" d="M93 0V391H13V483H93V510Q93 589 135 633T246 677Q278 677 308 668T362 635L321 570Q310 580 297 585T265 591Q234 591 216 571T198 510V483H296V391H198V0H93Z"  />
<glyph unicode="g" horiz-adv-x="580" d="M264 -196Q202 -196 155 -181T62 -124L111 -48Q140 -82 178 -96T264 -110Q290 -110 315 -104T361 -82T394 -41T407 21V79Q379 43 340 21T252 -1Q206 -1 167 15T99 63T54 141T38 247Q38 305 54 351T98 429T166 478T252 495Q298 495 338 475T407 416V483H512V25Q512 -40 490 -83T433 -151T353 -186T264 -196ZM283 92Q301 92 319 97T354 111T384 131T407 157V337Q398 350 385 362T355 383T320 397T283 402Q220 402 184 360T147 247Q147 177 183 135T283 92Z"  />
<glyph unicode="h" horiz-adv-x="568" d="M395 0V304Q395 360 368 381T297 402Q257 402 225 382T173 337V0H68V667H173V417Q185 431 202 445T242 470T289 488T344 495Q422 495 461 456T500 342V0H395Z"  />
<glyph unicode="i" horiz-adv-x="241" d="M120 542Q94 542 75 561T55 607Q55 634 74 653T120 672Q147 672 166 653T185 607Q185 580 166 561T120 542ZM68 0V483H173V0H68Z"  />
<glyph unicode="j" horiz-adv-x="241" d="M120 542Q94 542 75 561T55 607Q55 634 74 653T120 672Q147 672 166 653T185 607Q185 580 166 561T120 542ZM13 -196Q-29 -196 -52 -188T-101 -161L-70 -83Q-56 -95 -41 -102T-3 -110Q28 -110 48 -91T68 -28V483H173V-28Q173 -106 133 -151T13 -196Z"  />
<glyph unicode="k" horiz-adv-x="526" d="M388 0L240 199L173 130V0H68V667H173V250L386 483H516L315 264L520 0H388Z"  />
<glyph unicode="l" horiz-adv-x="241" d="M68 0V667H173V0H68Z"  />
<glyph unicode="m" horiz-adv-x="833" d="M660 0V315Q660 354 642 378T581 402Q546 402 516 382T469 338V0H364V315Q364 354 346 378T284 402Q249 402 220 382T173 337V0H68V483H173V417Q180 428 195 441T231 467T277 487T330 495Q384 495 417 471T462 406Q472 422 489 438T527 467T574 487T626 495Q693 495 729 459T765 349V0H660Z"  />
<glyph unicode="n" horiz-adv-x="567" d="M394 0V302Q394 358 368 380T297 402Q256 402 224 382T173 337V0H68V483H173V417Q185 431 202 445T241 470T288 488T343 495Q421 495 460 455T499 340V0H394Z"  />
<glyph unicode="o" horiz-adv-x="573" d="M286 -12Q229 -12 183 8T105 62T55 143T38 242Q38 294 55 340T104 420T183 475T286 495Q344 495 390 475T468 421T518 340T535 242Q535 190 518 144T469 63T390 8T286 -12ZM286 81Q320 81 346 94T390 129T417 180T426 242Q426 274 417 303T390 354T346 389T286 402Q253 402 227 389T183 354T156 303T147 242Q147 210 156 181T183 129T227 94T286 81Z"  />
<glyph unicode="p" horiz-adv-x="578" d="M328 -12Q282 -12 242 8T173 67V-184H68V483H173V417Q200 453 240 474T328 495Q375 495 414 478T481 429T526 349T542 242Q542 182 526 135T482 56T414 6T328 -12ZM297 81Q360 81 396 126T433 242Q433 277 424 306T396 357T353 390T297 402Q279 402 261 397T226 383T196 362T173 337V146Q182 133 195 121T225 100T260 86T297 81Z"  />
<glyph unicode="q" horiz-adv-x="578" d="M281 81Q299 81 317 86T352 100T382 121T405 146V337Q396 350 383 362T353 383T318 397T281 402Q250 402 225 390T182 357T155 307T145 242Q145 171 181 126T281 81ZM250 -12Q203 -12 164 5T97 55T52 135T36 242Q36 302 52 349T96 428T164 478T250 495Q298 495 338 474T405 417V483H510V-184H405V67Q376 28 336 8T250 -12Z"  />
<glyph unicode="r" horiz-adv-x="347" d="M68 0V483H173V412Q200 447 241 470T330 494V390Q316 393 297 393Q280 393 262 388T227 374T195 354T173 329V0H68Z"  />
<glyph unicode="s" horiz-adv-x="472" d="M233 -12Q171 -12 118 7T26 63L74 139Q87 126 105 114T145 92T190 77T238 71Q286 71 309 89T333 136Q333 160 312 172T258 192T187 208T117 232T63 275T41 348Q41 378 53 404T90 451T149 483T231 495Q293 495 339 476T419 427L375 353Q353 378 315 394T232 411Q190 411 166 395T142 352Q142 330 163 320T217 301T288 285T358 260T412 215T434 138Q434 106 421 79T383 31T320 0T233 -12Z"  />
<glyph unicode="t" horiz-adv-x="319" d="M213 -12Q152 -12 121 20T89 112V391H9V483H89V615H194V483H292V391H194V138Q194 113 205 97T240 81Q255 81 268 86T287 98L312 19Q298 5 274 -3T213 -12Z"  />
<glyph unicode="u" horiz-adv-x="567" d="M394 0V64Q368 35 324 12T223 -12Q145 -12 107 27T68 141V483H173V179Q173 123 199 102T270 81Q310 81 342 100T394 144V483H499V0H394Z"  />
<glyph unicode="v" horiz-adv-x="503" d="M195 0L-2 483H110L251 121L392 483H505L308 0H195Z"  />
<glyph unicode="w" horiz-adv-x="754" d="M489 0L377 354L265 0H155L5 483H114L216 132L331 483H423L538 132L640 483H749L599 0H489Z"  />
<glyph unicode="x" horiz-adv-x="496" d="M373 0L248 178L122 0H5L182 248L15 483H133L248 319L362 483H480L313 248L491 0H373Z"  />
<glyph unicode="y" horiz-adv-x="503" d="M63 -95Q71 -99 82 -101T103 -103Q128 -103 144 -94T172 -61L196 -6L-2 483H110L251 121L392 483H505L272 -87Q247 -149 205 -172T106 -196Q95 -196 77 -194T47 -189L63 -95Z"  />
<glyph unicode="z" horiz-adv-x="476" d="M46 0V79L285 391H46V483H425V406L184 91H429V0H46Z"  />
<glyph unicode="{" horiz-adv-x="276" d="M198 -190Q171 -190 145 -180T100 -151T68 -104T56 -42V145Q56 173 43 193T4 213V275Q30 275 43 295T56 343V529Q56 563 68 591T99 638T145 667T198 678H259V606H198Q172 606 153 585T134 529V333Q134 301 124 278T88 244Q113 233 123 210T134 155V-41Q134 -75 153 -96T198 -118H259V-190H198Z"  />
<glyph unicode="|" horiz-adv-x="214" d="M71 -20V687H143V-20H71Z"  />
<glyph unicode="}" horiz-adv-x="276" d="M17 -118H78Q104 -118 123 -97T142 -41V155Q142 187 152 210T188 244Q163 255 153 278T142 333V529Q142 564 123 585T78 606H17V678H78Q105 678 131 668T176 638T208 591T220 529V343Q220 315 233 295T272 275V213Q246 213 233 193T220 145V-42Q220 -77 208 -104T177 -150T131 -180T78 -190H17V-118Z"  />
<glyph unicode="~" horiz-adv-x="507" d="M480 658Q476 613 468 570T444 493T402 438T336 417Q304 417 284 430T251 464T231 508T215 552T198 585T171 599Q154 599 143 584T123 544T109 486T100 416L26 425Q30 470 38 513T63 590T105 645T171 666Q203 666 223 653T256 619T276 575T292 531T309 497T336 483Q352 483 364 497T385 537T398 596T407 667L480 658Z"  />
<glyph unicode="&#xA0;" horiz-adv-x="257" />
<glyph unicode="&#xA4;" horiz-adv-x="612" d="M306 89Q264 89 228 99T163 129L89 54L26 116L100 190Q80 221 69 257T58 333Q58 413 101 476L25 552L88 614L164 537Q193 556 228 566T306 576Q348 576 383 566T447 537L523 614L586 551L511 476Q554 413 554 333Q554 252 511 189L586 116L523 54L447 128Q388 89 306 89ZM306 183Q340 183 366 195T411 228T438 276T448 333Q448 363 439 389T411 436T367 469T306 481Q272 481 246 469T201 437T174 390T164 333Q164 303 173 276T201 228T245 195T306 183Z"  />
<glyph unicode="&#xA6;" horiz-adv-x="214" d="M71 -20V296H143V-20H71ZM71 371V687H143V371H71Z"  />
<glyph unicode="&#xA7;" horiz-adv-x="477" d="M434 321Q434 279 412 246T347 193Q385 177 409 149T434 71Q434 35 419 7T378 -41T314 -71T233 -81Q159 -81 110 -58T28 -3L74 64Q86 51 103 39T140 16T183 0T233 -7Q278 -7 305 11T333 63Q333 90 312 104T258 127T187 146T117 170T63 212T41 285Q41 311 50 331T74 368T108 394T146 411Q96 428 69 458T41 536Q41 565 54 591T92 636T152 666T231 677Q303 677 347 656T418 608L375 545Q349 573 311 587T235 602Q193 602 168 585T142 537Q142 513 163 501T217 480T288 463T358 439T412 396T434 321ZM331 303Q331 322 323 335T301 357T270 373T235 384Q181 370 162 349T142 299Q142 279 152 267T179 245T217 230T262 219Q296 233 313 253T331 303Z"  />
<glyph unicode="&#xA8;" horiz-adv-x="285" d="M306 608Q306 583 289 566T247 549Q223 549 206 566T188 608Q188 632 205 649T247 666Q271 666 288 649T306 608ZM96 608Q96 583 79 566T38 549Q13 549 -4 566T-21 608Q-21 632 -4 649T38 666Q62 666 79 649T96 608Z"  />
<glyph unicode="&#xA9;" horiz-adv-x="778" d="M734 334Q734 263 707 200T633 90T524 16T389 -11Q318 -11 255 16T145 90T71 200T44 334Q44 406 71 468T145 578T255 652T389 679Q461 679 523 652T633 578T707 469T734 334ZM700 334Q700 398 676 454T609 553T510 620T389 645Q325 645 269 621T170 554T103 455T78 334Q78 270 102 214T169 115T268 48T389 23Q453 23 509 47T608 114T675 213T700 334ZM541 189Q514 157 477 140T393 122Q350 122 312 138T246 182T202 250T185 335Q185 381 201 419T246 486T312 530T393 546Q440 546 477 529T540 480L511 452Q491 478 460 493T393 509Q360 509 330 497T277 461T241 406T227 335Q227 297 240 265T276 209T329 172T393 159Q429 159 460 175T512 217L541 189Z"  />
<glyph unicode="&#xAB;" horiz-adv-x="489" d="M360 63L200 243L360 420H459L299 243L459 63H360ZM190 63L30 243L190 420H289L129 243L289 63H190Z"  />
<glyph unicode="&#xAC;" horiz-adv-x="510" d="M473 205H403V395H29V463H473V205Z"  />
<glyph unicode="&#xAD;" horiz-adv-x="300" d="M30 197V287H270V197H30Z"  />
<glyph unicode="&#xAE;" horiz-adv-x="494" d="M459 465Q459 421 443 383T398 315T330 270T247 253Q203 253 165 269T97 315T52 382T35 465Q35 509 51 548T97 615T164 660T247 677Q291 677 330 661T397 616T442 548T459 465ZM428 465Q428 503 414 536T375 593T317 632T247 646Q209 646 176 632T118 594T79 536T65 465Q65 427 79 394T118 337T176 298T247 283Q284 283 317 297T375 336T414 394T428 465ZM305 343L242 439H199V343H166V586H265Q296 586 319 566T343 512Q343 492 336 478T318 456T297 444T281 440L346 343H305ZM309 512Q309 532 295 544T265 557H199V469H265Q281 469 295 481T309 512Z"  />
<glyph unicode="&#xB0;" horiz-adv-x="302" d="M280 547Q280 520 270 497T242 456T201 428T150 418Q123 418 100 428T59 455T31 496T21 547Q21 574 31 597T58 638T99 666T150 677Q177 677 200 667T242 639T270 598T280 547ZM220 547Q220 576 200 596T150 617Q121 617 102 597T82 547Q82 518 101 498T150 478Q179 478 199 498T220 547Z"  />
<glyph unicode="&#xB1;" horiz-adv-x="502" d="M288 325V117H214V325H29V392H214V593H288V392H473V325H288ZM29 0V67H473V0H29Z"  />
<glyph unicode="&#xB4;" horiz-adv-x="240" d="M75 556H0L140 700H240L75 556Z"  />
<glyph unicode="&#xB5;" horiz-adv-x="581" d="M173 -184H68V483H173V179Q173 125 199 103T271 80Q310 80 342 99T394 144V483H499V131Q499 108 510 95T542 81Q551 81 561 83L568 -6Q558 -9 545 -10T518 -12Q467 -12 439 10T399 74Q376 38 339 13T256 -12Q222 -12 202 -1T173 24V-184Z"  />
<glyph unicode="&#xB6;" horiz-adv-x="449" d="M337 -100V612H254V-100H199V323Q163 323 132 336T78 373T41 428T27 495Q27 531 40 562T77 616T132 653T199 667H392V-100H337Z"  />
<glyph unicode="&#xB7;" horiz-adv-x="245" d="M192 244Q192 216 172 196T122 175Q93 175 73 195T52 244Q52 273 72 293T122 314Q151 314 171 294T192 244Z"  />
<glyph unicode="&#xBA;" horiz-adv-x="405" d="M202 318Q163 318 132 331T80 366T46 419T34 483Q34 517 46 547T79 599T132 635T202 648Q241 648 272 635T326 600T359 547T371 483Q371 449 360 419T326 367T273 331T202 318ZM202 381Q244 381 267 409T291 483Q291 528 268 555T202 583Q160 583 137 556T114 483Q114 438 137 410T202 381Z"  />
<glyph unicode="&#xBB;" horiz-adv-x="489" d="M129 63H30L190 243L30 420H129L289 243L129 63ZM299 63H200L360 243L200 420H299L459 243L299 63Z"  />
<glyph unicode="&#x127;" horiz-adv-x="571" d="M176 531V417Q188 431 205 445T245 470T292 488T347 495Q425 495 464 456T503 342V0H398V304Q398 360 371 381T300 402Q260 402 228 382T176 337V0H71V531H9V593H71V667H176V593H327V531H176Z"  />
<glyph unicode="&#x131;" horiz-adv-x="241" d="M68 0V483H173V0H68Z"  />
<glyph unicode="&#x138;" horiz-adv-x="526" d="M388 0L240 199L173 130V0H68V483H173V250L386 483H516L315 264L520 0H388Z"  />
<glyph unicode="&#x192;" horiz-adv-x="396" d="M33 423H139L164 596Q172 654 201 685Q228 714 271 723T375 724V648Q314 653 288 640T255 584L232 423H350V353H222L168 -32Q159 -95 128 -126Q105 -149 70 -155T-15 -155V-81Q22 -84 45 -75T74 -25L129 353H33V423Z"  />
<glyph unicode="&#x2D8;" horiz-adv-x="351" d="M351 622Q321 581 276 558T176 534Q122 534 77 557T0 622L48 662Q70 632 102 614T176 596Q216 596 248 613T303 662L351 622H351Z"  />
<glyph unicode="&#x393;" horiz-adv-x="562" d="M71 0V667H528V564H188V0H71Z"  />
<glyph unicode="&#x3A0;" horiz-adv-x="723" d="M535 0V564H188V0H71V667H652V0H535Z"  />
<glyph unicode="&#x3A6;" horiz-adv-x="834" d="M358 0V66Q284 72 225 93T125 148T63 229T41 333Q41 390 62 436T125 516T225 572T358 599V667H475V600Q549 594 607 573T707 518T770 437T792 333Q792 276 770 229T707 148T608 93T475 66V0H358ZM672 333Q672 399 622 441T475 495V171Q571 181 621 223T672 333ZM161 333Q161 267 211 225T358 171V495Q262 484 212 442T161 333Z"  />
<glyph unicode="&#x401;" horiz-adv-x="577" d="M462 775Q462 750 445 733T403 716Q379 716 362 733T344 775Q344 799 361 816T403 833Q427 833 444 816T462 775ZM252 775Q252 750 235 733T194 716Q169 716 152 733T135 775Q135 799 152 816T194 833Q218 833 235 816T252 775ZM71 0V667H528V564H188V391H521V288H188V103H528V0H71Z"  />
<glyph unicode="&#x402;" horiz-adv-x="764" d="M504 92Q558 92 589 120T621 194V204Q621 257 587 286T486 315Q447 315 412 308T347 290V0H230V564H28V667H549V564H347V393Q376 404 416 411T498 418Q559 418 604 401T679 354T723 286T738 204V194Q738 142 720 103T670 39T595 1T504 -12V92Z"  />
<glyph unicode="&#x403;" horiz-adv-x="562" d="M295 723H220L360 867H460L295 723ZM71 0V667H528V564H188V0H71Z"  />
<glyph unicode="&#x404;" horiz-adv-x="682" d="M391 -12Q317 -12 253 13T142 83T68 192T41 333Q41 410 68 473T142 582T253 653T391 678Q442 678 483 666T557 633T615 585T659 528L559 477Q535 519 490 546T391 574Q349 574 312 561T245 523T196 466T167 391H521V288H164Q171 244 191 208T240 147T308 107T391 92Q445 92 490 119T559 189L659 138Q640 108 615 81T557 33T483 0T391 -12Z"  />
<glyph unicode="&#x405;" horiz-adv-x="594" d="M299 -12Q206 -12 140 17T28 94L93 184Q128 147 181 120T304 92Q340 92 365 100T407 121T430 150T438 183Q438 209 422 226T378 254T315 274T244 293T172 316T110 351T66 404T49 482Q49 523 66 558T116 620T192 662T292 677Q370 677 432 653T542 584L475 497Q436 536 386 554T282 573Q230 573 200 551T169 490Q169 459 197 443T269 414T363 389T456 354T528 294T557 194Q557 152 542 115T496 50T415 5T299 -12Z"  />
<glyph unicode="&#x406;" horiz-adv-x="259" d="M71 0V667H188V0H71Z"  />
<glyph unicode="&#x407;" horiz-adv-x="259" d="M71 0V667H188V0H71ZM295 775Q295 750 278 733T236 716Q212 716 195 733T177 775Q177 799 194 816T236 833Q260 833 277 816T295 775ZM85 775Q85 750 68 733T27 716Q2 716 -15 733T-32 775Q-32 799 -15 816T27 833Q51 833 68 816T85 775Z"  />
<glyph unicode="&#x408;" horiz-adv-x="481" d="M185 -12Q133 -12 88 4T8 58L62 147Q82 125 110 109T176 92Q230 92 261 125T293 213V667H410V211Q410 154 393 112T346 43T275 2T185 -12Z"  />
<glyph unicode="&#x409;" horiz-adv-x="1072" d="M28 92Q55 92 76 100T112 134T139 204T160 324L199 667H652V418H828Q880 418 920 401T989 356T1031 289T1046 209Q1046 167 1032 129T990 63T921 17T828 0H535V564H304L276 316Q264 210 242 146T189 46T117 0T28 -12V92ZM652 315V103H812Q862 103 894 132T926 209Q926 257 894 286T812 315H652Z"  />
<glyph unicode="&#x40A;" horiz-adv-x="1072" d="M71 667H188V394H535V667H652V394H841Q890 394 928 379T992 336T1032 273T1046 197Q1046 157 1033 121T993 58T929 16T841 0H535V291H188V0H71V667ZM825 103Q870 103 898 128T926 197Q926 240 898 265T825 291H652V103H825Z"  />
<glyph unicode="&#x40B;" horiz-adv-x="790" d="M621 177Q621 249 587 282T486 315Q447 315 412 308T347 290V0H230V564H28V667H549V564H347V393Q376 404 416 411T498 418Q559 418 604 401T679 352T723 276T738 177V0H621V177Z"  />
<glyph unicode="&#x40C;" horiz-adv-x="621" d="M328 723H253L393 867H493L328 723ZM470 0L246 281L188 213V0H71V667H188V349L449 667H594L323 352L614 0H470Z"  />
<glyph unicode="&#x40E;" horiz-adv-x="637" d="M151 -12Q106 -12 68 2T14 34L56 130Q74 114 96 103T143 92Q163 92 178 96T205 111T229 137T252 177L1 667H134L318 278L502 667H635L357 125Q342 95 324 70T281 27T226 -2T151 -12ZM494 789Q464 748 419 725T319 701Q265 701 220 724T143 789L191 829Q213 799 245 781T319 763Q359 763 391 780T446 829L494 789H494Z"  />
<glyph unicode="&#x40F;" horiz-adv-x="723" d="M71 667H188V103H535V667H652V0H420V-128H303V0H71V667Z"  />
<glyph unicode="&#x410;" horiz-adv-x="673" d="M538 0L489 128H183L134 0H1L263 667H409L671 0H538ZM336 549L216 231H456L336 549Z"  />
<glyph unicode="&#x411;" horiz-adv-x="608" d="M528 667V564H188V418H364Q416 418 456 401T525 356T567 289T582 209Q582 167 568 129T526 63T457 17T364 0H71V667H528ZM188 315V103H348Q398 103 430 132T462 209Q462 257 430 286T348 315H188Z"  />
<glyph unicode="&#x412;" horiz-adv-x="648" d="M71 0V667H399Q445 667 480 654T540 617T576 563T589 497Q589 465 580 439T554 394T517 362T473 344Q500 340 523 326T564 289T592 239T602 180Q602 141 590 108T552 51T491 14T408 0H71ZM375 391Q420 391 444 415T469 477Q469 515 445 539T375 564H188V391H375ZM380 103Q428 103 455 127T482 196Q482 234 457 261T380 288H188V103H380Z"  />
<glyph unicode="&#x413;" horiz-adv-x="562" d="M71 0V667H528V564H188V0H71Z"  />
<glyph unicode="&#x414;" horiz-adv-x="732" d="M28 92Q55 95 76 104T112 137T139 205T160 324L199 667H652V103H714V-123H597V0H145V-123H28V92ZM276 316Q267 238 245 186T188 103H535V564H304L276 316Z"  />
<glyph unicode="&#x415;" horiz-adv-x="577" d="M71 0V667H528V564H188V391H521V288H188V103H528V0H71Z"  />
<glyph unicode="&#x416;" horiz-adv-x="933" d="M7 0L298 352L27 667H172L408 379V667H525V379L761 667H906L635 352L926 0H782L558 281L525 242V0H408V242L375 281L151 0H7Z"  />
<glyph unicode="&#x417;" horiz-adv-x="599" d="M288 -12Q243 -12 203 -4T128 19T68 53T24 96L87 173Q103 154 126 139T175 114T229 98T284 92Q356 92 396 119T436 194Q436 244 394 266T275 288H141V391H275Q307 391 334 396T382 412T413 439T425 479Q425 502 414 519T382 549T335 567T277 573Q226 573 178 554T93 499L33 572Q71 617 138 647T288 677Q342 677 388 665T469 629T522 573T542 497Q542 464 529 438T496 392T449 360T397 344Q421 342 448 331T499 300T537 250T552 182Q552 140 533 104T478 43T395 3T288 -12Z"  />
<glyph unicode="&#x418;" horiz-adv-x="720" d="M71 0V667H188V204L529 667H649V0H532V476L184 0H71Z"  />
<glyph unicode="&#x419;" horiz-adv-x="720" d="M71 0V667H188V204L529 667H649V0H532V476L184 0H71ZM535 789Q505 748 460 725T360 701Q306 701 261 724T184 789L232 829Q254 799 286 781T360 763Q400 763 432 780T487 829L535 789H535Z"  />
<glyph unicode="&#x41A;" horiz-adv-x="621" d="M470 0L246 281L188 213V0H71V667H188V349L449 667H594L323 352L614 0H470Z"  />
<glyph unicode="&#x41B;" horiz-adv-x="723" d="M28 92Q55 92 76 100T112 134T139 204T160 324L199 667H652V0H535V564H304L276 316Q264 210 242 146T189 46T117 0T28 -12V92Z"  />
<glyph unicode="&#x41C;" horiz-adv-x="835" d="M647 0V495L442 0H392L188 495V0H71V667H236L417 228L599 667H764V0H647Z"  />
<glyph unicode="&#x41D;" horiz-adv-x="723" d="M535 0V291H188V0H71V667H188V394H535V667H652V0H535Z"  />
<glyph unicode="&#x41E;" horiz-adv-x="765" d="M382 -12Q307 -12 245 14T137 86T66 195T41 333Q41 408 66 471T136 580T244 652T382 678Q457 678 519 652T627 580T698 471T723 333Q723 258 698 195T628 86T520 14T382 -12ZM382 92Q432 92 473 110T543 161T587 237T603 333Q603 385 588 429T543 505T473 555T382 574Q331 574 291 556T221 505T177 429T161 333Q161 282 176 238T221 161T290 111T382 92Z"  />
<glyph unicode="&#x41F;" horiz-adv-x="723" d="M535 0V564H188V0H71V667H652V0H535Z"  />
<glyph unicode="&#x420;" horiz-adv-x="608" d="M71 0V667H364Q416 667 457 650T525 605T567 538T582 458Q582 416 568 378T525 312T457 266T364 249H188V0H71ZM348 352Q398 352 430 381T462 458Q462 506 430 535T348 564H188V352H348Z"  />
<glyph unicode="&#x421;" horiz-adv-x="682" d="M391 -12Q317 -12 253 13T142 83T68 192T41 333Q41 410 68 473T142 582T253 653T391 678Q442 678 483 666T557 633T615 585T659 528L559 477Q535 519 490 546T391 574Q341 574 299 556T227 506T179 430T161 333Q161 280 178 236T226 160T299 110T391 92Q445 92 490 119T559 189L659 138Q640 108 615 81T557 33T483 0T391 -12Z"  />
<glyph unicode="&#x422;" horiz-adv-x="577" d="M230 0V564H28V667H549V564H347V0H230Z"  />
<glyph unicode="&#x423;" horiz-adv-x="637" d="M151 -12Q106 -12 68 2T14 34L56 130Q74 114 96 103T143 92Q163 92 178 96T205 111T229 137T252 177L1 667H134L318 278L502 667H635L357 125Q342 95 324 70T281 27T226 -2T151 -12Z"  />
<glyph unicode="&#x424;" horiz-adv-x="834" d="M358 0V66Q284 72 225 93T125 148T63 229T41 333Q41 390 62 436T125 516T225 572T358 599V667H475V600Q549 594 607 573T707 518T770 437T792 333Q792 276 770 229T707 148T608 93T475 66V0H358ZM672 333Q672 399 622 441T475 495V171Q571 181 621 223T672 333ZM161 333Q161 267 211 225T358 171V495Q262 484 212 442T161 333Z"  />
<glyph unicode="&#x425;" horiz-adv-x="661" d="M517 0L330 261L143 0H3L253 342L18 667H158L330 422L501 667H642L408 343L657 0H517Z"  />
<glyph unicode="&#x426;" horiz-adv-x="732" d="M597 0H71V667H188V103H535V667H652V103H714V-123H597V0Z"  />
<glyph unicode="&#x427;" horiz-adv-x="631" d="M169 490Q169 418 203 385T304 352Q343 352 378 359T443 377V667H560V0H443V274Q414 263 374 256T292 249Q230 249 185 266T111 315T67 391T52 490V667H169V490Z"  />
<glyph unicode="&#x428;" horiz-adv-x="953" d="M882 667V0H71V667H188V103H418V667H535V103H765V667H882Z"  />
<glyph unicode="&#x429;" horiz-adv-x="962" d="M882 667V103H944V-123H827V0H71V667H188V103H418V667H535V103H765V667H882Z"  />
<glyph unicode="&#x42A;" horiz-adv-x="767" d="M230 0V564H28V667H347V418H523Q575 418 615 401T684 356T726 289T741 209Q741 167 727 129T685 63T616 17T523 0H230ZM347 315V103H507Q557 103 589 132T621 209Q621 257 589 286T507 315H347Z"  />
<glyph unicode="&#x42B;" horiz-adv-x="832" d="M188 667V418H364Q416 418 456 401T525 356T567 289T582 209Q582 167 568 129T526 63T457 17T364 0H71V667H188ZM188 315V103H348Q398 103 430 132T462 209Q462 257 430 286T348 315H188ZM644 0V667H761V0H644Z"  />
<glyph unicode="&#x42C;" horiz-adv-x="608" d="M188 667V418H364Q416 418 456 401T525 356T567 289T582 209Q582 167 568 129T526 63T457 17T364 0H71V667H188ZM188 315V103H348Q398 103 430 132T462 209Q462 257 430 286T348 315H188Z"  />
<glyph unicode="&#x42D;" horiz-adv-x="682" d="M291 -12Q240 -12 199 0T126 33T68 81T23 138L123 189Q147 147 192 120T291 92Q335 92 373 106T441 146T490 208T517 288H161V391H515Q506 432 486 465T437 523T370 560T291 574Q237 574 192 547T123 477L23 528Q42 558 67 585T125 633T199 666T291 678Q365 678 429 653T540 583T614 474T641 333Q641 256 614 193T540 84T429 13T291 -12Z"  />
<glyph unicode="&#x42E;" horiz-adv-x="1015" d="M632 -12Q562 -12 503 10T400 73T328 168T293 291H188V0H71V667H188V394H295Q305 457 333 509T406 598T507 657T632 678Q707 678 769 652T877 580T948 471T973 333Q973 258 948 195T878 86T770 14T632 -12ZM632 92Q682 92 723 110T793 161T837 237T853 333Q853 385 838 429T793 505T723 555T632 574Q581 574 541 556T471 505T427 429T411 333Q411 282 426 238T471 161T540 111T632 92Z"  />
<glyph unicode="&#x42F;" horiz-adv-x="628" d="M41 0L204 262Q174 267 146 281T95 320T60 379T46 458Q46 504 61 542T105 608T174 651T264 667H557V0H440V249H324L176 0H41ZM440 352V564H280Q230 564 198 535T166 458Q166 410 198 381T280 352H440Z"  />
<glyph unicode="&#x430;" horiz-adv-x="536" d="M363 0V52Q336 21 296 5T207 -12Q177 -12 147 -2T93 28T54 78T39 148Q39 190 54 219T93 268T147 296T207 305Q256 305 296 290T363 243V315Q363 357 332 381T250 405Q169 405 107 344L64 417Q106 457 157 476T267 495Q307 495 343 486T407 457T451 403T468 320V0H363ZM248 60Q283 60 314 72T363 110V183Q345 208 314 220T248 233Q203 233 174 210T145 146Q145 107 174 84T248 60Z"  />
<glyph unicode="&#x431;" horiz-adv-x="577" d="M286 81Q320 81 346 94T390 129T417 181T426 244Q426 275 417 303T390 354T346 389T286 402Q253 402 227 389T183 354T156 304T147 244Q147 211 156 182T183 130T227 94T286 81ZM286 -12Q227 -12 182 9T104 67T56 154T39 264Q39 352 54 416T99 523T175 590T282 622Q321 628 346 633T387 643T408 654T414 667H517Q517 632 496 609T444 571T377 550T311 539Q267 534 236 522T183 492T149 453T132 410Q161 450 207 472T306 495Q357 495 399 475T471 420T517 339T534 243Q534 192 518 146T469 65T391 9T286 -12Z"  />
<glyph unicode="&#x432;" horiz-adv-x="572" d="M68 0V483H357Q426 483 463 447T500 359Q500 315 476 287T419 249Q458 240 484 207T510 131Q510 74 473 37T364 0H68ZM342 92Q370 92 386 106T402 146Q402 168 387 184T342 201H173V92H342ZM339 293Q365 293 379 307T393 341Q393 364 379 377T339 391H173V293H339Z"  />
<glyph unicode="&#x433;" horiz-adv-x="452" d="M434 391H173V0H68V483H434V391Z"  />
<glyph unicode="&#x434;" horiz-adv-x="571" d="M18 87Q33 91 45 98T67 123T84 170T98 248L127 483H500V92H553V-123H448V0H123V-123H18V87ZM203 236Q198 185 182 150T139 92H395V391H220L203 236Z"  />
<glyph unicode="&#x435;" horiz-adv-x="557" d="M291 -12Q237 -12 191 6T110 57T57 138T38 242Q38 294 56 340T106 421T184 475T283 495Q337 495 381 476T456 421T504 337T521 232V207H148Q151 180 162 156T193 113T240 85T302 74Q337 74 375 87T439 127L487 58Q451 23 400 6T291 -12ZM419 281Q418 302 410 325T386 366T344 397T283 409Q249 409 225 398T184 368T158 326T147 281H419Z"  />
<glyph unicode="&#x436;" horiz-adv-x="731" d="M6 0L211 264L10 483H140L313 294V483H418V294L591 483H721L520 264L725 0H593L445 199L418 171V0H313V171L286 199L138 0H6Z"  />
<glyph unicode="&#x437;" horiz-adv-x="508" d="M242 -12Q167 -12 112 9T20 66L69 133Q103 103 148 89T242 74Q298 74 329 92T360 139Q360 174 325 188T233 202H130V286H233Q287 286 319 301T351 349Q351 375 319 392T235 409Q138 409 80 351L28 415Q63 450 113 472T230 494Q337 495 398 460T460 363Q460 338 449 318T419 284T378 260T332 247Q354 245 378 238T422 216T456 181T470 131Q470 100 455 74T410 28T338 -1T242 -12Z"  />
<glyph unicode="&#x438;" horiz-adv-x="568" d="M68 0V483H173V158L395 483H500V0H395V334L169 0H68Z"  />
<glyph unicode="&#x439;" horiz-adv-x="568" d="M68 0V483H173V158L395 483H500V0H395V334L169 0H68ZM459 622Q429 581 384 558T284 534Q230 534 185 557T108 622L156 662Q178 632 210 614T284 596Q324 596 356 613T411 662L459 622H459Z"  />
<glyph unicode="&#x43A;" horiz-adv-x="526" d="M388 0L240 199L173 130V0H68V483H173V250L386 483H516L315 264L520 0H388Z"  />
<glyph unicode="&#x43B;" horiz-adv-x="568" d="M18 74Q49 74 67 113T98 248L127 483H500V0H395V391H220L203 236Q189 105 143 47T18 -12V74Z"  />
<glyph unicode="&#x43C;" horiz-adv-x="677" d="M504 0V336L360 0H318L173 336V0H68V483H205L339 171L471 483H609V0H504Z"  />
<glyph unicode="&#x43D;" horiz-adv-x="568" d="M68 0V483H173V293H395V483H500V0H395V201H173V0H68Z"  />
<glyph unicode="&#x43E;" horiz-adv-x="573" d="M286 -12Q229 -12 183 8T105 62T55 143T38 242Q38 294 55 340T104 420T183 475T286 495Q344 495 390 475T468 421T518 340T535 242Q535 190 518 144T469 63T390 8T286 -12ZM286 81Q320 81 346 94T390 129T417 180T426 242Q426 274 417 303T390 354T346 389T286 402Q253 402 227 389T183 354T156 303T147 242Q147 210 156 181T183 129T227 94T286 81Z"  />
<glyph unicode="&#x43F;" horiz-adv-x="568" d="M395 0V391H173V0H68V483H500V0H395Z"  />
<glyph unicode="&#x440;" horiz-adv-x="578" d="M328 -12Q282 -12 242 8T173 67V-184H68V483H173V417Q200 453 240 474T328 495Q375 495 414 478T481 429T526 349T542 242Q542 182 526 135T482 56T414 6T328 -12ZM297 81Q360 81 396 126T433 242Q433 277 424 306T396 357T353 390T297 402Q279 402 261 397T226 383T196 362T173 337V146Q182 133 195 121T225 100T260 86T297 81Z"  />
<glyph unicode="&#x441;" horiz-adv-x="497" d="M288 -12Q233 -12 187 7T108 60T57 140T38 242Q38 297 56 343T108 423T187 476T288 495Q359 495 403 470T473 409L404 345Q363 402 293 402Q260 402 233 390T187 357T158 307T147 242Q147 207 157 178T187 127T233 93T293 81Q362 81 404 138L473 74Q447 39 403 14T288 -12Z"  />
<glyph unicode="&#x442;" horiz-adv-x="418" d="M156 0V391H18V483H400V391H261V0H156Z"  />
<glyph unicode="&#x443;" horiz-adv-x="503" d="M63 -95Q71 -99 82 -101T103 -103Q128 -103 144 -94T172 -61L196 -6L-2 483H110L251 121L392 483H505L272 -87Q247 -149 205 -172T106 -196Q95 -196 77 -194T47 -189L63 -95Z"  />
<glyph unicode="&#x444;" horiz-adv-x="833" d="M234 495Q272 495 305 475T364 416V667H469V417Q492 453 525 474T599 495Q638 495 671 478T728 429T765 349T779 242Q779 182 766 135T728 56T671 6T599 -12Q561 -12 528 8T469 67V-184H364V66Q341 30 308 9T234 -12Q195 -12 162 5T105 54T68 134T54 241Q54 301 67 348T105 427T162 477T234 495ZM267 402Q243 402 223 390T189 357T168 306T160 241Q160 171 189 126T267 81Q296 81 323 100T364 146V337Q350 363 323 382T267 402ZM566 81Q590 81 610 93T644 126T665 177T673 242Q673 312 644 357T566 402Q537 402 510 383T469 337V146Q483 120 510 101T566 81Z"  />
<glyph unicode="&#x445;" horiz-adv-x="496" d="M373 0L248 178L122 0H5L182 248L15 483H133L248 319L362 483H480L313 248L491 0H373Z"  />
<glyph unicode="&#x446;" horiz-adv-x="571" d="M448 0H68V483H173V92H395V483H500V92H553V-123H448V0Z"  />
<glyph unicode="&#x447;" horiz-adv-x="550" d="M156 483V353Q156 297 184 276T271 255Q306 255 332 260T377 273V483H482V0H377V188Q353 176 318 169T238 162Q136 162 94 201T51 315V483H156Z"  />
<glyph unicode="&#x448;" horiz-adv-x="791" d="M723 483V0H68V483H173V92H343V483H448V92H618V483H723Z"  />
<glyph unicode="&#x449;" horiz-adv-x="804" d="M723 483V92H786V-123H681V0H68V483H173V92H343V483H448V92H618V483H723Z"  />
<glyph unicode="&#x44A;" horiz-adv-x="628" d="M156 0V391H18V483H261V308H432Q472 308 502 296T552 262T582 213T592 154Q592 123 582 95T551 46T501 13T432 0H156ZM261 216V92H419Q451 92 468 109T485 154Q485 181 468 198T419 216H261Z"  />
<glyph unicode="&#x44B;" horiz-adv-x="750" d="M173 483V308H344Q384 308 414 296T464 262T494 213T504 154Q504 123 494 95T463 46T413 13T344 0H68V483H173ZM173 216V92H331Q363 92 380 109T397 154Q397 181 380 198T331 216H173ZM577 0V483H682V0H577Z"  />
<glyph unicode="&#x44C;" horiz-adv-x="540" d="M173 483V308H344Q384 308 414 296T464 262T494 213T504 154Q504 123 494 95T463 46T413 13T344 0H68V483H173ZM173 216V92H331Q363 92 380 109T397 154Q397 181 380 198T331 216H173Z"  />
<glyph unicode="&#x44D;" horiz-adv-x="497" d="M209 -12Q138 -12 94 13T24 74L89 135Q109 107 139 91T204 74Q261 74 298 106T346 198H128V289H345Q334 346 297 377T204 409Q169 409 139 393T89 348L24 409Q50 444 94 469T209 495Q264 495 310 476T389 423T440 343T459 242Q459 187 441 141T389 60T310 7T209 -12Z"  />
<glyph unicode="&#x44E;" horiz-adv-x="789" d="M502 -12Q450 -12 408 4T335 49T283 117T257 201H173V0H68V483H173V293H258Q266 336 286 373T337 437T410 479T502 495Q560 495 606 475T684 421T734 340T751 242Q751 190 734 144T685 63T606 8T502 -12ZM502 81Q536 81 562 94T606 129T633 180T642 242Q642 274 633 303T606 354T562 389T502 402Q469 402 443 389T399 354T372 303T363 242Q363 210 372 181T399 129T443 94T502 81Z"  />
<glyph unicode="&#x44F;" horiz-adv-x="561" d="M51 0L170 180Q122 191 90 228T57 329Q57 360 67 388T98 437T148 470T217 483H493V0H388V175H277L171 0H51ZM388 267V391H230Q200 391 182 374T164 329Q164 302 181 285T230 267H388Z"  />
<glyph unicode="&#x451;" horiz-adv-x="557" d="M447 608Q447 583 430 566T388 549Q364 549 347 566T329 608Q329 632 346 649T388 666Q412 666 429 649T447 608ZM237 608Q237 583 220 566T179 549Q154 549 137 566T120 608Q120 632 137 649T179 666Q203 666 220 649T237 608ZM291 -12Q237 -12 191 6T110 57T57 138T38 242Q38 294 56 340T106 421T184 475T283 495Q337 495 381 476T456 421T504 337T521 232V207H148Q151 180 162 156T193 113T240 85T302 74Q337 74 375 87T439 127L487 58Q451 23 400 6T291 -12ZM419 281Q418 302 410 325T386 366T344 397T283 409Q249 409 225 398T184 368T158 326T147 281H419Z"  />
<glyph unicode="&#x452;" horiz-adv-x="571" d="M176 531V417Q188 431 205 445T245 470T292 488T347 495Q425 495 464 456T503 342V-28Q503 -106 463 -151T343 -196Q301 -196 278 -188T229 -161L260 -83Q274 -95 289 -102T327 -110Q358 -110 378 -91T398 -28V304Q398 360 371 381T300 402Q260 402 228 382T176 337V0H71V531H9V593H71V667H176V593H327V531H176Z"  />
<glyph unicode="&#x453;" horiz-adv-x="452" d="M266 556H191L331 700H431L266 556ZM434 391H173V0H68V483H434V391Z"  />
<glyph unicode="&#x454;" horiz-adv-x="497" d="M288 -12Q233 -12 187 7T108 60T57 140T38 242Q38 297 56 343T108 423T187 476T288 495Q359 495 403 470T473 409L408 348Q388 377 358 393T293 409Q237 409 200 378T151 289H369V198H150Q161 139 198 107T293 74Q328 74 358 90T408 135L473 74Q447 39 403 14T288 -12Z"  />
<glyph unicode="&#x455;" horiz-adv-x="472" d="M233 -12Q171 -12 118 7T26 63L74 139Q87 126 105 114T145 92T190 77T238 71Q286 71 309 89T333 136Q333 160 312 172T258 192T187 208T117 232T63 275T41 348Q41 378 53 404T90 451T149 483T231 495Q293 495 339 476T419 427L375 353Q353 378 315 394T232 411Q190 411 166 395T142 352Q142 330 163 320T217 301T288 285T358 260T412 215T434 138Q434 106 421 79T383 31T320 0T233 -12Z"  />
<glyph unicode="&#x456;" horiz-adv-x="241" d="M120 542Q94 542 75 561T55 607Q55 634 74 653T120 672Q147 672 166 653T185 607Q185 580 166 561T120 542ZM68 0V483H173V0H68Z"  />
<glyph unicode="&#x457;" horiz-adv-x="241" d="M286 608Q286 583 269 566T227 549Q203 549 186 566T168 608Q168 632 185 649T227 666Q251 666 268 649T286 608ZM76 608Q76 583 59 566T18 549Q-7 549 -24 566T-41 608Q-41 632 -24 649T18 666Q42 666 59 649T76 608ZM68 0V483H173V0H68Z"  />
<glyph unicode="&#x458;" horiz-adv-x="241" d="M120 542Q94 542 75 561T55 607Q55 634 74 653T120 672Q147 672 166 653T185 607Q185 580 166 561T120 542ZM13 -196Q-29 -196 -52 -188T-101 -161L-70 -83Q-56 -95 -41 -102T-3 -110Q28 -110 48 -91T68 -28V483H173V-28Q173 -106 133 -151T13 -196Z"  />
<glyph unicode="&#x459;" horiz-adv-x="867" d="M18 74Q49 74 67 113T98 248L127 483H500V308H671Q711 308 741 296T791 262T821 213T831 154Q831 123 821 95T790 46T740 13T671 0H395V391H220L203 236Q189 105 143 47T18 -12V74ZM500 216V92H658Q690 92 707 109T724 154Q724 181 707 198T658 216H500Z"  />
<glyph unicode="&#x45A;" horiz-adv-x="867" d="M68 0V483H173V293H395V483H500V293H679Q717 293 745 281T793 249T821 203T831 146Q831 117 821 91T792 44T745 12T679 0H395V201H173V0H68ZM500 201V92H666Q694 92 709 107T724 146Q724 170 709 185T666 201H500Z"  />
<glyph unicode="&#x45B;" horiz-adv-x="571" d="M176 531V417Q188 431 205 445T245 470T292 488T347 495Q425 495 464 456T503 342V0H398V304Q398 360 371 381T300 402Q260 402 228 382T176 337V0H71V531H9V593H71V667H176V593H327V531H176Z"  />
<glyph unicode="&#x45C;" horiz-adv-x="526" d="M280 556H205L345 700H445L280 556ZM388 0L240 199L173 130V0H68V483H173V250L386 483H516L315 264L520 0H388Z"  />
<glyph unicode="&#x45E;" horiz-adv-x="503" d="M63 -95Q71 -99 82 -101T103 -103Q128 -103 144 -94T172 -61L196 -6L-2 483H110L251 121L392 483H505L272 -87Q247 -149 205 -172T106 -196Q95 -196 77 -194T47 -189L63 -95ZM427 622Q397 581 352 558T252 534Q198 534 153 557T76 622L124 662Q146 632 178 614T252 596Q292 596 324 613T379 662L427 622H427Z"  />
<glyph unicode="&#x45F;" horiz-adv-x="568" d="M232 0H68V483H173V92H395V483H500V0H337V-127H232V0Z"  />
<glyph unicode="&#x490;" horiz-adv-x="562" d="M188 0H71V667H411V790H528V564H188V0Z"  />
<glyph unicode="&#x491;" horiz-adv-x="452" d="M173 0H68V483H329V610H434V391H173V0Z"  />
<glyph unicode="&#x2013;" horiz-adv-x="593" d="M30 197V287H563V197H30Z"  />
<glyph unicode="&#x2014;" horiz-adv-x="833" d="M30 197V287H803V197H30Z"  />
<glyph unicode="&#x2018;" horiz-adv-x="244" d="M42 507Q42 559 68 603T136 677L183 639Q171 632 159 621T138 598T121 572T111 545Q117 547 128 547Q154 547 171 530T188 484Q188 456 168 436T120 416Q89 416 66 439T42 507Z"  />
<glyph unicode="&#x2019;" horiz-adv-x="244" d="M198 586Q198 534 172 489T104 415L57 454Q69 461 81 472T102 495T119 521T129 548Q127 547 122 546T112 545Q86 545 69 562T52 608Q52 637 72 657T120 677Q151 677 174 654T198 586Z"  />
<glyph unicode="&#x201A;" horiz-adv-x="245" d="M198 38Q198 -14 172 -59T104 -133L57 -94Q69 -87 81 -76T102 -53T119 -27T129 0Q127 -1 122 -2T112 -3Q86 -3 69 14T52 60Q52 89 72 109T120 129Q151 129 174 106T198 38Z"  />
<glyph unicode="&#x201C;" horiz-adv-x="429" d="M46 507Q46 559 71 603T139 677L187 639Q175 632 163 621T141 598T124 572T115 545Q119 547 132 547Q157 547 174 530T191 484Q191 456 172 436T123 416Q92 416 69 439T46 507ZM231 507Q231 559 256 603T324 677L372 639Q360 632 348 621T326 598T309 572T300 545Q304 547 317 547Q342 547 359 530T376 484Q376 456 357 436T308 416Q277 416 254 439T231 507Z"  />
<glyph unicode="&#x201D;" horiz-adv-x="429" d="M383 586Q383 534 357 489T289 415L242 454Q254 461 266 472T287 495T304 521T314 548Q312 547 307 546T297 545Q271 545 254 562T237 608Q237 637 257 657T305 677Q336 677 359 654T383 586ZM198 586Q198 534 172 489T104 415L57 454Q69 461 81 472T102 495T119 521T129 548Q127 547 122 546T112 545Q86 545 69 562T52 608Q52 637 72 657T120 677Q151 677 174 654T198 586Z"  />
<glyph unicode="&#x201E;" horiz-adv-x="430" d="M198 38Q198 -14 172 -59T104 -133L57 -94Q69 -87 81 -76T102 -53T119 -27T129 0Q127 -1 122 -2T112 -3Q86 -3 69 14T52 60Q52 89 72 109T120 129Q151 129 174 106T198 38ZM383 38Q383 -14 357 -59T289 -133L242 -94Q254 -87 266 -76T287 -53T304 -27T314 0Q312 -1 307 -2T297 -3Q271 -3 254 14T237 60Q237 89 257 109T305 129Q336 129 359 106T383 38Z"  />
<glyph unicode="&#x2020;" horiz-adv-x="271" d="M161 530L165 327H105L110 530L21 526V580L110 577L105 677H165L161 577L250 580V526L161 530Z"  />
<glyph unicode="&#x2021;" horiz-adv-x="271" d="M250 526L161 530V328L250 332V278L161 281L165 180H105L109 281L21 278V332L109 328V530L21 526V580L109 577L105 677H165L161 577L250 580V526Z"  />
<glyph unicode="&#x2022;" horiz-adv-x="358" d="M294 242Q294 219 285 199T261 163T225 138T180 129Q156 129 136 138T100 162T75 198T66 242Q66 266 75 286T99 322T135 347T180 356Q204 356 224 347T260 323T285 287T294 242Z"  />
<glyph unicode="&#x2026;" horiz-adv-x="734" d="M191 59Q191 31 171 11T121 -10Q92 -10 72 10T52 59Q52 88 72 108T121 129Q150 129 170 109T191 59ZM436 59Q436 31 416 11T366 -10Q337 -10 317 10T297 59Q297 88 317 108T366 129Q395 129 415 109T436 59ZM681 59Q681 31 661 11T611 -10Q582 -10 562 10T542 59Q542 88 562 108T611 129Q640 129 660 109T681 59Z"  />
<glyph unicode="&#x2030;" horiz-adv-x="1105" d="M360 510Q360 475 348 445T314 393T261 359T193 346Q156 346 126 358T74 393T40 445T28 510Q28 545 40 575T73 628T125 664T193 677Q230 677 261 664T314 629T348 576T360 510ZM195 0H129L555 667H622L195 0ZM718 152Q718 117 706 87T672 35T620 1T552 -12Q515 -12 485 0T433 35T399 87T387 152Q387 187 399 217T432 270T484 306T552 319Q589 319 619 306T672 271T706 218T718 152ZM282 510Q282 558 257 587T193 616Q155 616 130 587T105 510Q105 463 130 435T193 406Q232 406 257 434T282 510ZM641 152Q641 200 616 229T552 258Q513 258 489 229T464 152Q464 105 488 77T552 48Q591 48 616 76T641 152ZM1077 152Q1077 117 1065 87T1031 35T979 1T911 -12Q874 -12 844 0T792 35T758 87T746 152Q746 187 758 217T791 270T843 306T911 319Q948 319 978 306T1031 271T1065 218T1077 152ZM1000 152Q1000 200 975 229T911 258Q872 258 848 229T823 152Q823 105 847 77T911 48Q950 48 975 76T1000 152Z"  />
<glyph unicode="&#x2039;" horiz-adv-x="319" d="M190 63L30 243L190 420H289L129 243L289 63H190Z"  />
<glyph unicode="&#x203A;" horiz-adv-x="319" d="M129 63H30L190 243L30 420H129L289 243L129 63Z"  />
<glyph unicode="&#x20AC;" horiz-adv-x="703" d="M413 -12Q352 -12 298 5T200 53T125 129T77 230H25V297H64Q63 305 63 314T63 333Q63 343 63 352T65 371H25V438H77Q93 493 125 537T201 612T299 661T413 678Q464 678 505 666T579 633T637 585T681 528L581 477Q557 519 512 546T413 574Q341 574 286 538T204 438H474V371H185Q184 362 184 353T183 333Q183 324 183 315T185 297H474V230H203Q229 167 284 130T413 92Q467 92 512 119T581 189L681 138Q662 108 637 81T579 33T505 0T413 -12Z"  />
<glyph unicode="&#x2116;" horiz-adv-x="1125" d="M922 350Q883 350 852 363T800 398T766 451T754 515Q754 549 766 579T799 631T852 667T922 680Q961 680 992 667T1046 632T1079 579T1091 515Q1091 481 1080 451T1046 399T993 363T922 350ZM922 413Q964 413 987 441T1011 515Q1011 560 988 587T922 615Q880 615 857 588T834 515Q834 470 857 442T922 413ZM536 0L188 476V0H71V667H191L532 204V667H649V0H536Z"  />
<glyph unicode="&#x2122;" horiz-adv-x="454" d="M391 447V629L316 447H308L233 629V447H205V667H248L312 507L376 667H419V447H391ZM107 641V447H79V641H17V667H169V641H107Z"  />


</font>
</defs>
</svg>
