<?xml  version="1.0" encoding="UTF-8"?>
<!DOCTYPE svg PUBLIC "-//W3C//DTD SVG 1.0//EN" "http://www.w3.org/TR/2001/REC-SVG-20010904/DTD/svg10.dtd" >
<svg xmlns="http://www.w3.org/2000/svg" >
<metadata>
<version>1.0</version>
<id><![CDATA[DIN Next W10 Italic]]></id>
<vendor>Monotype Imaging Inc.</vendor>
<credits>
<name>Fonts.com WebFonts</name>
<URL>http://webfonts.fonts.com</URL>
<role>Home of the Web fonts</role>
</credits>
<license>
<URL>http://webfonts.fonts.com/Legal</URL>
</license>
<copyright><![CDATA[Copyright 2009 Monotype Imaging Inc. All rights reserved.]]></copyright>
<trademark><![CDATA[101]]></trademark>
<licensee>
<name></name>
</licensee>
</metadata>
<defs >
<font horiz-adv-x="414" id="714ea6d6-9707-431f-98da-a3c0e7a9968c">
<font-face font-family="" panose-1="2 11 5 3 2 2 3 12 2 3" ascent="850" descent="-350" units-per-em="1000" alphabetic="0">
</font-face>
<missing-glyph horiz-adv-x="232" />

<glyph unicode="&#xA;" />
<glyph unicode="&#xD;" horiz-adv-x="0" />
<glyph unicode=" " horiz-adv-x="232" />
<glyph unicode="!" horiz-adv-x="273" d="M111 183Q102 183 104 193L174 670Q175 680 184 680H253Q263 680 261 670L162 193Q160 183 151 183H111ZM72 93Q74 103 83 103H153Q164 103 162 93L148 10Q146 0 137 0H66Q56 0 58 10L72 93Z"  />
<glyph unicode="&quot;" horiz-adv-x="317" d="M253 506Q243 506 245 516L272 670Q274 680 283 680H324Q334 680 332 670L305 516Q303 506 294 506H253ZM127 506Q117 506 119 516L146 670Q148 680 157 680H198Q208 680 206 670L179 516Q177 506 168 506H127Z"  />
<glyph unicode="#" horiz-adv-x="494" d="M105 216H34Q23 216 25 226L32 264Q34 274 43 274H123L168 420H94Q84 420 86 430L92 468Q94 478 104 478H186L245 670Q248 680 257 680H300Q310 680 307 670L248 478H377L436 670Q439 680 447 680H490Q501 680 498 670L439 478H513Q523 478 521 468L514 430Q512 420 504 420H421L376 274H453Q464 274 462 264L455 226Q453 216 444 216H358L295 10Q292 0 283 0H240Q230 0 233 10L296 216H167L104 10Q101 0 92 0H49Q39 0 42 10L105 216ZM314 274L359 420H230L185 274H314Z"  />
<glyph unicode="$" horiz-adv-x="517" d="M30 58Q23 64 31 72L71 116Q78 123 85 117Q106 98 137 82T211 63L255 308Q184 322 148 363T112 467Q112 513 127 553T171 622T237 669T322 690L331 740Q333 750 342 750H369Q379 750 376 740L367 689Q409 685 441 671T499 637Q505 631 500 623L465 581Q458 573 451 578Q428 593 405 602T354 615L313 380Q388 367 424 327T460 226Q460 175 444 134T400 62T332 14T245 -9L236 -60Q234 -70 224 -70H198Q188 -70 190 -60L198 -10Q144 -7 102 12T30 58ZM309 615Q283 612 262 600T225 570T200 529T191 478Q191 445 208 422T269 388L309 615ZM258 65Q315 75 347 116T380 212Q380 244 362 266T299 300L258 65Z"  />
<glyph unicode="%" horiz-adv-x="748" d="M614 681Q621 691 629 691H673Q678 691 679 688T677 681L178 -1Q171 -11 162 -11H118Q113 -11 112 -8T114 -1L614 681ZM214 330Q171 330 142 354T113 425Q113 437 116 462T124 516T136 571T150 612Q168 649 197 668T272 688Q315 688 343 664T372 593Q372 581 369 555T361 501T350 446T336 406Q318 369 289 350T214 330ZM221 385Q260 385 279 422Q284 432 290 455T301 504T309 553T312 587Q312 608 300 620T265 633Q225 633 207 596Q202 586 196 563T185 514T177 465T174 431Q174 410 186 398T221 385ZM419 87Q419 99 422 124T430 178T442 233T456 273Q474 310 503 329T578 349Q621 349 649 325T678 254Q678 242 675 217T667 163T656 108T642 68Q624 30 595 11T520 -9Q477 -9 448 15T419 87ZM479 93Q479 71 491 59T526 46Q565 46 584 83Q590 93 596 116T607 165T615 214T618 248Q618 269 606 281T570 294Q531 294 512 258Q507 247 501 224T490 175T482 126T479 93Z"  />
<glyph unicode="&amp;" horiz-adv-x="603" d="M42 135Q42 165 50 193T78 251T131 312T213 380Q187 428 173 461T159 524Q159 559 173 589T211 642T268 678T337 691Q395 691 428 657T462 572Q462 547 455 524T431 476T384 424T308 364L401 199L486 288Q492 294 500 290L533 255Q539 248 532 241L434 138L457 98Q465 84 473 80T494 75H513Q523 75 521 65L511 10Q509 0 500 0H477Q447 0 431 9T400 46L380 82Q329 34 285 12T190 -11Q120 -11 81 30T42 135ZM275 425Q310 450 332 469T366 505T382 534T387 560Q387 589 371 605T325 622Q306 622 290 615T261 596T243 568T236 532Q236 522 238 513T244 491T256 463T275 425ZM119 145Q119 108 141 86T204 63Q237 63 268 81T346 143L247 320Q177 270 148 230T119 145Z"  />
<glyph unicode="&apos;" horiz-adv-x="191" d="M127 506Q117 506 119 516L146 670Q148 680 157 680H198Q208 680 206 670L179 516Q177 506 168 506H127H127Z"  />
<glyph unicode="(" horiz-adv-x="280" d="M129 -74Q102 -11 88 57T74 197Q74 340 125 475T271 730Q278 740 287 740H321Q332 740 325 730Q244 604 197 463T149 168Q149 103 157 42T183 -74Q186 -84 176 -84H142Q133 -84 129 -74Z"  />
<glyph unicode=")" horiz-adv-x="280" d="M-7 -74Q74 52 121 193T169 488Q169 553 161 614T135 730Q132 740 142 740H176Q185 740 189 730Q217 667 230 599T244 459Q244 316 193 181T47 -74Q40 -84 31 -84H-3Q-14 -84 -7 -74Z"  />
<glyph unicode="*" horiz-adv-x="335" d="M182 398Q172 398 174 408L190 497L109 453Q98 447 95 456L85 482Q82 491 92 495L176 540L109 585Q100 590 107 599L123 622Q130 631 138 624L205 578L220 670Q222 680 232 680H259Q269 680 267 670L250 580L333 626Q343 632 347 623L356 597Q359 589 350 584L265 538L333 493Q342 487 335 480L318 456Q313 447 304 454L236 499L221 408Q219 398 209 398H182H182Z"  />
<glyph unicode="+" horiz-adv-x="517" d="M232 234Q232 240 226 240H70Q60 240 60 250V302Q60 312 70 312H226Q232 312 232 318V476Q232 486 242 486H295Q305 486 305 476V318Q305 312 311 312H467Q477 312 477 302V250Q477 240 467 240H311Q305 240 305 234V77Q305 67 295 67H242Q232 67 232 77V234Z"  />
<glyph unicode="&#x2c;" horiz-adv-x="226" d="M52 93Q54 103 63 103H128Q138 103 136 93L121 3Q118 -10 112 -19L41 -100Q35 -107 28 -107Q18 -107 20 -97L52 93Z"  />
<glyph unicode="-" horiz-adv-x="361" d="M58 230Q48 230 50 240L59 293Q60 302 71 302H324Q334 302 332 292L324 239Q322 230 312 230H58H58Z"  />
<glyph unicode="." horiz-adv-x="226" d="M46 93Q48 103 57 103H128Q138 103 136 93L123 10Q121 0 112 0H41Q31 0 33 10L46 93Z"  />
<glyph unicode="/" horiz-adv-x="391" d="M350 681Q354 691 364 691H415Q425 691 420 681L88 -1Q84 -11 74 -11H22Q12 -11 17 -1L350 681Z"  />
<glyph unicode="0" horiz-adv-x="517" d="M62 144Q62 162 66 196T76 271T91 358T108 445T126 518T143 567Q175 632 224 661T340 691Q415 691 457 650T499 536Q499 518 495 484T485 409T470 322T453 235T435 162T418 113Q387 48 338 19T222 -11Q147 -11 105 30T62 144ZM143 150Q143 112 164 87T231 62Q270 62 298 80T343 134Q350 147 358 177T374 245T390 327T404 410T414 482T418 530Q418 568 397 593T330 618Q253 618 219 547Q212 534 204 504T188 435T171 353T157 270T147 198T143 150Z"  />
<glyph unicode="1" horiz-adv-x="517" d="M303 580H301L177 499Q172 496 169 498T167 506L178 575Q180 585 187 589L316 674Q325 680 333 680H389Q400 680 398 670L281 10Q279 0 270 0H211Q200 0 202 10L303 580Z"  />
<glyph unicode="2" horiz-adv-x="517" d="M44 59Q46 66 53 73L342 387Q378 426 396 459T414 530Q414 569 392 593T327 617Q280 617 248 590T200 515Q197 506 188 507L133 519Q125 521 128 530Q137 561 154 590T197 641T257 677T334 691Q371 691 401 680T452 648T484 601T496 541Q496 485 472 440T400 343L150 75V73H405Q416 73 414 63L404 10Q402 0 393 0H45Q34 0 36 10L44 59Z"  />
<glyph unicode="3" horiz-adv-x="517" d="M50 132Q48 141 59 144L116 159Q125 161 126 152Q129 135 135 119T153 91T183 71T228 63Q258 63 283 75T327 107T356 155T367 215Q367 262 341 289T266 316H238Q228 316 230 326L239 380Q240 389 250 389H277Q306 389 330 400T373 431T401 475T411 530Q411 569 388 593T323 617Q275 617 246 592T201 532Q198 522 189 524L135 538Q127 540 130 550Q140 578 158 604T203 649T264 679T337 691Q412 691 452 651T493 546Q493 485 463 436T381 360V358Q408 345 428 313T449 230Q449 177 432 133T385 57T313 7T220 -11Q140 -11 97 30T50 132Z"  />
<glyph unicode="4" horiz-adv-x="517" d="M40 122Q30 122 32 131L40 182Q41 186 42 188T46 196L339 672Q344 680 354 680H416Q426 680 421 671L133 196V194H303Q309 194 311 200L343 380Q345 390 354 390H414Q425 390 423 380L391 200Q389 194 396 194H455Q465 194 463 184L455 131Q453 122 443 122H383Q377 122 376 116L357 10Q355 0 346 0H286Q276 0 278 10L297 116Q298 122 292 122H40H40Z"  />
<glyph unicode="5" horiz-adv-x="517" d="M66 132Q66 142 74 144L132 157Q140 158 142 149Q144 111 166 87T234 63Q269 63 297 79T343 131Q350 146 356 166T367 208T373 250T376 286Q376 375 291 375Q251 375 222 355T181 309Q177 299 168 299H113Q105 299 106 309L170 670Q172 680 180 680H507Q518 680 516 670L507 617Q505 607 495 607H238Q232 607 231 601L195 402H197Q212 419 242 433T315 448Q383 448 419 412T456 304Q456 285 453 259T445 204T432 148T414 100Q386 43 339 16T226 -11Q188 -11 159 -1T108 29T77 74T66 132Z"  />
<glyph unicode="6" horiz-adv-x="517" d="M53 153Q53 204 70 250T124 351L347 673Q352 680 361 680H425Q435 680 430 670L234 386L236 385Q247 393 265 397T306 401Q374 401 416 359T459 244Q459 192 442 146T394 65T320 10T222 -11Q146 -11 100 32T53 153ZM133 164Q133 118 159 91T231 63Q263 63 290 76T336 111T367 164T378 227Q378 273 352 301T279 329Q247 329 220 316T174 280T144 227T133 164Z"  />
<glyph unicode="7" horiz-adv-x="517" d="M431 605V607H229Q223 607 222 601L206 514Q204 504 195 504H139Q129 504 131 514L159 670Q161 680 170 680H517Q528 680 526 670L516 614Q515 607 511 601L182 9Q177 0 166 0H105Q95 0 101 11L431 605Z"  />
<glyph unicode="8" horiz-adv-x="517" d="M49 149Q49 181 57 212T82 270T121 320T175 358L176 360Q153 375 138 403T122 471Q122 511 136 550T178 621T246 672T340 691Q378 691 407 680T457 648T487 600T498 540Q498 483 470 435T392 358L391 356Q421 339 440 306T459 227Q459 179 442 136T394 60T319 8T222 -11Q142 -11 96 33T49 149ZM289 394Q316 394 340 404T381 433T408 477T418 530Q418 568 395 592T330 617Q303 617 280 607T239 578T212 535T202 482Q202 444 224 419T289 394ZM129 163Q129 118 156 91T231 63Q262 63 289 75T336 108T367 158T379 220Q379 265 352 293T277 321Q246 321 219 309T172 275T141 225T129 163Z"  />
<glyph unicode="9" horiz-adv-x="517" d="M326 294L324 295Q303 280 256 280Q222 280 194 292T145 325T114 376T102 442Q102 490 118 535T165 614T240 670T340 691Q416 691 462 648T509 527Q509 477 491 429T437 330L214 7Q208 0 200 0H137Q132 0 131 3T131 10L326 294ZM283 351Q316 351 342 364T388 401T418 453T429 514Q429 561 404 589T330 617Q297 617 271 604T225 568T195 516T184 454Q184 408 209 380T283 351Z"  />
<glyph unicode=":" horiz-adv-x="226" d="M108 376Q97 376 99 386L113 469Q115 479 124 479H195Q205 479 203 469L190 386Q188 376 179 376H108ZM46 93Q48 103 57 103H128Q138 103 136 93L123 10Q121 0 112 0H41Q31 0 33 10L46 93Z"  />
<glyph unicode=";" horiz-adv-x="226" d="M108 376Q97 376 99 386L113 469Q115 479 124 479H195Q205 479 203 469L190 386Q188 376 179 376H108ZM49 93Q51 103 60 103H125Q136 103 134 93L119 3Q117 -5 115 -9T109 -19L38 -100Q32 -107 25 -107Q15 -107 17 -97L49 93Z"  />
<glyph unicode="&lt;" horiz-adv-x="517" d="M65 240Q55 245 55 254V298Q55 307 65 312L462 474Q472 477 472 468V408Q472 399 462 395L158 277V275L462 157Q472 153 472 144V84Q472 75 462 78L65 240H65Z"  />
<glyph unicode="=" horiz-adv-x="517" d="M60 338Q50 338 50 348V401Q50 411 60 411H457Q467 411 467 401V348Q467 338 457 338H60ZM60 141Q50 141 50 151V204Q50 214 60 214H457Q467 214 467 204V151Q467 141 457 141H60Z"  />
<glyph unicode="&gt;" horiz-adv-x="517" d="M56 144Q56 153 66 157L369 275V277L66 395Q56 399 56 408V468Q56 477 66 474L463 312Q473 307 473 298V254Q473 245 463 240L66 78Q56 75 56 84V144Z"  />
<glyph unicode="?" horiz-adv-x="437" d="M179 181Q169 181 171 191L179 232Q184 262 194 282T223 324L301 414Q338 454 354 482T370 541Q370 576 349 596T291 617Q249 617 219 591T171 520Q168 511 159 512L102 522Q94 523 97 533Q120 606 174 648T304 691Q373 691 412 653T451 553Q451 511 433 473T373 390L296 300Q277 280 270 265T257 224L249 191Q247 181 238 181H179ZM149 93Q151 103 160 103H231Q241 103 239 93L226 10Q224 0 215 0H144Q134 0 136 10L149 93Z"  />
<glyph unicode="@" horiz-adv-x="868" d="M51 200Q51 302 83 386T173 532T314 626T498 660Q571 660 631 638T735 574T802 474T826 344Q826 282 814 229T777 138T715 78T629 56Q588 56 562 75T527 128H526Q503 93 470 75T387 56Q335 56 299 89T263 188Q263 208 265 232T273 280T285 328T302 371Q326 421 364 445T452 470Q496 470 520 453T554 413H556L562 450Q564 460 572 460H621Q630 460 628 450L585 204Q577 158 594 138T639 118Q669 118 691 135T729 183T752 252T760 335Q760 396 741 445T686 528T600 580T487 598Q404 598 337 569T220 487T145 362T118 203Q118 141 137 92T191 9T277 -44T390 -63Q425 -63 453 -60T505 -50T551 -36T596 -16Q605 -12 608 -21L622 -62Q625 -70 615 -75Q564 -101 509 -114T380 -127Q306 -127 246 -104T142 -37T75 66T51 200ZM330 200Q330 163 348 141T406 118Q474 118 506 183Q513 197 518 215T528 253T534 292T536 326Q536 363 518 385T460 408Q428 408 403 393T360 343Q353 329 348 311T338 272T332 233T330 200Z"  />
<glyph unicode="A" horiz-adv-x="586" d="M-6 0Q-16 0 -11 10L333 670Q338 680 347 680H407Q416 680 418 670L525 10Q527 0 517 0H455Q445 0 444 10L420 162H155L77 10Q73 0 64 0H-6ZM409 238L360 554H357L194 238H409Z"  />
<glyph unicode="B" horiz-adv-x="583" d="M162 670Q164 680 173 680H402Q487 680 529 642T572 534Q572 468 542 422T453 352V350Q466 345 479 336T503 311T521 275T528 228Q528 122 465 61T281 0H54Q43 0 45 10L162 670ZM348 384Q379 384 405 394T449 422T477 464T487 517Q487 558 462 581T388 604H239Q233 604 232 598L196 390Q194 384 200 384H348ZM141 82Q139 76 145 76H299Q366 76 405 115T445 216Q445 258 419 282T340 307H187Q181 307 180 301L141 82Z"  />
<glyph unicode="C" horiz-adv-x="544" d="M60 188Q60 213 66 260T82 359T104 461T131 537Q170 618 228 654T370 691Q439 691 487 655T553 551Q556 543 547 540L492 514Q482 511 480 519Q466 561 438 587T360 613Q306 613 269 587T207 509Q195 485 184 441T165 350T151 261T145 196Q145 136 176 102T268 67Q316 67 353 93T417 160Q422 168 430 165L482 137Q489 134 484 125Q440 53 384 21T255 -11Q166 -11 113 40T60 188Z"  />
<glyph unicode="D" horiz-adv-x="602" d="M162 670Q164 680 173 680H392Q486 680 531 633T577 497Q577 465 572 416T556 314T533 212T505 132Q469 58 413 29T273 0H54Q43 0 45 10L162 670ZM141 84Q139 78 146 78H268Q329 78 369 100T435 173Q446 195 457 236T476 323T490 411T496 480Q496 546 462 574T361 602H239Q233 602 232 596L141 84Z"  />
<glyph unicode="E" horiz-adv-x="540" d="M162 670Q164 680 173 680H563Q574 680 572 670L562 612Q560 602 550 602H239Q233 602 232 596L196 389Q194 383 201 383H465Q475 383 473 373L463 315Q461 305 451 305H187Q181 305 180 299L141 84Q139 78 146 78H457Q467 78 465 68L455 10Q453 0 444 0H54Q43 0 45 10L162 670Z"  />
<glyph unicode="F" horiz-adv-x="533" d="M162 670Q164 680 173 680H563Q574 680 572 670L562 612Q560 602 550 602H239Q233 602 232 596L194 382Q194 376 199 376H463Q474 376 472 366L462 308Q460 298 450 298H186Q180 298 179 292L128 10Q126 0 118 0H54Q43 0 45 10L162 670Z"  />
<glyph unicode="G" horiz-adv-x="592" d="M60 188Q60 213 66 260T82 360T104 462T131 539Q170 618 232 654T382 691Q418 691 449 681T505 653T546 610T571 556Q573 546 565 543L509 518Q500 515 498 523Q465 613 368 613Q312 613 272 586T208 509Q196 485 185 441T165 350T151 261T145 196Q145 135 178 101T271 67Q380 67 429 168Q439 188 447 215T462 279Q463 285 457 285H330Q321 285 323 295L332 349Q334 359 343 359H551Q560 359 558 349L549 299Q546 278 541 256T530 212T518 173T506 141Q467 61 407 25T258 -11Q214 -11 178 2T115 40T75 102T60 188Z"  />
<glyph unicode="H" horiz-adv-x="627" d="M162 670Q164 680 173 680H237Q247 680 245 670L195 389Q193 383 200 383H487Q492 383 494 389L544 670Q546 680 554 680H618Q629 680 627 670L510 10Q508 0 499 0H435Q425 0 427 10L478 299Q479 305 473 305H187Q181 305 180 299L128 10Q126 0 118 0H54Q43 0 45 10L162 670Z"  />
<glyph unicode="I" horiz-adv-x="245" d="M162 670Q164 680 173 680H237Q247 680 245 670L128 10Q126 0 118 0H54Q43 0 45 10L162 670Z"  />
<glyph unicode="J" horiz-adv-x="473" d="M8 62Q4 69 11 76L61 111Q69 117 76 109Q92 92 115 80T166 68Q223 68 260 102T312 215L392 670Q394 680 403 680H467Q477 680 475 670L394 215Q383 152 363 109T313 39T245 1T159 -11Q135 -11 112 -5T69 11T33 34T8 62Z"  />
<glyph unicode="K" horiz-adv-x="593" d="M162 670Q164 680 173 680H237Q247 680 245 670L183 322L521 671Q530 680 539 680H618Q622 680 623 677T621 668L366 409L514 11Q518 0 506 0H442Q433 0 429 9L305 346L161 198L128 10Q126 0 118 0H54Q43 0 45 10L162 670Z"  />
<glyph unicode="L" horiz-adv-x="515" d="M162 670Q164 680 173 680H237Q247 680 245 670L141 84Q139 78 146 78H458Q467 78 465 68L455 10Q453 0 445 0H54Q43 0 45 10L162 670Z"  />
<glyph unicode="M" horiz-adv-x="726" d="M162 670Q164 680 173 680H228Q240 680 241 670L358 212H361L638 670Q644 680 653 680H717Q728 680 726 670L609 10Q607 0 598 0H540Q530 0 532 10L618 490H615L380 109Q372 97 361 97H325Q313 97 309 110L211 491H208L122 10Q120 0 111 0H54Q43 0 45 10L162 670Z"  />
<glyph unicode="N" horiz-adv-x="627" d="M162 670Q164 680 173 680H233Q243 680 247 670L453 151H457L550 670Q552 680 561 680H619Q629 680 627 670L511 10Q509 0 500 0H440Q430 0 426 10L218 529H214L122 10Q120 0 111 0H54Q43 0 45 10L162 670Z"  />
<glyph unicode="O" horiz-adv-x="593" d="M257 -11Q167 -11 114 40T60 188Q60 213 66 260T82 360T104 462T131 539Q170 618 230 654T379 691Q469 691 522 640T576 492Q576 467 570 420T554 320T531 218T504 141Q466 62 406 26T257 -11ZM270 67Q325 67 364 94T428 171Q440 195 451 239T471 330T485 419T491 484Q491 545 459 579T366 613Q311 613 272 586T208 509Q196 485 185 441T165 350T151 261T145 196Q145 135 177 101T270 67Z"  />
<glyph unicode="P" horiz-adv-x="568" d="M54 0Q44 0 46 10L162 670Q164 680 173 680H404Q489 680 534 638T580 521Q580 461 562 416T511 340T433 293T334 277H183Q176 277 176 271L129 10Q127 0 118 0H54ZM341 355Q410 355 453 395T497 508Q497 553 469 577T387 602H240Q234 602 233 596L191 361Q189 355 196 355H341Z"  />
<glyph unicode="Q" horiz-adv-x="595" d="M453 -45Q442 -52 437 -42L399 22Q339 -11 257 -11Q167 -11 114 40T60 188Q60 213 66 260T82 360T104 462T131 539Q170 618 230 654T379 691Q469 691 522 640T576 492Q576 467 570 420T554 320T531 218T504 141Q483 99 457 70L501 -2Q506 -11 497 -17L453 -45ZM270 67Q320 67 358 90L306 177Q301 186 310 192L354 220Q365 227 370 217L413 145Q417 151 420 157T428 171Q440 195 451 239T471 330T485 419T491 484Q491 545 459 579T366 613Q311 613 272 586T208 509Q196 485 185 441T165 350T151 261T145 196Q145 135 177 101T270 67Z"  />
<glyph unicode="R" horiz-adv-x="593" d="M428 0Q419 0 416 10L333 291H185Q178 291 178 285L128 10Q126 0 118 0H54Q43 0 45 10L162 670Q164 680 173 680H407Q488 680 535 638T582 523Q582 481 570 445T535 380T481 331T412 300L499 12Q501 7 499 4T492 0H428ZM350 368Q417 369 457 407T498 511Q498 556 471 579T392 602H239Q233 602 232 596L193 374Q191 368 198 368H350Z"  />
<glyph unicode="S" horiz-adv-x="569" d="M243 -11Q210 -11 178 -4T117 14T65 41T26 74Q21 81 27 88L74 135Q82 143 88 136Q117 109 160 89T260 68Q297 68 328 79T381 109T416 154T428 212Q428 231 423 245T404 271T369 289T313 302L282 307Q201 320 159 360T117 469Q117 519 135 560T185 630T263 675T361 691Q418 691 468 673T551 626Q558 620 551 612L514 566Q508 558 500 564Q465 588 429 600T350 613Q318 613 291 603T245 574T215 532T204 479Q204 441 229 419T321 386L352 381Q435 367 475 330T515 226Q515 171 496 127T440 53T354 6T243 -11Z"  />
<glyph unicode="T" horiz-adv-x="514" d="M188 0Q178 0 180 10L284 596Q285 602 279 602H99Q89 602 91 612L101 670Q103 680 112 680H566Q577 680 575 670L565 612Q563 602 553 602H373Q368 602 367 596L263 10Q261 0 252 0H188Z"  />
<glyph unicode="U" horiz-adv-x="613" d="M281 -11Q227 -11 185 5T117 54T80 133T81 240L157 670Q159 680 168 680H232Q242 680 240 670L164 237Q149 152 182 110T287 67Q321 67 349 75T398 103T435 155T459 237L535 670Q537 680 546 680H609Q620 680 618 670L540 230Q528 163 506 117T452 43T376 2T281 -11Z"  />
<glyph unicode="V" horiz-adv-x="543" d="M206 0Q198 0 196 10L100 668Q98 680 109 680H170Q182 680 183 670L256 137H258L516 670Q522 680 532 680H597Q602 680 604 677T603 668L275 10Q272 5 270 3T262 0H206Z"  />
<glyph unicode="W" horiz-adv-x="795" d="M512 0Q504 0 502 10L455 527H453L220 10Q215 0 207 0H155Q147 0 145 10L104 670Q104 680 114 680H174Q184 680 184 670L209 157H211L440 670Q445 680 453 680H500Q508 680 510 670L558 157H560L766 670Q769 680 779 680H844Q854 680 851 670L575 10Q572 0 563 0H512Z"  />
<glyph unicode="X" horiz-adv-x="539" d="M401 0Q391 0 388 9L286 273H284L85 9Q81 4 79 2T71 0H-6Q-11 0 -12 3T-10 12L248 355L124 668Q122 673 124 676T131 680H201Q209 680 214 671L305 437H306L482 671Q486 676 489 678T498 680H572Q577 680 578 677T576 668L341 355L477 12Q479 7 477 4T470 0H401Z"  />
<glyph unicode="Y" horiz-adv-x="509" d="M186 0Q175 0 177 10L225 279L100 669Q98 680 109 680H172Q182 680 185 670L279 373H282L482 670Q489 680 498 680H563Q575 680 570 669L308 278L260 10Q258 0 249 0H186Z"  />
<glyph unicode="Z" horiz-adv-x="516" d="M20 0Q9 0 11 10L21 68Q22 72 24 75T28 82L439 601V602H138Q128 602 130 612L140 670Q142 680 151 680H542Q552 680 550 670L541 615Q540 608 534 601L121 79V78H436Q446 78 444 68L434 10Q432 0 422 0H20Z"  />
<glyph unicode="[" horiz-adv-x="272" d="M37 -84Q27 -84 29 -74L171 730Q173 740 182 740H319Q328 740 326 730L318 685Q316 675 308 675H241Q234 675 234 669L113 -13Q111 -19 118 -19H185Q194 -19 192 -29L185 -74Q183 -84 174 -84H37Z"  />
<glyph unicode="\" horiz-adv-x="391" d="M235 -11Q226 -11 224 -1L132 681Q132 691 140 691H191Q200 691 202 681L293 -1Q295 -11 286 -11H235Z"  />
<glyph unicode="]" horiz-adv-x="272" d="M-7 -84Q-17 -84 -15 -74L-7 -29Q-5 -19 4 -19H72Q76 -19 78 -13L199 669Q200 675 195 675H128Q117 675 119 685L126 730Q128 740 138 740H275Q285 740 283 730L141 -74Q139 -84 130 -84H-7Z"  />
<glyph unicode="^" horiz-adv-x="517" d="M416 273Q406 273 402 283L269 581H267L134 283Q130 273 120 273H67Q56 273 61 283L234 670Q239 680 248 680H289Q298 680 303 670L476 283Q478 278 476 276T469 273H416Z"  />
<glyph unicode="_" horiz-adv-x="460" d="M400 -129H-56L-47 -77H409L400 -129Z"  />
<glyph unicode="`" horiz-adv-x="409" d="M306 557Q299 557 297 559T290 567L224 690Q222 694 224 697T231 700H289Q299 700 303 690L355 567Q358 557 347 557H306Z"  />
<glyph unicode="a" horiz-adv-x="498" d="M321 0Q311 0 313 10L320 53H319Q299 25 262 7T171 -11Q112 -11 76 21T39 110Q39 194 93 236T247 279H352Q357 279 359 285L366 324Q375 375 357 397T274 420Q232 420 204 409T156 383Q146 377 142 384L124 429Q121 437 127 442Q156 464 199 477T292 490Q387 490 423 453T443 328L387 10Q385 0 376 0H321ZM202 56Q256 56 292 82T336 154L346 210Q347 216 341 216H249Q178 216 148 191T118 121Q118 91 138 74T202 56Z"  />
<glyph unicode="b" horiz-adv-x="516" d="M254 -11Q203 -11 174 9T132 59H131L122 10Q120 0 112 0H52Q41 0 43 10L160 670Q162 680 171 680H231Q241 680 239 670L196 423H197Q219 452 253 471T340 490Q408 490 444 448T480 333Q480 307 476 275T466 211T450 150T431 100Q402 42 358 16T254 -11ZM245 62Q323 62 360 138Q368 154 375 177T387 226T395 275T398 318Q398 364 378 391T308 418Q270 418 240 399T190 339Q184 327 178 305T166 256T158 204T154 160Q154 115 176 89T245 62Z"  />
<glyph unicode="c" horiz-adv-x="449" d="M207 -11Q130 -11 88 32T46 154Q46 175 48 201T56 256T70 313T91 366Q120 427 171 458T291 490Q344 490 379 468T433 404Q436 395 429 390L386 359Q377 354 372 362Q357 391 337 404T283 418Q247 418 216 398T165 339Q156 320 149 296T137 248T130 203T127 168Q127 117 149 90T219 62Q249 62 276 75T331 119Q338 127 344 121L380 84Q386 78 380 70Q349 32 305 11T207 -11Z"  />
<glyph unicode="d" horiz-adv-x="516" d="M329 0Q319 0 321 10L329 57H328Q306 28 272 9T185 -11Q117 -11 81 31T45 146Q45 172 49 204T59 268T75 329T94 379Q123 437 167 463T271 490Q322 490 351 470T393 421H394L437 670Q439 680 448 680H508Q519 680 517 670L401 10Q399 0 390 0H329ZM217 62Q255 62 285 81T335 140Q341 152 347 175T359 224T367 275T371 319Q371 364 349 391T280 418Q240 418 212 398T164 341Q156 325 150 302T138 254T130 205T127 162Q127 115 147 89T217 62Z"  />
<glyph unicode="e" horiz-adv-x="485" d="M212 -11Q130 -11 88 33T46 157Q46 180 48 207T56 262T69 316T88 364Q117 424 167 457T290 490Q324 490 353 480T404 449T438 398T450 327Q450 308 448 286T438 226Q436 216 426 216H133Q127 216 126 210Q124 198 124 189T123 169Q123 62 225 62Q264 62 297 78T355 119Q363 125 370 120L401 85Q408 78 400 70Q366 35 319 12T212 -11ZM361 279Q367 279 369 285Q371 296 372 306T373 325Q373 373 349 396T280 420Q241 420 210 401T160 344Q154 332 149 316T141 285Q139 279 145 279H361Z"  />
<glyph unicode="f" horiz-adv-x="305" d="M66 0Q56 0 58 10L129 409Q130 415 125 415H84Q75 415 77 425L84 469Q85 479 95 479H136Q141 479 143 485L150 529Q165 612 204 646T316 680H351Q361 680 359 670L350 617Q349 607 339 607H314Q293 607 279 604T255 593T240 570T230 532L221 485Q219 479 225 479H315Q326 479 324 469L316 425Q314 415 304 415H215Q210 415 209 409L137 10Q135 0 127 0H66Z"  />
<glyph unicode="g" horiz-adv-x="507" d="M167 -191Q116 -191 77 -171T17 -116Q10 -106 19 -101L61 -65Q70 -59 76 -67Q95 -90 118 -103T176 -117Q233 -117 268 -85T314 16L325 71H324Q302 40 269 23T187 5Q117 5 83 47T49 158Q49 179 52 207T60 264T74 323T93 374Q149 490 269 490Q318 490 346 471T385 421H386L395 469Q397 479 406 479H465Q475 479 473 469L394 20Q373 -94 318 -142T167 -191ZM218 78Q252 78 280 95T327 151Q334 166 341 188T353 234T361 280T364 320Q364 365 343 391T276 418Q238 418 212 399T166 343Q157 326 151 305T139 261T132 216T129 175Q129 129 149 104T218 78Z"  />
<glyph unicode="h" horiz-adv-x="522" d="M341 0Q331 0 333 10L383 291Q394 352 374 385T302 418Q256 418 220 385T173 297L122 10Q120 0 112 0H51Q41 0 43 10L160 670Q162 680 171 680H231Q241 680 239 670L195 424H196Q219 453 254 471T337 490Q413 490 446 442T466 310L412 10Q410 0 401 0H341Z"  />
<glyph unicode="i" horiz-adv-x="238" d="M153 591Q143 591 145 601L157 670Q159 680 168 680H234Q244 680 242 670L230 601Q229 591 218 591H153ZM52 0Q41 0 43 10L124 469Q126 479 135 479H196Q206 479 204 469L122 10Q120 0 112 0H52Z"  />
<glyph unicode="j" horiz-adv-x="238" d="M153 591Q143 591 145 601L157 670Q159 680 168 680H234Q244 680 242 670L230 601Q229 591 218 591H153ZM-65 -180Q-75 -180 -73 -170L-64 -117Q-63 -107 -52 -107H-39Q-4 -107 11 -93T34 -40L124 469Q126 479 135 479H196Q206 479 204 469L114 -39Q106 -81 95 -108T65 -151T19 -173T-46 -180H-65Z"  />
<glyph unicode="k" horiz-adv-x="492" d="M352 0Q343 0 339 10L245 243L144 137L122 10Q120 0 111 0H51Q41 0 43 10L160 670Q162 680 171 680H231Q241 680 239 670L165 253L380 470Q389 479 399 479H472Q477 479 478 476T476 469L304 298L423 10Q425 6 423 3T415 0H352Z"  />
<glyph unicode="l" horiz-adv-x="265" d="M150 -5Q90 -5 70 25T61 119L161 670Q163 680 172 680H232Q243 680 241 670L140 120Q135 91 143 80T176 69H194Q204 69 202 59L194 5Q192 -5 182 -5H150Z"  />
<glyph unicode="m" horiz-adv-x="811" d="M631 0Q621 0 623 10L673 291Q684 352 664 385T592 418Q546 418 509 385T462 297L412 10Q410 0 401 0H341Q330 0 332 10L382 291Q393 351 374 384T301 418Q278 418 257 409T219 385T190 347T173 297L121 10Q119 0 111 0H51Q41 0 43 10L124 469Q126 479 135 479H195Q205 479 203 469L195 424H196Q218 453 253 471T336 490Q385 490 415 470T458 413H459Q488 448 528 469T622 490Q702 490 735 442T755 310L701 10Q699 0 690 0H631Z"  />
<glyph unicode="n" horiz-adv-x="522" d="M341 0Q331 0 333 10L383 291Q394 352 374 385T302 418Q256 418 220 385T173 297L122 10Q120 0 112 0H51Q41 0 43 10L124 469Q126 479 135 479H196Q206 479 204 469L195 424H196Q219 453 254 471T337 490Q413 490 446 442T466 310L412 10Q410 0 401 0H341Z"  />
<glyph unicode="o" horiz-adv-x="494" d="M209 -11Q131 -11 89 32T46 154Q46 178 49 207T59 266T74 322T92 368Q124 432 175 461T295 490Q373 490 415 447T458 326Q458 302 454 273T444 214T429 157T411 111Q380 47 329 18T209 -11ZM220 62Q299 62 339 140Q346 154 352 176T364 223T372 272T376 313Q376 363 355 390T283 418Q204 418 165 339Q158 325 151 303T139 256T131 208T127 167Q127 116 148 89T220 62Z"  />
<glyph unicode="p" horiz-adv-x="516" d="M20 -180Q10 -180 12 -170L124 469Q126 479 135 479H196Q206 479 204 469L196 423H197Q219 452 253 471T340 490Q408 490 444 448T480 333Q480 307 476 275T466 211T450 150T431 100Q402 42 358 16T254 -11Q203 -11 174 9T132 59H131L91 -170Q89 -180 81 -180H20ZM245 62Q323 62 360 138Q368 154 375 177T387 226T395 275T398 318Q398 364 378 391T308 418Q270 418 240 399T190 339Q184 327 178 305T166 256T158 204T154 160Q154 115 176 89T245 62Z"  />
<glyph unicode="q" horiz-adv-x="516" d="M298 -180Q288 -180 290 -170L330 56H329Q307 27 272 8T186 -11Q118 -11 82 31T46 146Q46 172 50 204T60 268T76 329T95 379Q124 437 168 463T272 490Q323 490 352 470T393 421H394L403 469Q405 479 413 479H474Q485 479 483 469L369 -170Q367 -180 358 -180H298ZM217 62Q255 62 285 81T335 140Q341 152 347 175T359 224T367 275T371 319Q371 364 350 391T281 418Q242 418 213 398T165 341Q157 325 150 302T138 254T130 205T127 162Q127 115 147 89T217 62Z"  />
<glyph unicode="r" horiz-adv-x="394" d="M52 0Q41 0 43 10L124 469Q126 479 135 479H196Q206 479 204 469L194 418H195Q215 450 249 470T327 490Q356 490 379 481T416 454Q421 447 416 440L375 396Q369 389 361 394Q347 405 331 411T294 418Q268 418 247 407T211 377T185 331T169 273L122 10Q120 0 112 0H52Z"  />
<glyph unicode="s" horiz-adv-x="470" d="M202 -11Q136 -11 90 12T21 60Q16 67 23 74L66 115Q73 121 79 115Q102 92 136 77T212 61Q269 61 301 88T334 152Q334 177 318 190T259 207L211 212Q148 219 119 248T89 325Q89 364 103 394T144 446T207 479T285 490Q332 490 374 474T440 437Q447 432 441 424L403 385Q397 377 389 383Q369 397 339 408T273 420Q225 420 197 396T168 338Q168 315 184 302T245 284L292 279Q355 273 384 244T413 169Q413 87 357 38T202 -11Z"  />
<glyph unicode="t" horiz-adv-x="302" d="M174 -5Q107 -5 84 27T74 130L126 409Q127 415 121 415H81Q71 415 73 425L81 469Q82 479 92 479H133Q138 479 140 485L164 620Q166 630 175 630H235Q245 630 243 620L219 485Q217 479 223 479H298Q308 479 306 469L298 425Q296 415 287 415H212Q207 415 206 409L154 134Q147 95 157 82T202 69H222Q232 69 230 59L221 5Q219 -5 210 -5H174Z"  />
<glyph unicode="u" horiz-adv-x="518" d="M189 479Q199 479 197 469L147 189Q136 128 155 96T227 63Q272 63 308 95T354 183L404 469Q406 479 415 479H476Q486 479 484 469L403 10Q401 0 392 0H331Q321 0 323 10L331 55H330Q306 26 272 8T192 -11Q117 -11 84 38T65 170L119 469Q121 479 129 479H189Z"  />
<glyph unicode="v" horiz-adv-x="460" d="M164 0Q156 0 154 10L70 469Q70 479 79 479H140Q150 479 151 469L209 118H211L393 469Q397 479 406 479H471Q483 479 478 469L231 10Q226 0 219 0H164Z"  />
<glyph unicode="w" horiz-adv-x="715" d="M437 0Q429 0 427 10L386 362H384L214 10Q209 0 201 0H148Q140 0 138 10L75 469Q73 479 83 479H141Q152 479 153 469L193 115H194L362 469Q366 479 375 479H425Q435 479 436 469L480 115H481L645 469Q649 479 658 479H723Q733 479 728 469L503 10Q499 0 490 0H437Z"  />
<glyph unicode="x" horiz-adv-x="460" d="M323 0Q314 0 310 9L229 183H228L84 9Q78 0 69 0H-2Q-7 0 -8 3T-7 10L193 251L89 469Q85 479 97 479H162Q167 479 170 478T175 471L246 318H247L373 471Q378 476 381 477T389 479H458Q463 479 464 476T462 469L281 250L394 10Q398 0 386 0H323Z"  />
<glyph unicode="y" horiz-adv-x="460" d="M13 -180Q2 -180 5 -170L14 -117Q15 -107 26 -107H43Q72 -107 92 -91T135 -31L158 14L70 469Q68 479 78 479H141Q151 479 152 469L211 119H213L395 469Q399 479 408 479H472Q484 479 479 469L206 -39Q183 -81 164 -108T125 -151T84 -173T38 -180H13Z"  />
<glyph unicode="z" horiz-adv-x="457" d="M25 0Q15 0 17 10L25 59Q26 63 31 70L341 407V408H109Q99 408 101 418L110 469Q112 479 121 479H442Q452 479 450 469L441 418Q440 414 439 412T435 406L127 74V72H370Q380 72 378 62L369 10Q367 0 358 0H25Z"  />
<glyph unicode="{" horiz-adv-x="313" d="M172 -84Q71 -84 91 27L123 213Q131 256 120 274T79 294Q69 294 71 304L80 357Q82 367 91 367Q121 367 138 385T164 448L197 630Q216 740 317 740H359Q369 740 367 730L360 686Q359 676 349 676H324Q301 676 288 664T269 625L238 449Q228 392 211 367T159 330V329Q188 317 196 291T196 211L164 31Q159 3 167 -8T199 -20H225Q235 -20 233 -30L225 -74Q223 -84 215 -84H172Z"  />
<glyph unicode="|" horiz-adv-x="280" d="M130 -84Q120 -84 120 -74V730Q120 740 130 740H177Q187 740 187 730V-74Q187 -84 177 -84H130Z"  />
<glyph unicode="}" horiz-adv-x="313" d="M-6 -84Q-16 -84 -14 -74L-7 -30Q-6 -20 4 -20H30Q53 -20 66 -8T84 31L116 212Q126 269 144 294T195 330V332Q166 344 158 370T158 449L189 625Q194 653 186 664T154 676H128Q118 676 120 686L128 730Q130 740 139 740H181Q281 740 263 629L231 448Q223 405 234 387T275 367Q284 365 283 357L275 304Q273 294 263 294Q234 293 216 276T190 213L156 26Q137 -84 37 -84H-6Z"  />
<glyph unicode="~" horiz-adv-x="517" d="M344 210Q312 210 288 221T243 247Q226 258 209 266T172 275Q146 275 129 262T95 222Q90 214 82 219L48 240Q40 245 45 254Q65 296 98 319T173 342Q205 342 229 331T274 305Q291 293 308 285T345 277Q371 277 387 290T421 330Q426 338 435 332L468 311Q477 307 471 297Q452 256 419 233T344 210Z"  />
<glyph unicode="&#xA0;" horiz-adv-x="232" />
<glyph unicode="&#xA4;" horiz-adv-x="517" d="M423 102Q415 95 410 102L362 161Q337 145 308 137T247 128Q215 128 189 137T143 163L74 101Q66 95 60 101L31 138Q26 145 34 152L104 214Q90 247 90 285Q90 329 104 368T144 438L97 498Q92 505 99 512L137 546Q146 553 151 546L197 486Q222 502 251 510T312 519Q343 519 368 510T414 485L484 548Q492 554 498 548L528 510Q530 508 530 504T525 497L454 433Q461 417 465 400T469 362Q469 318 455 279T415 208L463 149Q469 141 461 135L423 102ZM254 192Q286 192 313 205T360 241T391 292T403 353Q403 398 377 426T305 455Q273 455 246 442T199 406T168 355T156 294Q156 249 182 221T254 192Z"  />
<glyph unicode="&#xA6;" horiz-adv-x="280" d="M130 388Q120 388 120 398V730Q120 740 130 740H177Q187 740 187 730V398Q187 388 177 388H130ZM130 -84Q120 -84 120 -74V262Q120 272 130 272H177Q187 272 187 262V-74Q187 -84 177 -84H130Z"  />
<glyph unicode="&#xA7;" horiz-adv-x="527" d="M191 -191Q114 -191 81 -152T54 -50Q54 -41 62 -39L118 -28Q126 -27 126 -35Q123 -77 138 -101T201 -125Q246 -125 276 -96T306 -18Q306 17 283 37T201 72Q143 86 117 120T90 208Q90 242 98 274T123 333T164 380T220 413V414Q192 430 178 455T164 508Q164 547 177 580T216 638T275 677T351 691Q388 691 414 680T457 651T480 608T483 556Q482 546 473 545L418 534Q410 532 410 541Q414 577 398 601T340 625Q294 625 267 595T240 520Q240 488 263 468T341 433Q451 405 451 297Q451 264 443 233T419 174T378 126T323 92V91Q353 77 367 52T382 -5Q382 -46 368 -80T328 -139T267 -177T191 -191ZM250 138Q278 138 301 149T341 180T367 226T376 282Q376 323 353 345T291 367Q262 367 239 356T200 325T174 279T165 222Q165 181 188 160T250 138Z"  />
<glyph unicode="&#xA8;" horiz-adv-x="407" d="M338 591Q328 591 330 601L343 670Q345 680 354 680H409Q419 680 417 670L405 601Q403 591 394 591H338ZM148 591Q138 591 140 601L153 670Q155 680 164 680H219Q229 680 227 670L215 601Q213 591 204 591H148Z"  />
<glyph unicode="&#xA9;" horiz-adv-x="829" d="M434 -11Q360 -11 296 16T185 90T111 201T84 340Q84 414 111 478T185 589T296 664T434 691Q509 691 573 664T684 590T758 478T785 340Q785 266 758 202T684 90T573 16T434 -11ZM434 47Q497 47 550 69T642 130T703 223T725 340Q725 403 703 456T642 549T550 611T434 633Q372 633 319 611T227 550T166 457T143 340Q143 277 165 224T227 131T319 69T434 47ZM443 143Q387 143 348 169T292 248Q287 263 284 283T281 340Q281 376 284 396T292 432Q309 484 348 510T443 537Q488 537 520 519T573 473Q579 465 571 459L542 433Q534 427 528 435Q512 455 493 467T444 479Q373 479 352 415Q348 403 347 388T345 340Q345 308 346 293T352 265Q373 201 444 201Q474 201 493 213T528 245Q534 253 542 247L571 221Q579 215 573 207Q553 179 521 161T443 143Z"  />
<glyph unicode="&#xAB;" horiz-adv-x="506" d="M255 257Q249 265 257 271L470 460Q473 463 476 462T479 456L467 384Q465 378 463 374T456 364L340 265Q336 261 338 257L417 155Q425 146 422 136L412 72Q411 67 408 66T401 68L255 257ZM49 257Q42 264 51 271L263 460Q266 463 269 462T272 456L261 384Q259 378 257 374T249 364L134 265Q129 261 132 257L211 155Q219 146 216 136L206 72Q205 67 202 66T195 68L49 257Z"  />
<glyph unicode="&#xAC;" horiz-adv-x="517" d="M403 106Q393 106 393 116V234Q393 240 387 240H60Q50 240 50 250V302Q50 312 60 312H457Q467 312 467 302V116Q467 106 457 106H403Z"  />
<glyph unicode="&#xAD;" horiz-adv-x="365" d="M58 227Q48 227 50 237L60 294Q61 303 71 303H325Q335 303 333 293L323 236Q321 227 312 227H58Z"  />
<glyph unicode="&#xAE;" horiz-adv-x="454" d="M275 301Q234 301 200 315T140 356T100 417T85 493Q85 533 99 568T139 629T199 669T275 684Q315 684 350 670T411 629T451 568T466 493Q466 452 452 417T411 356T350 316T275 301ZM275 333Q309 333 338 345T388 378T421 429T433 493Q433 527 421 556T388 606T338 640T275 652Q241 652 212 640T162 607T129 556T117 493Q117 458 129 429T162 379T212 345T275 333ZM208 388Q201 388 201 395V593Q201 600 208 600H289Q323 600 341 584T360 537Q360 491 318 479L361 395Q364 388 357 388H332Q326 388 323 395L282 474H241Q237 474 237 469V395Q237 388 230 388H208ZM288 507Q325 507 325 537Q325 568 288 568H241Q237 568 237 564V511Q237 507 241 507H288Z"  />
<glyph unicode="&#xB0;" horiz-adv-x="457" d="M279 399Q248 399 222 410T176 440T146 486T135 543Q135 574 146 601T176 647T221 678T279 689Q310 689 337 678T383 648T414 601T425 543Q425 512 414 486T384 441T337 410T279 399ZM279 449Q320 449 346 476T372 543Q372 585 347 611T279 638Q239 638 213 612T187 543Q187 503 213 476T279 449Z"  />
<glyph unicode="&#xB1;" horiz-adv-x="517" d="M232 131Q222 131 222 141V298Q222 304 216 304H60Q50 304 50 314V367Q50 377 60 377H216Q222 377 222 383V540Q222 550 232 550H285Q295 550 295 540V383Q295 377 301 377H457Q467 377 467 367V314Q467 304 457 304H301Q295 304 295 298V141Q295 131 285 131H232ZM60 0Q50 0 50 10V63Q50 73 60 73H457Q467 73 467 63V10Q467 0 457 0H60Z"  />
<glyph unicode="&#xB4;" horiz-adv-x="407" d="M193 557Q188 557 187 559T188 567L280 690Q287 700 299 700H361Q366 700 367 697T364 689L255 567Q246 557 235 557H193Z"  />
<glyph unicode="&#xB5;" horiz-adv-x="525" d="M19 -180Q9 -180 11 -171L125 470Q127 479 136 479H196Q205 479 203 470L159 223Q155 203 153 190T150 169T149 155T149 146Q149 63 234 63Q253 63 273 70T311 92T342 129T362 184L412 470Q414 479 423 479H485Q493 479 492 470L433 135Q427 103 427 90Q427 76 435 73T457 69Q467 69 465 59L456 6Q455 -5 444 -5H436Q393 -5 376 8T354 47Q354 51 354 56T353 67H352Q329 31 293 11T211 -10Q182 -10 160 -1T127 31L126 30L91 -171Q89 -180 81 -180H19H19Z"  />
<glyph unicode="&#xB6;" horiz-adv-x="576" d="M363 -180Q353 -180 355 -170L492 605Q493 611 487 611H405Q400 611 399 605L262 -170Q260 -180 251 -180H201Q191 -180 193 -170L269 263Q228 266 197 281T146 323T118 383T115 457Q120 503 140 544T193 615T270 662T368 680H565Q575 680 573 670L425 -170Q423 -180 414 -180H363Z"  />
<glyph unicode="&#xB7;" horiz-adv-x="226" d="M80 214Q69 214 71 224L85 306Q87 316 96 316H166Q177 316 175 306L161 224Q159 214 150 214H80Z"  />
<glyph unicode="&#xBB;" horiz-adv-x="506" d="M260 68Q257 65 254 66T251 72L262 144Q264 150 266 154T274 163L389 263Q393 267 391 271L312 372Q304 381 307 392L317 456Q318 461 321 462T328 460L474 271Q479 263 472 257L260 68ZM53 68Q50 65 47 66T44 72L56 144Q57 150 59 154T67 163L182 263Q187 267 184 271L106 372Q99 381 100 392L111 456Q112 461 115 462T121 460L268 271Q273 263 266 257L53 68Z"  />
<glyph unicode="&#x131;" horiz-adv-x="238" d="M52 0Q41 0 43 10L124 469Q126 479 135 479H196Q206 479 204 469L122 10Q120 0 112 0H52Z"  />
<glyph unicode="&#x3BC;" horiz-adv-x="525" d="M19 -180Q9 -180 11 -171L125 470Q127 479 136 479H196Q205 479 203 470L159 223Q155 203 153 190T150 169T149 155T149 146Q149 63 234 63Q253 63 273 70T311 92T342 129T362 184L412 470Q414 479 423 479H485Q493 479 492 470L433 135Q427 103 427 90Q427 76 435 73T457 69Q467 69 465 59L456 6Q455 -5 444 -5H436Q393 -5 376 8T354 47Q354 51 354 56T353 67H352Q329 31 293 11T211 -10Q182 -10 160 -1T127 31L126 30L91 -171Q89 -180 81 -180H19H19Z"  />
<glyph unicode="&#x401;" horiz-adv-x="540" d="M54 0Q43 0 45 10L162 670Q164 680 173 680H563Q574 680 572 670L562 612Q560 602 550 602H239Q233 602 232 596L196 389Q194 383 201 383H465Q475 383 473 373L463 315Q461 305 451 305H187Q181 305 180 299L141 84Q139 78 146 78H457Q467 78 465 68L455 10Q453 0 444 0H54H54ZM457 778Q447 778 449 788L462 858Q464 868 473 868H528Q538 868 536 858L524 788Q522 778 513 778H457ZM267 778Q257 778 259 788L272 858Q274 868 283 868H338Q348 868 346 858L334 788Q332 778 323 778H267Z"  />
<glyph unicode="&#x402;" horiz-adv-x="718" d="M188 0Q177 0 179 10L283 596Q284 602 278 602H99Q89 602 91 612L101 670Q103 680 112 680H565Q576 680 574 670L564 612Q562 602 552 602H373Q366 602 366 597L330 393Q329 386 335 388Q367 398 409 408T498 418Q583 418 631 370T679 234Q679 188 663 146T614 72T535 20T426 0H393Q389 0 386 2T384 10L394 68Q395 73 398 75T406 78H434Q470 78 500 90T551 124T583 174T595 232Q595 284 564 312T476 340Q436 340 395 330T323 309Q314 306 313 297L262 10Q260 0 252 0H188H188Z"  />
<glyph unicode="&#x403;" horiz-adv-x="480" d="M54 0Q43 0 45 10L162 670Q164 680 173 680H540Q550 680 549 670L538 611Q536 602 527 602H240Q234 602 233 596L129 10Q127 0 118 0H54H54ZM314 763Q309 763 308 766T310 773L407 878Q417 888 427 888H493Q498 888 499 885T496 878L378 771Q372 766 368 765T359 763H314Z"  />
<glyph unicode="&#x404;" horiz-adv-x="550" d="M254 -11Q156 -11 108 43T60 192Q60 224 66 272T83 369T105 464T130 537Q168 620 230 655T373 691Q448 691 493 659T561 561Q564 552 555 547L500 522Q491 518 488 526Q472 565 445 589T363 614Q306 614 269 588T208 515Q183 467 170 389Q168 383 176 383H393Q396 383 398 381T400 373L390 314Q389 309 386 307T379 305H162Q155 305 154 299Q149 271 146 247T143 204Q143 166 152 140T178 97T218 73T268 66Q321 66 357 89T422 155Q428 164 437 159L487 131Q493 126 488 118Q448 54 394 22T254 -11Z"  />
<glyph unicode="&#x405;" horiz-adv-x="569" d="M243 -11Q210 -11 178 -4T117 14T65 41T26 74Q21 81 27 88L74 135Q82 143 88 136Q117 109 160 89T260 68Q297 68 328 79T381 109T416 154T428 212Q428 231 423 245T404 271T369 289T313 302L282 307Q201 320 159 360T117 469Q117 519 135 560T185 630T263 675T361 691Q418 691 468 673T551 626Q558 620 551 612L514 566Q508 558 500 564Q465 588 429 600T350 613Q318 613 291 603T245 574T215 532T204 479Q204 441 229 419T321 386L352 381Q435 367 475 330T515 226Q515 171 496 127T440 53T354 6T243 -11Z"  />
<glyph unicode="&#x406;" horiz-adv-x="245" d="M54 0Q43 0 45 10L162 670Q164 680 173 680H237Q247 680 245 670L128 10Q126 0 118 0H54H54Z"  />
<glyph unicode="&#x407;" horiz-adv-x="245" d="M54 0Q43 0 45 10L162 670Q164 680 173 680H237Q247 680 245 670L128 10Q126 0 118 0H54H54ZM293 778Q283 778 285 788L298 858Q300 868 309 868H364Q374 868 372 858L360 788Q358 778 349 778H293ZM103 778Q93 778 95 788L108 858Q110 868 119 868H174Q184 868 182 858L170 788Q168 778 159 778H103Z"  />
<glyph unicode="&#x408;" horiz-adv-x="473" d="M159 -11Q135 -11 112 -5T69 11T33 34T8 62Q6 65 6 69T11 76L61 111Q69 117 76 109Q92 92 115 80T166 68Q223 68 260 102T312 215L392 670Q394 680 403 680H467Q477 680 475 670L394 215Q383 152 363 109T313 39T245 1T159 -11Z"  />
<glyph unicode="&#x409;" horiz-adv-x="979" d="M-26 -3Q-29 -3 -32 0T-34 8L-23 66Q-22 71 -19 73T-13 75H-2Q28 75 55 85T108 129T155 224T195 392L244 671Q246 680 255 680H635Q646 680 644 671L598 412Q596 406 603 406H754Q799 406 834 393T892 357T928 302T940 233Q940 177 922 134T871 61T793 16T695 0H452Q442 0 444 10L548 596Q549 602 543 602H320Q314 602 313 596L274 372Q254 258 229 185T171 71T100 13T14 -3H-26ZM701 78Q735 78 763 88T812 119T844 167T856 232Q856 277 827 302T744 328H590Q584 328 583 322L540 84Q538 78 545 78H701Z"  />
<glyph unicode="&#x40A;" horiz-adv-x="955" d="M54 0Q43 0 45 10L162 670Q164 680 173 680H237Q247 680 245 670L197 400Q195 394 202 394H489Q494 394 496 400L544 670Q546 680 554 680H618Q629 680 627 670L579 400Q577 394 584 394H733Q778 394 812 382T869 347T904 295T916 229Q916 174 898 132T848 60T772 15T676 0H435Q425 0 427 10L479 310Q480 316 474 316H189Q183 316 182 310L129 10Q127 0 118 0H54ZM680 78Q747 78 790 117T833 226Q833 269 806 292T724 316H571Q565 316 564 310L523 84Q521 78 528 78H680Z"  />
<glyph unicode="&#x40B;" horiz-adv-x="727" d="M188 0Q177 0 179 10L283 596Q284 602 278 602H99Q89 602 91 612L101 670Q103 680 112 680H565Q576 680 574 670L564 612Q562 602 552 602H373Q366 602 366 597L331 397Q329 391 332 390T341 390Q374 398 417 408T505 418Q598 418 639 372T664 235L623 9Q621 0 612 0H549Q538 0 540 9L579 234Q585 265 579 285T558 318T522 335T474 340Q439 340 401 332T331 313Q316 309 313 295L262 10Q260 0 252 0H188H188Z"  />
<glyph unicode="&#x40C;" horiz-adv-x="593" d="M54 0Q43 0 45 10L162 670Q164 680 173 680H237Q247 680 245 670L195 389Q193 383 200 383H267Q286 383 302 390T332 408T357 433T376 461L460 604Q475 629 489 645T519 669T553 680T596 683H624Q628 683 631 681T633 673L623 615Q621 606 611 606H601Q586 606 575 604T555 597T538 581T521 555L456 443Q433 405 412 383T362 353V349Q392 343 406 318T428 262L463 136Q472 103 483 89T526 75H541Q552 75 550 65L540 7Q539 -3 529 -3H499Q448 -3 423 21T385 95L346 243Q336 280 312 292T254 305H187Q181 305 180 299L129 10Q127 0 118 0H54H54ZM344 763Q339 763 338 766T340 773L437 878Q447 888 457 888H523Q528 888 529 885T526 878L408 771Q402 766 398 765T389 763H344Z"  />
<glyph unicode="&#x40E;" horiz-adv-x="537" d="M54 -3Q44 -3 45 7L55 66Q56 75 66 75H102Q136 75 156 91T196 140L231 197L94 669Q91 680 101 680H168Q174 680 176 678T180 671L286 293H289L507 671Q509 675 511 677T521 680H593Q603 680 597 669L262 108Q248 84 233 64T198 29T157 6T107 -3H54H54ZM356 754Q302 754 273 781T239 861Q239 873 246 874L283 879Q292 880 293 873Q298 847 313 830T363 812Q396 812 417 831T452 874Q455 881 464 879L500 873Q507 871 502 860Q463 754 356 754Z"  />
<glyph unicode="&#x40F;" horiz-adv-x="620" d="M216 -154Q206 -154 208 -145L232 -6Q233 0 228 0H54Q43 0 45 9L162 670Q164 680 173 680H237Q248 680 246 670L141 84Q139 78 146 78H425Q430 78 432 84L537 670Q539 680 547 680H612Q622 680 620 670L503 9Q501 0 492 0H319Q312 0 311 -6L287 -145Q285 -154 275 -154H216H216Z"  />
<glyph unicode="&#x410;" horiz-adv-x="586" d="M-6 0Q-16 0 -11 10L333 670Q338 680 347 680H407Q416 680 418 670L525 10Q527 0 517 0H455Q445 0 444 10L420 162H155L77 10Q73 0 64 0H-6ZM409 238L360 554H357L194 238H409Z"  />
<glyph unicode="&#x411;" horiz-adv-x="585" d="M54 0Q43 0 45 10L162 671Q164 680 173 680H555Q566 680 564 671L553 611Q551 602 542 602H240Q234 602 233 596L197 400Q195 394 202 394H351Q433 394 483 351T534 229Q534 174 516 132T466 60T390 15T294 0H54ZM297 78Q365 78 408 117T451 226Q451 269 424 292T342 316H189Q183 316 182 310L141 84Q139 78 146 78H297Z"  />
<glyph unicode="&#x412;" horiz-adv-x="583" d="M54 0Q43 0 45 10L162 670Q164 680 173 680H400Q485 680 527 642T570 534Q570 401 453 352V348Q466 343 479 334T503 310T521 275T528 228Q528 122 465 61T281 0H54ZM299 76Q366 76 405 115T445 216Q445 258 419 282T340 307H187Q181 307 180 301L141 82Q139 76 145 76H299ZM348 384Q379 384 405 394T449 422T477 464T487 517Q487 558 462 581T388 604H239Q233 604 232 598L196 390Q194 384 200 384H348Z"  />
<glyph unicode="&#x413;" horiz-adv-x="480" d="M54 0Q43 0 45 10L162 670Q164 680 173 680H540Q550 680 549 670L538 611Q536 602 527 602H240Q234 602 233 596L129 10Q127 0 118 0H54H54Z"  />
<glyph unicode="&#x414;" horiz-adv-x="653" d="M-50 -154Q-58 -154 -56 -145L-20 68Q-18 78 -9 78H33Q43 78 48 85Q75 125 99 167T145 268T187 412T227 621L235 671Q237 680 246 680H629Q639 680 637 670L533 84Q531 78 538 78H601Q611 78 609 68L572 -145Q570 -154 561 -154H499Q491 -154 493 -145L517 -6Q518 0 513 0H54Q47 0 46 -6L22 -145Q20 -154 11 -154H-50ZM443 78Q448 78 450 84L541 596Q542 602 536 602H312Q306 602 305 596L303 587Q283 477 264 398T226 260T185 160T139 84Q135 78 142 78H443Z"  />
<glyph unicode="&#x415;" horiz-adv-x="540" d="M54 0Q43 0 45 10L162 670Q164 680 173 680H563Q574 680 572 670L562 612Q560 602 550 602H239Q233 602 232 596L196 389Q194 383 201 383H465Q475 383 473 373L463 315Q461 305 451 305H187Q181 305 180 299L141 84Q139 78 146 78H457Q467 78 465 68L455 10Q453 0 444 0H54H54Z"  />
<glyph unicode="&#x416;" horiz-adv-x="897" d="M-12 -3Q-23 -3 -21 7L-10 66Q-9 75 1 75H15Q32 75 44 77T65 87T83 105T101 133L177 269Q195 301 220 324T278 353V357Q255 371 243 394T222 446L194 549Q186 578 173 592T126 606H116Q106 606 108 615L118 673Q119 683 129 683H151Q196 683 224 661T266 587L299 462Q302 448 308 434T325 409T349 390T382 383H430Q435 383 437 389L487 670Q489 680 498 680H561Q572 680 570 670L520 389Q518 383 525 383H571Q591 383 607 390T637 408T661 433T680 461L763 601Q778 626 791 642T819 667T854 679T900 683H928Q932 683 935 681T937 673L927 615Q925 606 915 606H905Q889 606 878 604T859 597T842 581T825 555L760 443Q739 406 717 384T666 353V349Q696 344 710 319T732 262L767 136Q776 103 787 89T830 75H845Q856 75 854 65L843 7Q842 -3 832 -3H797Q747 -3 724 25T687 103L650 243Q640 280 618 292T558 305H512Q506 305 505 299L453 10Q451 0 442 0H379Q368 0 370 10L421 299Q422 305 416 305H365Q331 305 306 293T259 243L170 89Q155 64 142 47T112 18T74 2T23 -3H-12H-12Z"  />
<glyph unicode="&#x417;" horiz-adv-x="534" d="M219 -11Q148 -11 91 14T4 77Q0 83 8 91L51 135Q59 143 63 135Q92 106 131 87T220 67Q256 67 287 77T341 106T377 152T391 214Q391 261 360 284T271 307H201Q198 307 195 310T193 318L202 375Q203 380 207 382T214 384H284Q314 384 341 394T390 422T423 467T436 525Q436 568 404 591T316 614Q268 614 230 597T153 550Q142 543 137 551L108 594Q103 603 110 608Q161 647 212 669T324 691Q422 691 470 650T519 530Q519 473 488 424T397 353V349Q435 336 455 300T475 217Q475 165 457 123T406 51T325 5T219 -11Z"  />
<glyph unicode="&#x418;" horiz-adv-x="642" d="M54 0Q43 0 45 10L162 671Q164 680 173 680H238Q248 680 246 671L154 161H157L558 674Q563 680 570 680H633Q644 680 642 671L525 10Q523 0 514 0H450Q439 0 441 10L533 520H530L129 8Q122 0 115 0H54H54Z"  />
<glyph unicode="&#x419;" horiz-adv-x="642" d="M412 754Q358 754 329 781T295 861Q295 873 302 874L339 879Q348 880 349 873Q354 847 369 830T419 812Q452 812 473 831T508 874Q511 881 520 879L556 873Q563 871 558 860Q519 754 412 754ZM54 0Q43 0 45 10L162 671Q164 680 173 680H238Q248 680 246 671L154 161H157L558 674Q563 680 570 680H633Q644 680 642 671L525 10Q523 0 514 0H450Q439 0 441 10L533 520H530L129 8Q122 0 115 0H54H54Z"  />
<glyph unicode="&#x41A;" horiz-adv-x="593" d="M54 0Q43 0 45 10L162 670Q164 680 173 680H237Q247 680 245 670L195 389Q193 383 200 383H267Q286 383 302 390T332 408T357 433T376 461L460 604Q475 629 489 645T519 669T553 680T596 683H624Q628 683 631 681T633 673L623 615Q621 606 611 606H601Q586 606 575 604T555 597T538 581T521 555L456 443Q433 405 412 383T362 353V349Q392 343 406 318T428 262L463 136Q472 103 483 89T526 75H541Q552 75 550 65L540 7Q539 -3 529 -3H499Q448 -3 423 21T385 95L346 243Q336 280 312 292T254 305H187Q181 305 180 299L129 10Q127 0 118 0H54H54Z"  />
<glyph unicode="&#x41B;" horiz-adv-x="644" d="M-26 -3Q-29 -3 -32 0T-34 8L-23 66Q-22 71 -19 73T-13 75H-2Q28 75 55 85T108 129T155 224T195 392L244 671Q246 680 255 680H635Q646 680 644 671L527 10Q525 0 517 0H452Q442 0 444 10L548 596Q549 602 543 602H320Q314 602 313 596L274 372Q254 258 229 185T171 71T100 13T14 -3H-26H-26Z"  />
<glyph unicode="&#x41C;" horiz-adv-x="726" d="M54 0Q43 0 45 10L162 670Q164 680 173 680H228Q238 680 241 670L358 212H361L638 670Q644 680 653 680H717Q728 680 726 670L609 10Q607 0 598 0H540Q530 0 532 10L618 490H615L380 109Q372 97 361 97H325Q312 97 309 110L211 491H208L122 10Q120 0 111 0H54H54Z"  />
<glyph unicode="&#x41D;" horiz-adv-x="627" d="M54 0Q43 0 45 10L162 670Q164 680 173 680H237Q247 680 245 670L195 389Q193 383 200 383H487Q492 383 494 389L544 670Q546 680 554 680H618Q629 680 627 670L510 10Q508 0 499 0H435Q425 0 427 10L478 299Q479 305 473 305H187Q181 305 180 299L128 10Q126 0 118 0H54H54Z"  />
<glyph unicode="&#x41E;" horiz-adv-x="593" d="M257 -11Q167 -11 114 40T60 188Q60 213 66 260T82 360T104 462T131 539Q170 618 230 654T379 691Q469 691 522 640T576 492Q576 467 570 420T554 320T531 218T504 141Q466 62 406 26T257 -11ZM270 67Q325 67 364 94T428 171Q440 195 451 239T471 330T485 419T491 484Q491 545 459 579T366 613Q311 613 272 586T208 509Q196 485 185 441T165 350T151 261T145 196Q145 135 177 101T270 67Z"  />
<glyph unicode="&#x41F;" horiz-adv-x="620" d="M54 0Q43 0 45 10L162 671Q164 680 173 680H611Q622 680 620 671L503 10Q501 0 493 0H428Q418 0 420 10L524 596Q525 602 519 602H240Q234 602 233 596L129 10Q127 0 118 0H54H54Z"  />
<glyph unicode="&#x420;" horiz-adv-x="568" d="M54 0Q44 0 46 10L162 670Q164 680 173 680H404Q489 680 534 638T580 521Q580 461 562 416T511 340T433 293T334 277H183Q177 277 176 271L129 10Q127 0 118 0H54ZM341 355Q410 355 453 395T497 508Q497 553 469 577T387 602H240Q234 602 233 596L191 361Q189 355 196 355H341Z"  />
<glyph unicode="&#x421;" horiz-adv-x="544" d="M255 -11Q166 -11 113 40T60 188Q60 213 66 260T82 359T104 461T131 537Q170 618 228 654T370 691Q439 691 487 655T553 551Q556 544 547 540L492 514Q482 509 480 519Q466 561 438 587T360 613Q306 613 269 587T207 509Q195 485 184 441T165 350T151 261T145 196Q145 136 176 102T268 67Q316 67 353 93T417 160Q422 168 430 165L482 137Q489 134 484 125Q440 53 384 21T255 -11Z"  />
<glyph unicode="&#x422;" horiz-adv-x="514" d="M188 0Q178 0 180 10L284 596Q285 602 279 602H99Q89 602 91 612L101 670Q103 680 112 680H566Q577 680 575 670L565 612Q563 602 553 602H373Q368 602 367 596L263 10Q261 0 252 0H188H188Z"  />
<glyph unicode="&#x423;" horiz-adv-x="537" d="M54 -3Q44 -3 45 7L55 66Q56 75 66 75H102Q136 75 156 91T196 140L231 197L94 669Q91 680 101 680H168Q174 680 176 678T180 671L286 293H289L507 671Q509 675 511 677T521 680H593Q603 680 597 669L262 108Q248 84 233 64T198 29T157 6T107 -3H54H54Z"  />
<glyph unicode="&#x424;" horiz-adv-x="735" d="M296 -11Q286 -11 288 -1L301 73Q302 79 296 79Q178 87 119 150T60 314Q60 383 84 439T151 536T256 598T392 623Q397 623 399 629L409 683Q411 691 420 691H484Q495 691 493 683L483 629Q481 623 488 623Q545 620 589 602T664 554T711 482T727 392Q727 322 703 266T634 169T528 105T392 79Q386 79 385 73L372 -1Q370 -11 361 -11H296ZM310 156Q315 156 317 162L384 540Q385 545 379 545Q329 544 286 529T212 484T162 412T144 317Q144 248 185 205T310 156ZM406 156Q456 158 499 174T574 221T624 293T642 390Q642 459 601 500T476 545Q469 545 468 540L400 162Q398 156 406 156Z"  />
<glyph unicode="&#x425;" horiz-adv-x="539" d="M-6 0Q-11 0 -12 3T-10 12L248 355L124 668Q122 673 124 676T131 680H201Q209 680 214 671L305 437H306L482 671Q486 676 489 678T498 680H572Q577 680 578 677T576 668L341 355L477 12Q479 7 477 4T470 0H401Q391 0 388 9L286 273H284L85 9Q81 4 79 2T71 0H-6H-6Z"  />
<glyph unicode="&#x426;" horiz-adv-x="635" d="M483 -154Q474 -154 476 -145L500 -6Q501 0 496 0H54Q43 0 45 9L162 670Q164 680 173 680H237Q248 680 246 670L141 84Q139 78 146 78H425Q430 78 432 84L537 670Q539 680 547 680H611Q622 680 620 670L515 84Q513 78 520 78H583Q587 78 590 76T592 68L555 -145Q553 -154 544 -154H483H483Z"  />
<glyph unicode="&#x427;" horiz-adv-x="591" d="M398 0Q388 0 390 10L436 272Q437 279 428 277Q395 266 349 257T257 248Q218 248 186 258T133 292T104 351T105 439L147 671Q149 680 158 680H221Q232 680 230 671L189 439Q183 404 189 382T209 348T243 331T286 326Q328 326 367 333T441 353Q450 356 452 365L507 671Q509 680 517 680H581Q592 680 590 671L473 10Q471 0 463 0H398H398Z"  />
<glyph unicode="&#x428;" horiz-adv-x="909" d="M54 0Q43 0 45 9L162 670Q164 680 173 680H237Q248 680 246 670L141 84Q139 78 146 78H382Q387 78 389 84L494 670Q496 680 503 680H569Q579 680 577 670L473 84Q471 78 478 78H714Q719 78 721 84L825 670Q827 680 835 680H900Q911 680 909 670L792 9Q790 0 781 0H54H54Z"  />
<glyph unicode="&#x429;" horiz-adv-x="924" d="M771 -154Q761 -154 763 -145L787 -6Q788 0 783 0H54Q43 0 45 9L162 670Q164 680 173 680H237Q248 680 246 670L141 84Q139 78 146 78H382Q387 78 389 84L494 670Q496 680 503 680H569Q579 680 577 670L473 84Q471 78 478 78H714Q719 78 721 84L825 670Q827 680 835 680H900Q911 680 909 670L805 84Q803 78 810 78H871Q881 78 879 68L842 -145Q840 -154 831 -154H771H771Z"  />
<glyph unicode="&#x42A;" horiz-adv-x="683" d="M157 0Q146 0 148 10L252 596Q253 602 247 602H99Q89 602 91 611L101 671Q102 680 111 680H339Q350 680 348 670L303 412Q301 406 308 406H459Q504 406 538 393T596 357T632 301T644 232Q644 177 626 134T575 61T497 16T399 0H157ZM405 78Q439 78 467 88T516 119T548 167T560 232Q560 277 531 302T448 328H294Q288 328 287 322L244 84Q242 78 249 78H405Z"  />
<glyph unicode="&#x42B;" horiz-adv-x="784" d="M54 0Q43 0 45 10L162 670Q164 680 173 680H237Q248 680 246 670L200 412Q198 406 205 406H346Q391 406 425 393T483 357T519 301T531 232Q531 177 513 134T462 61T384 16T286 0H54ZM292 78Q326 78 354 88T403 119T435 167T447 232Q447 277 419 302T336 328H191Q185 328 184 322L141 84Q139 78 146 78H292ZM593 0Q582 0 584 10L701 670Q703 680 712 680H775Q786 680 784 670L667 10Q665 0 656 0H593Z"  />
<glyph unicode="&#x42C;" horiz-adv-x="580" d="M54 0Q43 0 45 10L162 670Q164 680 173 680H237Q248 680 246 670L200 412Q198 406 205 406H356Q401 406 435 393T493 357T529 301T541 232Q541 177 523 134T472 61T394 16T296 0H54ZM302 78Q336 78 364 88T413 119T445 167T457 232Q457 277 429 302T346 328H191Q185 328 184 322L141 84Q139 78 146 78H302Z"  />
<glyph unicode="&#x42D;" horiz-adv-x="550" d="M219 -11Q144 -11 94 24T26 122Q22 131 32 135L86 159Q96 163 99 155Q113 113 142 90T224 67Q270 67 308 85T374 149Q390 174 401 208T424 298Q425 305 418 305H206Q203 305 201 307T199 314L209 374Q210 379 213 381T220 383H432Q438 383 440 389Q443 412 445 435T448 479Q448 537 417 575T319 613Q264 613 231 589T169 524Q163 516 155 520L103 548Q95 553 102 561Q143 626 198 658T329 691Q422 691 477 638T533 479Q533 454 527 405T510 301T481 193T441 105Q400 43 347 16T219 -11Z"  />
<glyph unicode="&#x42E;" horiz-adv-x="814" d="M485 -11Q443 -11 408 1T348 37T309 95T295 173Q295 194 298 223T309 300Q310 306 304 306H187Q180 306 179 300L128 10Q126 0 118 0H54Q43 0 45 10L162 670Q164 680 173 680H237Q247 680 245 670L195 390Q193 384 200 384H317Q322 384 324 390Q336 450 346 486T368 544Q441 691 602 691Q645 691 681 679T742 642T782 583T797 501Q797 486 794 458T786 396T774 323T759 250T741 184T723 136Q650 -11 485 -11ZM497 67Q599 67 647 162Q655 178 663 205T678 264T691 330T703 396T710 453T713 492Q713 546 686 579T597 613Q545 613 507 589T445 517Q437 501 429 474T414 414T400 346T390 279T383 222T380 184Q380 133 410 100T497 67Z"  />
<glyph unicode="&#x42F;" horiz-adv-x="591" d="M-11 -3Q-22 -3 -20 7L-10 66Q-9 75 1 75H17Q34 75 46 78T68 89T86 107T104 133L169 235Q180 253 196 272T233 299V303Q207 309 184 320T143 350T116 396T106 461Q106 512 124 552T175 621T252 665T347 680H582Q593 680 591 671L474 10Q472 0 463 0H400Q389 0 391 10L438 275Q439 281 433 281H356Q326 281 303 269T256 222L170 87Q154 62 141 45T112 18T77 2T29 -3H-11ZM446 359Q451 359 453 365L495 596Q496 602 490 602H346Q313 602 285 593T235 566T202 522T190 461Q190 413 220 386T302 359H446Z"  />
<glyph unicode="&#x430;" horiz-adv-x="498" d="M171 -11Q112 -11 76 21T39 110Q39 194 93 236T247 279H352Q357 279 359 285L366 324Q375 375 357 397T274 420Q232 420 204 409T156 383Q145 376 142 384L124 429Q121 437 127 442Q156 464 199 477T292 490Q387 490 423 453T443 328L387 10Q385 0 376 0H321Q311 0 313 10L320 53H319Q299 25 262 7T171 -11ZM202 56Q256 56 292 82T336 154L346 210Q347 216 341 216H249Q178 216 148 191T118 121Q118 91 138 74T202 56Z"  />
<glyph unicode="&#x431;" horiz-adv-x="509" d="M231 -11Q152 -11 106 32T60 159Q60 198 67 240T84 331Q93 379 101 418T122 489T153 547T200 597Q222 614 247 624T298 640T351 649T404 654Q445 657 452 682Q454 690 463 690H522Q527 690 528 687T528 681Q524 652 515 634T490 604T455 587T408 579Q382 576 358 575T312 569T269 556T228 531Q196 505 184 472T162 395H165Q190 432 230 453T322 474Q395 474 433 428T471 301Q471 271 466 238T451 172T426 109T389 56Q362 25 324 7T231 -11ZM235 62Q308 62 346 127Q356 145 363 167T376 213T385 259T388 300Q388 330 382 350T363 382T334 398T296 403Q257 403 226 382T171 307Q164 292 159 273T149 235T143 199T140 168Q140 137 147 117T168 84T198 67T235 62Z"  />
<glyph unicode="&#x432;" horiz-adv-x="498" d="M52 0Q47 0 45 3T43 9L124 470Q126 479 136 479H340Q403 479 432 452T462 376Q462 333 442 299T380 251V247Q405 239 420 217T435 163Q435 89 390 45T261 0H52ZM263 69Q305 69 330 92T356 155Q356 181 340 196T289 212H164Q158 212 157 206L134 75Q132 69 139 69H263ZM299 279Q334 279 358 301T383 358Q383 411 319 411H199Q194 411 192 406L171 283Q169 279 176 279H299Z"  />
<glyph unicode="&#x433;" horiz-adv-x="390" d="M51 0Q47 0 45 3T43 9L124 470Q125 475 128 477T135 479H414Q424 479 423 470L414 416Q413 411 410 409T402 407H198Q192 407 191 401L122 9Q121 6 119 3T112 0H51H51Z"  />
<glyph unicode="&#x434;" horiz-adv-x="545" d="M-41 -124Q-49 -124 -47 -115L-17 64Q-15 73 -6 73H27Q41 73 49 85Q64 108 78 132T106 188T132 264T155 369L173 470Q175 479 184 479H491Q501 479 499 470L430 79Q428 73 435 73H487Q496 73 494 64L463 -115Q461 -124 452 -124H398Q388 -124 390 -115L408 -6Q409 0 404 0H53Q46 0 45 -6L26 -115Q24 -124 16 -124H-41ZM344 73Q349 73 351 79L408 401Q409 407 403 407H244Q238 407 237 401L225 334Q216 283 205 244T182 174T156 120T129 79Q127 77 128 75T131 73H344Z"  />
<glyph unicode="&#x435;" horiz-adv-x="485" d="M212 -11Q130 -11 88 33T46 157Q46 180 48 207T56 262T69 316T88 364Q117 424 167 457T290 490Q324 490 353 480T404 449T438 398T450 327Q450 308 448 286T438 226Q436 216 426 216H133Q127 216 126 210Q124 198 124 189T123 169Q123 62 225 62Q264 62 297 78T355 119Q365 127 370 120L401 85Q408 78 400 70Q366 35 319 12T212 -11ZM361 279Q367 279 369 285Q371 296 372 306T373 325Q373 373 349 396T280 420Q241 420 210 401T160 344Q154 332 149 316T141 285Q139 279 145 279H361Z"  />
<glyph unicode="&#x436;" horiz-adv-x="725" d="M-10 -3Q-21 -3 -19 7L-10 61Q-9 70 2 70H7Q37 70 51 80T81 120L117 188Q131 214 151 230T194 250V254Q182 262 175 275T163 309L149 365Q141 394 127 402T89 411H79Q68 411 70 421L79 473Q80 482 91 482H115Q156 482 181 465T216 406L231 340Q245 281 299 281H326Q331 281 333 287L366 470Q368 479 377 479H437Q447 479 445 470L413 287Q411 281 418 281H449Q476 281 496 297T531 340L574 420Q585 441 597 453T623 472T653 480T691 482H718Q729 482 727 472L718 421Q717 411 706 411H699Q676 411 662 404T632 369L598 309Q586 288 571 273T538 253V249Q574 238 586 188L602 126Q610 98 621 84T657 70H669Q679 70 677 60L668 6Q666 -3 657 -3H633Q589 -3 564 22T527 90L511 157Q503 191 481 200T434 210H406Q399 210 398 204L364 9Q363 6 361 3T353 0H294Q289 0 287 3T285 9L319 204Q320 210 314 210H281Q271 210 260 209T236 203T212 187T190 157L149 75Q137 52 125 37T99 13T67 1T26 -3H-10H-10Z"  />
<glyph unicode="&#x437;" horiz-adv-x="448" d="M177 -11Q115 -11 74 5T0 52Q-6 57 2 66L39 109Q42 113 46 113T53 110Q74 87 105 74T175 61Q199 61 221 66T261 82T289 111T300 154Q300 185 278 198T218 211H161Q152 211 154 222L162 270Q164 280 173 280H230Q248 280 265 285T297 300T320 326T329 364Q329 393 306 406T239 419Q202 419 174 408T116 379Q105 372 103 379L80 424Q75 432 83 437Q115 459 156 474T253 490Q334 490 373 459T413 374Q413 331 390 298T323 250V246Q350 238 365 213T381 157Q381 117 366 86T324 33T260 0T177 -11Z"  />
<glyph unicode="&#x438;" horiz-adv-x="543" d="M52 0Q47 0 45 3T43 9L124 470Q126 479 136 479H196Q206 479 204 470L145 140H148L421 473Q427 479 433 479H496Q501 479 504 477T506 470L424 9Q423 6 421 3T413 0H354Q349 0 347 3T345 9L404 341H401L128 7Q122 0 115 0H52H52Z"  />
<glyph unicode="&#x439;" horiz-adv-x="543" d="M327 560Q273 560 244 587T211 665Q210 676 218 678L254 685Q263 686 264 679Q269 653 283 635T331 617Q364 617 386 636T421 679Q425 686 434 685L467 678Q475 676 470 665Q431 560 327 560ZM52 0Q47 0 45 3T43 9L124 470Q126 479 136 479H196Q206 479 204 470L145 140H148L421 473Q427 479 433 479H496Q501 479 504 477T506 470L424 9Q423 6 421 3T413 0H354Q349 0 347 3T345 9L404 341H401L128 7Q122 0 115 0H52H52Z"  />
<glyph unicode="&#x43A;" horiz-adv-x="492" d="M52 0Q47 0 45 3T43 9L124 470Q126 479 136 479H195Q206 479 204 470L171 287Q169 281 176 281H221Q248 281 268 298T303 340L348 421Q360 442 371 454T396 472T426 480T464 482H491Q501 482 499 472L490 421Q489 411 478 411H471Q448 411 434 405T404 369L371 309Q359 287 343 272T310 253V249Q346 239 359 188L375 126Q382 98 393 84T430 70H442Q451 70 449 60L440 6Q438 -3 430 -3H405Q361 -3 336 21T300 89L283 157Q275 191 253 200T206 209H164Q158 209 157 203L122 9Q121 6 119 3T112 0H52H52Z"  />
<glyph unicode="&#x43B;" horiz-adv-x="546" d="M0 -3Q-9 -3 -8 7L1 61Q2 70 12 70H18Q33 70 51 75T87 99T121 157T149 260L186 470Q188 479 197 479H501Q511 479 509 470L427 9Q426 6 424 3T417 0H357Q352 0 350 3T348 9L418 401Q419 407 413 407H257Q251 407 250 401L222 245Q210 173 191 126T148 50T94 9T31 -3H0H0Z"  />
<glyph unicode="&#x43C;" horiz-adv-x="611" d="M52 0Q47 0 45 3T43 9L124 470Q126 479 136 479H197Q205 479 207 472L291 165H294L487 472Q492 479 500 479H566Q576 479 574 470L493 9Q492 6 490 3T482 0H425Q420 0 418 3T416 9L472 319H469L311 72Q305 63 296 63H258Q253 63 251 66T248 72L178 319H175L119 9Q118 6 116 3T108 0H52H52Z"  />
<glyph unicode="&#x43D;" horiz-adv-x="530" d="M52 0Q47 0 45 3T43 9L124 470Q126 479 136 479H195Q199 479 202 477T204 470L171 288Q169 282 176 282H375Q380 282 382 288L414 470Q416 479 426 479H485Q495 479 493 470L412 9Q411 6 409 3T401 0H342Q337 0 335 3T333 9L368 203Q369 209 363 209H164Q158 209 157 203L122 9Q121 6 119 3T112 0H52H52Z"  />
<glyph unicode="&#x43E;" horiz-adv-x="494" d="M209 -11Q131 -11 89 32T46 154Q46 178 49 207T59 266T74 322T92 368Q124 432 175 461T295 490Q373 490 415 447T458 326Q458 302 454 273T444 214T429 157T411 111Q380 47 329 18T209 -11ZM220 62Q301 62 339 140Q346 154 352 176T364 223T373 272T376 313Q376 363 355 390T283 418Q204 418 165 339Q158 325 151 303T139 256T131 208T127 167Q127 116 148 89T220 62Z"  />
<glyph unicode="&#x43F;" horiz-adv-x="525" d="M52 0Q47 0 45 3T43 9L124 470Q126 479 136 479H480Q490 479 488 470L407 9Q406 6 404 3T397 0H337Q332 0 330 3T328 9L397 401Q398 407 392 407H198Q192 407 191 401L122 9Q121 6 119 3T112 0H52H52Z"  />
<glyph unicode="&#x440;" horiz-adv-x="516" d="M20 -180Q10 -180 12 -170L124 469Q126 479 135 479H196Q206 479 204 469L196 423H197Q219 452 253 471T340 490Q408 490 444 448T480 333Q480 307 476 275T466 211T450 150T431 100Q402 42 358 16T254 -11Q203 -11 174 9T132 59H131L91 -170Q89 -180 81 -180H20ZM245 62Q323 62 360 138Q368 154 375 177T387 226T395 275T398 318Q398 364 378 391T308 418Q270 418 240 399T190 339Q184 327 178 305T166 256T158 204T154 160Q154 115 176 89T245 62Z"  />
<glyph unicode="&#x441;" horiz-adv-x="449" d="M207 -11Q130 -11 88 32T46 154Q46 175 48 201T56 256T70 313T91 366Q120 427 171 458T291 490Q344 490 379 468T433 404Q436 395 429 390L386 359Q377 354 372 362Q357 391 337 404T283 418Q247 418 216 398T165 339Q156 320 149 296T137 248T130 203T127 168Q127 117 149 90T219 62Q249 62 276 75T331 119Q338 127 344 121L380 84Q386 78 380 70Q349 32 305 11T207 -11Z"  />
<glyph unicode="&#x442;" horiz-adv-x="406" d="M133 0Q128 0 126 3T124 9L194 401Q195 407 189 407H53Q43 407 45 416L54 470Q55 479 65 479H427Q430 479 433 477T435 469L426 416Q425 411 422 409T415 407H280Q274 407 273 401L203 9Q202 6 200 3T192 0H133H133Z"  />
<glyph unicode="&#x443;" horiz-adv-x="460" d="M13 -180Q3 -180 5 -170L14 -117Q15 -107 26 -107H43Q72 -107 92 -91T135 -31L158 14L70 469Q68 479 78 479H141Q151 479 152 469L211 119H213L395 469Q400 479 408 479H472Q484 479 479 469L206 -39Q183 -81 164 -108T125 -151T84 -173T38 -180H13H13Z"  />
<glyph unicode="&#x444;" horiz-adv-x="648" d="M225 -180Q215 -180 217 -171L245 -12Q246 -6 240 -6Q143 1 92 55T41 200Q41 278 72 340T160 438Q193 459 234 471T326 485Q331 485 333 491L366 671Q368 680 376 680H437Q447 680 445 671L412 491Q410 485 417 485Q519 478 568 424T617 281Q617 203 585 139T495 40Q427 -3 331 -6Q325 -6 324 -12L296 -171Q294 -180 286 -180H225ZM252 66Q257 66 259 72L319 408Q320 414 314 414Q276 413 245 402T191 372Q156 343 139 298T122 200Q122 139 153 104T252 66ZM344 66Q381 67 410 77T463 106Q498 135 517 181T536 280Q536 308 529 332T507 374T467 402T406 414Q400 414 399 408L339 72Q337 66 344 66Z"  />
<glyph unicode="&#x445;" horiz-adv-x="460" d="M-2 0Q-7 0 -8 3T-7 10L193 251L89 469Q85 479 97 479H162Q167 479 170 478T175 471L246 318H247L373 471Q378 476 381 477T389 479H458Q463 479 464 476T462 469L281 250L394 10Q398 0 386 0H323Q314 0 310 9L229 183H228L84 9Q78 0 69 0H-2H-2Z"  />
<glyph unicode="&#x446;" horiz-adv-x="534" d="M386 -124Q377 -124 379 -115L397 -6Q398 0 393 0H52Q47 0 45 3T43 9L124 469Q126 479 136 479H195Q206 479 204 469L134 79Q132 73 139 73H333Q338 73 340 79L409 469Q411 479 421 479H480Q490 479 488 469L419 79Q417 73 424 73H475Q485 73 483 64L452 -115Q450 -124 442 -124H386H386Z"  />
<glyph unicode="&#x447;" horiz-adv-x="497" d="M308 0Q303 0 301 3T299 9L330 184Q332 191 324 188Q301 181 269 173T199 165Q132 165 99 202T80 318L107 470Q109 479 119 479H178Q188 479 186 470L160 320Q152 273 170 255T229 237Q261 237 287 244T338 260Q344 263 345 267L381 470Q383 479 392 479H452Q462 479 460 470L378 9Q377 6 375 3T368 0H308H308Z"  />
<glyph unicode="&#x448;" horiz-adv-x="752" d="M52 0Q47 0 45 3T43 9L124 469Q126 479 136 479H195Q206 479 204 469L134 79Q132 73 139 73H305Q310 73 312 79L381 469Q383 479 392 479H451Q462 479 460 469L391 79Q389 73 396 73H560Q565 73 567 79L636 469Q638 479 648 479H707Q718 479 716 469L635 9Q634 6 632 3T623 0H52H52Z"  />
<glyph unicode="&#x449;" horiz-adv-x="762" d="M613 -124Q604 -124 606 -115L625 -6Q626 0 621 0H52Q47 0 45 3T43 9L124 469Q126 479 136 479H195Q206 479 204 469L134 79Q132 73 139 73H305Q310 73 312 79L381 469Q383 479 392 479H451Q462 479 460 469L391 79Q389 73 396 73H560Q565 73 567 79L636 469Q638 479 648 479H707Q718 479 716 469L647 79Q645 73 652 73H703Q713 73 711 64L681 -115Q679 -124 669 -124H613H613Z"  />
<glyph unicode="&#x44A;" horiz-adv-x="535" d="M108 0Q103 0 101 3T99 9L168 401Q169 407 163 407H52Q49 407 47 409T45 416L54 470Q55 475 58 477T64 479H251Q261 479 259 470L229 298Q227 292 234 292H360Q423 292 456 256T490 164Q490 126 478 96T442 44T386 12T315 0H108ZM319 71Q360 71 386 95T412 164Q412 222 341 222H222Q216 222 215 216L190 77Q188 71 195 71H319Z"  />
<glyph unicode="&#x44B;" horiz-adv-x="663" d="M52 0Q47 0 45 3T43 9L124 470Q126 479 136 479H195Q206 479 204 470L174 298Q172 292 179 292H294Q357 292 390 256T424 164Q424 88 376 44T249 0H52ZM253 71Q294 71 320 95T346 164Q346 222 275 222H166Q160 222 159 216L134 77Q132 71 139 71H253ZM475 0Q464 0 466 10L548 469Q550 479 559 479H618Q629 479 627 469L546 10Q544 0 535 0H475Z"  />
<glyph unicode="&#x44C;" horiz-adv-x="479" d="M52 0Q47 0 45 3T43 9L124 470Q126 479 136 479H195Q206 479 204 470L174 298Q172 292 179 292H304Q367 292 400 256T434 164Q434 88 386 44T259 0H52ZM263 71Q304 71 330 95T356 164Q356 222 285 222H166Q160 222 159 216L134 77Q132 71 139 71H263Z"  />
<glyph unicode="&#x44D;" horiz-adv-x="451" d="M173 -11Q110 -11 72 14T16 81Q14 86 16 88T22 94L64 126Q72 131 77 122Q91 93 114 77T179 61Q251 61 291 129Q299 143 307 164T319 205Q320 211 314 211H164Q161 211 159 213T157 221L165 270Q166 275 169 277T176 279H325Q331 279 333 285Q334 293 334 301T335 315Q335 360 314 389T242 419Q213 419 180 406T123 361Q120 356 116 355T108 357L73 392Q66 397 72 405Q136 490 252 490Q332 490 373 445T415 324Q415 295 411 262T399 196T380 135T355 86Q324 38 279 14T173 -11Z"  />
<glyph unicode="&#x44E;" horiz-adv-x="687" d="M406 -11Q328 -11 289 34T249 156Q249 167 250 179T253 203Q254 209 248 209H164Q158 209 157 203L122 9Q121 6 119 3T112 0H52Q47 0 45 3T43 9L124 470Q126 479 136 479H195Q199 479 202 477T204 470L171 287Q169 281 176 281H260Q266 281 267 287Q275 317 286 345T315 399Q348 443 388 466T494 490Q574 490 612 443T651 323Q651 296 648 267T637 208T619 151T595 100Q563 46 519 18T406 -11ZM418 62Q455 62 479 78T523 127Q532 141 540 164T554 213T565 265T569 310Q569 332 565 351T551 386T524 409T481 418Q446 418 422 401T378 353Q355 317 343 266T331 168Q331 147 335 128T350 94T377 71T418 62Z"  />
<glyph unicode="&#x44F;" horiz-adv-x="499" d="M20 -3Q11 -3 12 7L21 61Q22 70 32 70H41Q60 70 73 77T103 114L116 138Q127 159 140 176T170 200V204Q132 212 107 243T81 318Q81 354 94 384T131 435T186 467T255 479H453Q464 479 462 468L381 9Q379 0 370 0H310Q306 0 303 2T301 9L331 177Q331 183 326 183H280Q257 183 237 171T200 130L167 73Q154 51 142 37T116 13T85 1T45 -3H20ZM338 253Q343 253 345 259L371 403Q372 409 366 409H254Q213 409 187 387T161 321Q161 292 178 273T231 253H338Z"  />
<glyph unicode="&#x451;" horiz-adv-x="485" d="M212 -11Q130 -11 88 33T46 157Q46 180 48 207T56 262T69 316T88 364Q117 424 167 457T290 490Q324 490 353 480T404 449T438 398T450 327Q450 308 448 286T438 226Q436 216 426 216H133Q127 216 126 210Q124 198 124 189T123 169Q123 62 225 62Q264 62 297 78T355 119Q365 127 370 120L401 85Q408 78 400 70Q366 35 319 12T212 -11ZM361 279Q367 279 369 285Q371 296 372 306T373 325Q373 373 349 396T280 420Q241 420 210 401T160 344Q154 332 149 316T141 285Q139 279 145 279H361ZM371 591Q361 591 363 601L376 670Q378 680 387 680H442Q452 680 450 670L438 601Q436 591 427 591H371ZM181 591Q171 591 173 601L186 670Q188 680 197 680H252Q262 680 260 670L248 601Q246 591 237 591H181Z"  />
<glyph unicode="&#x452;" horiz-adv-x="523" d="M225 -180Q215 -180 217 -170L226 -117Q227 -107 237 -107H251Q285 -107 301 -93T324 -40L383 290Q394 351 375 384T302 418Q279 418 258 409T220 385T191 347T173 297L123 10Q121 0 113 0H51Q41 0 43 10L137 541Q138 547 132 547H64Q54 547 56 557L63 604Q64 613 75 613H143Q148 613 150 619L160 670Q162 680 171 680H232Q242 680 240 670L230 619Q228 613 235 613H345Q355 613 353 603L345 556Q343 547 333 547H223Q217 547 216 541L195 424H196Q219 453 254 471T336 490Q413 490 446 441T465 310L403 -39Q395 -81 384 -108T354 -151T308 -173T243 -180H225H225Z"  />
<glyph unicode="&#x453;" horiz-adv-x="390" d="M51 0Q47 0 45 3T43 9L124 470Q125 475 128 477T135 479H414Q424 479 423 470L414 416Q413 411 410 409T402 407H198Q192 407 191 401L122 9Q121 6 119 3T112 0H51H51ZM224 557Q219 557 218 559T219 567L311 690Q318 700 330 700H392Q397 700 398 697T395 689L286 567Q277 557 266 557H224Z"  />
<glyph unicode="&#x454;" horiz-adv-x="451" d="M208 -10Q128 -10 87 38T46 165Q46 190 50 222T62 288T83 353T114 408Q147 450 190 469T286 489Q344 489 380 466T440 401Q442 397 441 395T437 390L395 359Q386 352 379 363Q363 389 342 404T281 419Q252 419 228 409T186 375Q175 362 167 347T154 319T146 296T143 283Q143 279 148 279H299Q304 279 306 276T307 268L299 220Q298 215 295 213T288 211H137Q131 211 130 205Q128 196 128 184T127 164Q127 117 149 89T218 61Q263 61 290 78T342 122Q347 127 350 126T357 121L390 91Q397 86 391 78Q357 34 314 12T208 -10Z"  />
<glyph unicode="&#x455;" horiz-adv-x="470" d="M202 -11Q136 -11 90 12T21 60Q16 67 23 74L66 115Q73 121 79 115Q102 92 136 77T212 61Q269 61 301 88T334 152Q334 177 318 190T259 207L211 212Q148 219 119 248T89 325Q89 364 103 394T144 446T207 479T285 490Q332 490 374 474T440 437Q447 432 441 424L403 385Q397 377 389 383Q369 397 339 408T273 420Q225 420 197 396T168 338Q168 315 184 302T245 284L292 279Q355 273 384 244T413 169Q413 87 357 38T202 -11Z"  />
<glyph unicode="&#x456;" horiz-adv-x="238" d="M52 0Q41 0 43 10L124 469Q126 479 135 479H196Q206 479 204 469L122 10Q120 0 112 0H52ZM153 591Q143 591 145 601L157 670Q159 680 168 680H234Q244 680 242 670L230 601Q229 591 218 591H153Z"  />
<glyph unicode="&#x457;" horiz-adv-x="238" d="M252 591Q242 591 244 601L257 670Q259 680 268 680H323Q333 680 331 670L319 601Q317 591 308 591H252ZM62 591Q52 591 54 601L67 670Q69 680 78 680H133Q143 680 141 670L129 601Q127 591 118 591H62ZM52 0Q41 0 43 10L124 469Q126 479 135 479H196Q206 479 204 469L122 10Q120 0 112 0H52Z"  />
<glyph unicode="&#x458;" horiz-adv-x="238" d="M-65 -180Q-75 -180 -73 -170L-64 -117Q-63 -107 -52 -107H-39Q-4 -107 11 -93T34 -40L124 469Q126 479 135 479H196Q206 479 204 469L114 -39Q106 -81 95 -108T65 -151T19 -173T-46 -180H-65ZM153 591Q143 591 145 601L157 670Q159 680 168 680H234Q244 680 242 670L230 601Q229 591 218 591H153Z"  />
<glyph unicode="&#x459;" horiz-adv-x="785" d="M0 -3Q-9 -3 -8 7L1 61Q2 70 12 70H18Q33 70 51 75T87 99T121 157T149 260L186 470Q188 479 197 479H501Q511 479 509 470L479 298Q477 292 484 292H609Q673 292 706 256T739 165Q739 127 727 97T691 45T636 12T565 0H357Q352 0 350 3T348 9L418 401Q419 407 413 407H257Q251 407 250 401L222 245Q210 173 191 126T148 50T94 9T31 -3H0ZM568 71Q609 71 635 95T661 164Q661 222 590 222H471Q465 222 464 216L439 77Q437 71 444 71H568Z"  />
<glyph unicode="&#x45A;" horiz-adv-x="769" d="M52 0Q47 0 45 3T43 9L124 470Q126 479 136 479H195Q199 479 202 477T204 470L173 295Q171 289 178 289H377Q382 289 384 295L414 470Q416 479 426 479H485Q495 479 493 470L463 295Q461 289 468 289H594Q657 289 690 254T724 162Q724 87 676 44T549 0H342Q337 0 335 3T333 9L369 212Q370 218 364 218H165Q159 218 158 212L122 9Q121 6 119 3T112 0H52ZM555 71Q594 71 619 95T645 162Q645 218 576 218H456Q450 218 449 212L424 77Q422 71 429 71H555Z"  />
<glyph unicode="&#x45B;" horiz-adv-x="522" d="M51 0Q41 0 43 10L137 541Q138 547 132 547H64Q54 547 56 557L63 604Q64 613 75 613H143Q148 613 150 619L160 670Q162 680 171 680H232Q242 680 240 670L230 619Q228 613 235 613H345Q355 613 353 603L345 556Q343 547 333 547H223Q217 547 216 541L195 424H196Q219 453 254 471T336 490Q413 490 446 441T465 310L412 10Q410 0 401 0H341Q331 0 333 10L383 290Q394 351 375 384T302 418Q279 418 258 409T220 385T191 347T173 297L123 10Q121 0 113 0H51H51Z"  />
<glyph unicode="&#x45C;" horiz-adv-x="492" d="M52 0Q47 0 45 3T43 9L124 470Q126 479 136 479H195Q206 479 204 470L171 287Q169 281 176 281H221Q248 281 268 298T303 340L348 421Q360 442 371 454T396 472T426 480T464 482H491Q501 482 499 472L490 421Q489 411 478 411H471Q448 411 434 405T404 369L371 309Q359 287 343 272T310 253V249Q346 239 359 188L375 126Q382 98 393 84T430 70H442Q451 70 449 60L440 6Q438 -3 430 -3H405Q361 -3 336 21T300 89L283 157Q275 191 253 200T206 209H164Q158 209 157 203L122 9Q121 6 119 3T112 0H52H52ZM262 557Q257 557 256 559T257 567L349 690Q356 700 368 700H430Q435 700 436 697T433 689L324 567Q315 557 304 557H262Z"  />
<glyph unicode="&#x45E;" horiz-adv-x="460" d="M13 -180Q3 -180 5 -170L14 -117Q15 -107 26 -107H43Q72 -107 92 -91T135 -31L158 14L70 469Q68 479 78 479H141Q151 479 152 469L211 119H213L395 469Q400 479 408 479H472Q484 479 479 469L206 -39Q183 -81 164 -108T125 -151T84 -173T38 -180H13H13ZM282 560Q228 560 199 587T166 665Q165 676 173 678L209 685Q218 686 219 679Q224 653 238 635T286 617Q319 617 341 636T376 679Q380 686 389 685L422 678Q430 676 425 665Q386 560 282 560Z"  />
<glyph unicode="&#x45F;" horiz-adv-x="526" d="M174 -124Q165 -124 167 -115L186 -6Q187 0 182 0H52Q41 0 43 9L124 469Q126 479 136 479H195Q206 479 204 469L134 79Q132 73 139 73H334Q339 73 341 79L410 469Q412 479 421 479H481Q491 479 489 469L408 9Q406 0 397 0H268Q261 0 260 -6L241 -115Q239 -124 230 -124H174H174Z"  />
<glyph unicode="&#x490;" horiz-adv-x="480" d="M54 0Q43 0 45 10L162 670Q164 680 173 680H465Q473 680 475 688L495 800Q496 803 498 806T506 809H564Q568 809 570 806T571 800L538 611Q536 602 527 602H240Q234 602 233 596L129 10Q127 0 118 0H54H54Z"  />
<glyph unicode="&#x491;" horiz-adv-x="390" d="M51 0Q47 0 45 3T43 9L124 470Q125 474 128 476T135 479H346Q351 479 353 485L370 578Q372 588 381 588H434Q444 588 442 578L414 416Q412 407 402 407H198Q192 407 191 401L122 9Q121 6 119 3T111 0H51H51Z"  />
<glyph unicode="&#x2013;" horiz-adv-x="492" d="M37 232Q27 232 29 242L37 291Q39 301 48 301H475Q484 301 482 291L474 241Q472 232 463 232H37Z"  />
<glyph unicode="&#x2014;" horiz-adv-x="815" d="M37 232Q27 232 29 242L37 291Q39 301 48 301H797Q807 301 805 291L797 241Q795 232 786 232H37Z"  />
<glyph unicode="&#x2018;" horiz-adv-x="207" d="M127 506Q117 506 119 516L133 597Q136 612 142 618L201 674Q209 682 214 682Q224 682 222 672L195 516Q193 506 184 506H127Z"  />
<glyph unicode="&#x2019;" horiz-adv-x="207" d="M127 505Q117 505 119 514L146 670Q148 680 157 680H214Q224 680 222 670L208 589Q206 581 204 577T198 568L140 512Q133 505 127 505Z"  />
<glyph unicode="&#x201A;" horiz-adv-x="207" d="M22 -86Q12 -86 14 -76L41 79Q43 89 52 89H110Q119 89 117 79L103 -2Q100 -15 94 -23L36 -78Q29 -86 22 -86Z"  />
<glyph unicode="&#x201C;" horiz-adv-x="355" d="M275 506Q265 506 267 516L281 597Q284 611 291 618L349 674Q357 682 363 682Q372 682 370 672L343 516Q341 506 332 506H275ZM127 506Q117 506 119 516L133 597Q136 612 142 618L201 674Q209 682 214 682Q224 682 222 672L195 516Q193 506 184 506H127Z"  />
<glyph unicode="&#x201D;" horiz-adv-x="355" d="M275 505Q265 505 267 514L294 670Q296 680 305 680H363Q372 680 370 670L356 589Q353 576 347 568L289 512Q282 505 275 505ZM127 505Q117 505 119 514L146 670Q148 680 157 680H214Q224 680 222 670L208 589Q206 581 204 577T198 568L140 512Q133 505 127 505Z"  />
<glyph unicode="&#x201E;" horiz-adv-x="355" d="M170 -86Q161 -86 163 -76L190 79Q192 89 201 89H258Q268 89 266 79L252 -2Q250 -10 248 -14T242 -23L184 -78Q177 -86 170 -86ZM22 -86Q12 -86 14 -76L41 79Q43 89 52 89H110Q119 89 117 79L103 -2Q100 -15 94 -23L36 -78Q29 -86 22 -86Z"  />
<glyph unicode="&#x2020;" horiz-adv-x="465" d="M136 -180Q126 -180 128 -170L223 363Q224 369 218 369H83Q73 369 75 379L84 429Q85 438 96 438H229Q234 438 236 444L276 670Q278 680 287 680H344Q355 680 353 670L313 444Q311 438 317 438H451Q461 438 459 428L450 378Q448 369 439 369H307Q300 369 299 363L205 -170Q202 -180 193 -180H136Z"  />
<glyph unicode="&#x2021;" horiz-adv-x="465" d="M136 -180Q125 -180 128 -170L163 27Q164 33 158 33H24Q14 33 16 43L25 93Q26 102 36 102H170Q175 102 177 108L228 393Q229 399 223 399H88Q78 399 80 409L89 459Q90 468 100 468H234Q239 468 241 474L276 670Q278 680 287 680H344Q355 680 353 670L318 474Q316 468 322 468H456Q466 468 464 458L455 408Q453 399 444 399H312Q305 399 304 393L253 108Q251 102 257 102H392Q402 102 400 92L391 42Q389 33 380 33H246Q240 33 239 27L205 -170Q202 -180 193 -180H136Z"  />
<glyph unicode="&#x2022;" horiz-adv-x="383" d="M212 180Q156 180 121 215T85 308Q85 365 120 400T212 436Q239 436 262 427T303 400T329 360T339 308Q339 280 330 257T303 216T263 190T212 180Z"  />
<glyph unicode="&#x2026;" horiz-adv-x="673" d="M546 10Q544 0 535 0H465Q454 0 456 10L470 93Q472 103 481 103H551Q562 103 560 93L546 10ZM322 10Q320 0 311 0H240Q230 0 232 10L245 93Q247 103 256 103H327Q337 103 335 93L322 10ZM97 10Q95 0 86 0H16Q5 0 7 10L21 93Q23 103 32 103H102Q113 103 111 93L97 10Z"  />
<glyph unicode="&#x2030;" horiz-adv-x="1040" d="M117 -11Q112 -11 111 -8T113 -1L612 681Q616 686 619 688T628 691H672Q677 691 678 688T676 681L177 -1Q170 -11 160 -11H117ZM212 330Q170 330 141 354T112 425Q112 437 115 462T123 516T135 571T149 612Q167 649 196 668T271 688Q314 688 342 664T371 593Q371 581 368 555T359 501T348 446T334 406Q316 369 287 350T212 330ZM219 385Q259 385 278 422Q283 432 289 455T300 504T308 553T311 587Q311 608 299 620T264 633Q224 633 206 596Q200 586 194 563T183 514T175 465T172 431Q172 410 184 398T219 385ZM813 -9Q770 -9 742 15T713 87Q713 99 716 124T724 178T736 233T750 273Q768 310 797 329T872 349Q914 349 943 325T972 254Q972 242 969 217T960 163T949 108T935 68Q917 30 888 11T813 -9ZM518 -9Q476 -9 447 15T418 87Q418 99 421 124T429 178T441 233T455 273Q473 310 502 329T577 349Q620 349 648 325T677 254Q677 242 674 217T665 163T654 108T640 68Q622 30 593 11T518 -9ZM819 46Q858 46 878 83Q883 93 889 116T900 165T908 214T911 248Q911 269 899 281T864 294Q824 294 806 258Q800 247 794 224T783 175T775 126T772 93Q772 71 784 59T819 46ZM525 46Q563 46 583 83Q588 93 594 116T605 165T613 214T616 248Q616 269 604 281T569 294Q530 294 511 258Q506 247 500 224T489 175T481 126T478 93Q478 71 490 59T525 46Z"  />
<glyph unicode="&#x2039;" horiz-adv-x="299" d="M49 257Q42 264 51 271L263 460Q266 463 269 462T272 456L261 384Q259 378 257 374T249 364L134 265Q129 261 132 257L211 155Q219 146 216 136L206 72Q205 67 202 66T195 68L49 257Z"  />
<glyph unicode="&#x203A;" horiz-adv-x="299" d="M53 68Q50 65 47 66T44 72L56 144Q57 150 59 154T67 163L182 263Q187 267 184 271L106 372Q99 381 100 392L111 456Q112 461 115 462T121 460L268 271Q273 263 266 257L53 68H53Z"  />
<glyph unicode="&#x20AC;" horiz-adv-x="517" d="M248 -11Q170 -11 128 32T86 156Q86 173 88 192T96 243Q97 249 91 249H51Q41 249 43 259L50 300Q52 310 61 310H101Q106 310 108 316L118 371Q120 377 114 377H73Q63 377 65 387L72 427Q74 437 84 437H124Q129 437 131 443Q139 484 146 511T165 560Q197 626 249 658T371 691Q405 691 431 682T477 656T509 618T527 572Q530 563 521 559L469 536Q460 532 457 541Q445 577 424 597T360 617Q278 617 239 538Q231 522 224 501T211 443Q209 437 216 437H401Q411 437 409 427L393 387Q388 377 380 377H205Q199 377 198 371L189 316Q187 310 194 310H359Q369 310 367 300L350 259Q345 249 337 249H183Q177 249 176 243Q170 210 169 194T167 166Q167 115 189 89T260 63Q298 63 329 84T385 140Q391 148 399 145L445 120Q452 115 448 107Q416 56 367 23T248 -11Z"  />
<glyph unicode="&#x2116;" horiz-adv-x="915" d="M54 0Q43 0 45 10L162 671Q164 680 173 680H234Q242 680 245 673L448 163H451L542 671Q544 680 552 680H614Q624 680 622 671L505 10Q503 0 495 0H432Q424 0 422 6L219 519H216L126 10Q124 0 115 0H54ZM628 148Q625 148 623 150T621 158L627 198Q629 207 639 207H856Q865 207 864 197L858 157Q856 148 846 148H628ZM756 255Q705 255 675 282T645 364Q645 393 652 425T675 485Q695 523 728 540T806 558Q858 558 888 531T919 449Q919 416 910 384T884 325Q841 255 756 255ZM765 315Q803 315 828 352Q839 369 845 393T851 437Q851 466 839 482T798 498Q753 498 731 458Q722 441 717 418T712 376Q712 347 724 331T765 315Z"  />
<glyph unicode="&#x2122;" horiz-adv-x="831" d="M773 286Q763 286 763 296V544H761L668 352Q663 342 655 342H625Q617 342 612 352L519 544H517V296Q517 286 507 286H469Q459 286 459 296V670Q459 680 469 680H506Q514 680 519 671L640 415H643L761 671Q765 680 774 680H811Q821 680 821 670V296Q821 286 811 286H773ZM215 286Q205 286 205 296V619Q205 625 199 625H93Q83 625 83 635V670Q83 680 93 680H378Q388 680 388 670V635Q388 625 378 625H273Q267 625 267 619V296Q267 286 257 286H215Z"  />

</font>
</defs>
</svg>
