<?xml  version="1.0" encoding="UTF-8"?>
<!DOCTYPE svg PUBLIC "-//W3C//DTD SVG 1.0//EN" "http://www.w3.org/TR/2001/REC-SVG-20010904/DTD/svg10.dtd" >
<svg xmlns="http://www.w3.org/2000/svg" >
<metadata>
<version>1.0</version>
<id><![CDATA[DIN Next W10 Light Italic]]></id>
<vendor>Monotype Imaging Inc.</vendor>
<credits>
<name>Fonts.com WebFonts</name>
<URL>http://webfonts.fonts.com</URL>
<role>Home of the Web fonts</role>
</credits>
<license>
<URL>http://webfonts.fonts.com/Legal</URL>
</license>
<copyright><![CDATA[Copyright 2009 Monotype Imaging Inc. All rights reserved.]]></copyright>
<trademark><![CDATA[101]]></trademark>
<licensee>
<name></name>
</licensee>
</metadata>
<defs >
<font horiz-adv-x="408" id="a0023152-0a14-4055-853f-491def595ce2">
<font-face font-family="" panose-1="2 11 3 3 2 2 3 12 2 3" ascent="850" descent="-350" units-per-em="1000" alphabetic="0">
</font-face>
<missing-glyph horiz-adv-x="236" />

<glyph unicode="&#xA;" />
<glyph unicode="&#xD;" horiz-adv-x="0" />
<glyph unicode=" " horiz-adv-x="236" />
<glyph unicode="!" horiz-adv-x="253" d="M109 176Q99 176 101 186L179 670Q181 680 190 680H227Q237 680 235 670L141 186Q139 176 130 176H109ZM70 75Q72 85 81 85H126Q136 85 134 75L124 10Q121 0 112 0H67Q56 0 58 10L70 75Z"  />
<glyph unicode="&quot;" horiz-adv-x="301" d="M250 523Q240 523 242 533L266 670Q268 680 277 680H300Q310 680 308 670L284 533Q282 523 273 523H250ZM136 523Q126 523 128 533L151 670Q153 680 162 680H185Q195 680 193 670L170 533Q168 523 159 523H136Z"  />
<glyph unicode="#" horiz-adv-x="496" d="M117 221H37Q26 221 28 231L32 252Q34 262 44 262H129L182 435H99Q88 435 90 445L94 466Q96 476 106 476H195L255 670Q258 680 267 680H289Q300 680 297 670L237 476H382L442 670Q445 680 454 680H477Q487 680 484 670L424 476H508Q518 476 516 466L512 445Q510 435 501 435H412L359 262H446Q457 262 455 252L451 231Q449 221 439 221H346L282 10Q279 0 270 0H247Q237 0 240 10L304 221H159L94 10Q91 0 82 0H59Q49 0 52 10L117 221ZM317 262L370 435H225L171 262H317Z"  />
<glyph unicode="$" horiz-adv-x="510" d="M32 51Q26 57 33 64L54 88Q61 95 68 89Q94 69 128 55T209 39L259 321Q186 333 152 372T118 472Q118 518 133 557T176 624T241 670T324 690L333 741Q335 751 344 751H361Q371 751 368 741L359 689Q399 686 431 674T489 643Q495 637 490 629L472 606Q466 598 458 604Q430 621 405 629T350 640L302 367Q379 356 413 317T448 219Q448 171 433 131T391 61T324 13T237 -9L228 -61Q226 -71 216 -71H200Q190 -71 192 -61L201 -10Q150 -8 105 9T32 51ZM315 640Q283 637 257 624T211 590T180 540T169 478Q169 436 190 410T268 372L315 640ZM245 40Q279 44 307 58T355 95T386 147T397 210Q397 251 374 277T293 315L245 40Z"  />
<glyph unicode="%" horiz-adv-x="739" d="M616 680Q623 690 631 690H656Q667 690 660 680L163 0Q158 -5 155 -7T147 -10H122Q111 -10 118 0L616 680ZM216 330Q174 330 149 354T123 423Q123 437 126 463T135 519T147 574T161 614Q197 688 274 688Q316 688 342 664T368 595Q368 581 365 555T356 499T343 444T329 404Q293 330 216 330ZM220 368Q267 368 291 414Q297 427 303 451T315 502T324 553T327 592Q327 618 313 634T270 650Q224 650 200 604Q193 591 187 567T175 516T166 465T163 426Q163 400 177 384T220 368ZM411 84Q411 98 414 124T423 180T436 235T450 276Q486 350 563 350Q605 350 630 326T656 257Q656 243 653 217T644 161T632 106T618 65Q582 -8 505 -8Q463 -8 437 15T411 84ZM452 88Q452 62 466 46T509 30Q555 30 579 75Q585 88 591 112T603 163T612 215T615 254Q615 280 601 295T558 311Q511 311 488 266Q482 253 476 229T464 178T455 127T452 88Z"  />
<glyph unicode="&amp;" horiz-adv-x="591" d="M48 130Q48 164 58 195T90 256T145 317T224 381V382Q194 437 180 471T165 534Q165 567 177 595T211 645T262 678T327 690Q381 690 412 659T443 578Q443 555 436 533T412 486T364 433T286 369L396 169L484 264Q490 270 498 266L516 247Q522 241 514 233L418 129L449 73Q457 59 465 54T487 49H503Q513 49 511 39L507 10Q506 0 496 0H480Q454 0 440 8T413 39L383 92Q330 39 285 15T186 -10Q121 -10 85 29T48 130ZM264 410Q304 439 330 462T370 504T389 539T395 571Q395 606 375 625T319 644Q273 644 244 614T214 539Q214 528 216 517T225 490T240 456T264 410ZM97 137Q97 91 122 65T194 38Q234 38 272 60T361 133L246 341Q173 287 135 240T97 137Z"  />
<glyph unicode="&apos;" horiz-adv-x="186" d="M136 523Q126 523 128 533L151 670Q153 680 162 680H185Q195 680 193 670L170 533Q168 523 159 523H136H136Z"  />
<glyph unicode="(" horiz-adv-x="276" d="M135 -74Q112 -14 100 53T88 190Q88 333 137 468T276 730Q283 740 292 740H311Q316 740 317 738T316 730Q234 604 186 467T137 177Q137 110 146 47T174 -74Q177 -84 166 -84H148Q138 -84 135 -74Z"  />
<glyph unicode=")" horiz-adv-x="276" d="M-4 -74Q78 52 126 189T174 479Q174 546 165 609T138 730Q135 740 145 740H164Q173 740 176 730Q199 670 211 603T223 466Q223 323 175 188T35 -74Q28 -84 20 -84H0Q-11 -84 -4 -74Z"  />
<glyph unicode="*" horiz-adv-x="339" d="M191 404Q181 404 183 414L200 511L111 462Q100 456 97 465L92 480Q89 489 99 493L191 543L118 592Q110 597 116 605L125 618Q130 626 138 620L211 572L228 670Q230 680 240 680H255Q265 680 263 670L245 572L335 622Q345 628 349 619L354 604Q357 596 347 590L257 541L330 493Q338 488 332 479L323 466Q317 458 309 464L235 513L218 414Q216 404 206 404H191H191Z"  />
<glyph unicode="+" horiz-adv-x="510" d="M241 247Q241 253 235 253H77Q67 253 67 263V290Q67 300 77 300H235Q241 300 241 306V467Q241 477 251 477H279Q289 477 289 467V306Q289 300 295 300H453Q463 300 463 290V263Q463 253 453 253H295Q289 253 289 247V86Q289 76 279 76H251Q241 76 241 86V247Z"  />
<glyph unicode="&#x2c;" horiz-adv-x="209" d="M52 75Q54 85 63 85H103Q113 85 111 75L99 2Q97 -6 96 -9T91 -20L42 -97Q37 -105 31 -105Q21 -105 23 -95L52 75H52Z"  />
<glyph unicode="-" horiz-adv-x="356" d="M61 243Q51 243 53 253L58 281Q59 290 69 290H313Q323 290 321 280L317 252Q315 243 305 243H61H61Z"  />
<glyph unicode="." horiz-adv-x="209" d="M47 75Q49 85 58 85H103Q113 85 111 75L101 10Q99 0 90 0H44Q34 0 36 10L47 75Z"  />
<glyph unicode="/" horiz-adv-x="387" d="M358 680Q362 690 372 690H400Q410 690 405 680L72 0Q68 -10 58 -10H30Q20 -10 25 0L358 680Z"  />
<glyph unicode="0" horiz-adv-x="510" d="M66 136Q66 157 70 193T80 271T95 360T113 447T132 521T149 570Q180 635 228 662T336 690Q407 690 446 651T486 544Q486 523 482 487T472 409T457 320T439 233T420 159T403 110Q372 45 324 18T216 -10Q145 -10 106 29T66 136ZM117 143Q117 95 143 67T222 38Q313 38 355 124Q363 139 371 170T389 241T406 325T420 411T430 485T434 537Q434 585 408 613T330 642Q239 642 197 556Q190 541 181 510T163 439T146 355T131 269T121 195T117 143Z"  />
<glyph unicode="1" horiz-adv-x="510" d="M313 612H311L177 523Q172 520 169 522T167 530L173 570Q174 578 182 583L320 674Q325 677 327 678T335 680H364Q375 680 373 670L257 10Q255 0 246 0H215Q204 0 206 10L313 612Z"  />
<glyph unicode="2" horiz-adv-x="510" d="M42 34Q42 41 49 48L346 377Q388 422 408 459T428 537Q428 585 400 613T323 642Q269 642 232 610T176 523Q173 513 164 515L135 521Q127 523 130 533Q139 564 156 592T199 642T256 677T328 690Q363 690 391 679T438 649T468 602T479 544Q479 488 454 443T381 344L112 50V48H383Q394 48 392 38L387 10Q385 0 375 0H46Q38 0 38 9L42 34Z"  />
<glyph unicode="3" horiz-adv-x="510" d="M49 129Q47 139 57 142L87 150Q96 152 97 143Q100 124 106 106T126 72T161 48T215 38Q250 38 279 52T331 90T365 146T377 215Q377 266 348 298T264 331H234Q225 331 227 341L231 370Q234 379 242 379H271Q303 379 331 391T379 425T411 476T423 537Q423 585 396 613T318 642Q289 642 267 634T227 611T197 579T177 542Q174 532 165 534L137 542Q128 544 131 554Q140 580 157 604T199 648T256 678T327 690Q398 690 436 650T474 546Q474 480 441 432T354 358V356Q386 342 407 309T429 224Q429 174 413 132T369 58T300 8T210 -10Q169 -10 140 2T91 33T61 78T49 129Z"  />
<glyph unicode="4" horiz-adv-x="510" d="M45 138Q35 138 37 147L42 174Q43 181 46 186L344 672Q349 680 358 680H392Q402 680 397 671L102 187V186H303Q308 186 310 192L343 380Q345 390 354 390H386Q396 390 394 380L361 192Q359 186 366 186H438Q448 186 446 176L441 147Q439 138 430 138H357Q351 138 350 132L329 10Q327 0 318 0H286Q276 0 278 10L301 132Q302 138 296 138H45H45Z"  />
<glyph unicode="5" horiz-adv-x="510" d="M71 134Q71 143 79 145L109 152Q119 153 119 144Q120 97 145 68T227 38Q268 38 300 57T353 118Q362 135 369 158T381 205T388 252T391 292Q391 344 368 371T293 398Q246 398 212 373T162 314Q158 304 150 304H121Q112 304 113 314L176 670Q178 680 187 680H493Q504 680 502 670L497 642Q495 632 485 632H223Q217 632 216 626L173 385H174Q191 408 224 427T306 446Q371 446 406 411T442 304Q442 285 439 258T431 203T417 146T398 97Q371 41 327 16T221 -10Q184 -10 156 1T109 31T81 76T71 134Z"  />
<glyph unicode="6" horiz-adv-x="510" d="M55 152Q55 200 71 245T126 347L347 673Q350 677 352 678T360 680H395Q400 680 401 677T400 671L200 375L202 374Q232 398 290 398Q360 398 401 355T443 240Q443 191 427 146T382 67T310 11T216 -10Q142 -10 99 32T55 152ZM106 158Q106 104 136 71T221 38Q258 38 289 54T344 96T379 157T392 230Q392 284 361 317T276 350Q238 350 207 334T154 292T119 230T106 158Z"  />
<glyph unicode="7" horiz-adv-x="510" d="M451 630V632H211Q205 632 204 626L187 531Q185 521 176 521H146Q137 521 139 531L163 670Q165 680 174 680H503Q514 680 512 670L506 637Q505 633 501 625L158 9Q153 0 143 0H110Q100 0 106 11L451 630Z"  />
<glyph unicode="8" horiz-adv-x="510" d="M54 145Q54 214 90 272T193 359V361Q164 377 147 407T130 478Q130 518 144 556T184 624T249 672T337 690Q406 690 445 650T484 546Q484 485 453 435T366 359V357Q401 339 422 305T444 223Q444 175 427 133T380 59T308 9T216 -10Q179 -10 149 1T98 33T66 81T54 145ZM284 382Q316 382 343 394T391 428T422 477T434 539Q434 584 407 613T330 642Q298 642 271 630T223 596T192 547T180 485Q180 440 208 411T284 382ZM104 155Q104 103 135 71T223 38Q258 38 289 52T343 90T380 146T394 217Q394 268 363 301T275 334Q240 334 209 320T155 282T118 225T104 155Z"  />
<glyph unicode="9" horiz-adv-x="510" d="M350 305L348 306Q318 282 261 282Q226 282 198 293T149 326T118 377T107 443Q107 490 122 534T167 613T239 669T335 690Q408 690 452 648T496 528Q496 480 479 434T425 333L204 7Q198 0 190 0H155Q150 0 149 3T150 9L350 305ZM274 330Q312 330 343 346T397 388T432 449T445 521Q445 576 415 609T330 642Q292 642 261 626T207 584T172 523T159 451Q159 396 189 363T274 330Z"  />
<glyph unicode=":" horiz-adv-x="209" d="M114 392Q104 392 106 402L116 466Q118 476 127 476H173Q183 476 181 466L171 402Q169 392 160 392H114ZM47 75Q49 85 58 85H103Q113 85 111 75L101 10Q99 0 90 0H44Q34 0 36 10L47 75Z"  />
<glyph unicode=";" horiz-adv-x="209" d="M114 392Q104 392 106 402L116 466Q118 476 127 476H173Q183 476 181 466L171 402Q169 392 160 392H114ZM50 75Q52 85 61 85H101Q111 85 109 75L97 2Q95 -6 94 -9T89 -20L40 -97Q35 -105 28 -105Q19 -105 21 -95L50 75Z"  />
<glyph unicode="&lt;" horiz-adv-x="510" d="M73 252Q63 256 63 264V288Q63 296 73 300L449 454Q459 457 459 448V415Q459 406 449 402L130 277V275L449 150Q459 146 459 137V104Q459 95 449 98L73 252H73Z"  />
<glyph unicode="=" horiz-adv-x="510" d="M77 349Q67 349 67 359V387Q67 397 77 397H453Q463 397 463 387V359Q463 349 453 349H77ZM77 155Q67 155 67 165V193Q67 203 77 203H453Q463 203 463 193V165Q463 155 453 155H77Z"  />
<glyph unicode="&gt;" horiz-adv-x="510" d="M67 137Q67 146 77 150L395 275V277L77 402Q67 406 67 415V448Q67 457 77 454L453 300Q463 296 463 288V264Q463 256 453 252L77 98Q67 95 67 104V137Z"  />
<glyph unicode="?" horiz-adv-x="428" d="M190 173Q180 173 182 183L190 223Q195 254 205 276T239 322L303 394Q327 419 343 439T369 477T384 512T389 548Q389 593 363 617T293 642Q244 642 208 612T152 528Q149 519 140 520L110 525Q101 526 105 537Q127 607 178 648T301 690Q367 690 403 653T440 555Q440 512 419 471T352 380L288 307Q276 294 268 284T255 265T246 245T240 219L232 183Q230 173 221 173H190ZM159 75Q161 85 170 85H215Q225 85 223 75L213 10Q211 0 202 0H156Q146 0 148 10L159 75Z"  />
<glyph unicode="@" horiz-adv-x="879" d="M56 195Q56 297 88 382T178 529T318 625T501 659Q573 659 633 637T736 574T803 474T827 343Q827 287 816 235T782 144T723 80T637 56Q599 56 572 77T538 136H537Q488 56 391 56Q338 57 305 90T271 186Q271 205 273 228T280 276T292 324T309 368Q334 419 372 443T460 467Q508 467 533 449T567 405H569L576 448Q578 458 587 458H613Q623 458 621 448L578 203Q573 176 576 157T589 124T613 105T644 99Q681 99 707 121T750 177T774 254T782 336Q782 403 762 455T703 543T612 598T493 617Q406 617 334 587T211 501T130 369T101 199Q101 133 121 81T179 -7T270 -63T389 -83Q461 -83 508 -69T598 -34Q607 -30 610 -38L618 -62Q621 -70 612 -74Q565 -99 511 -113T382 -127Q309 -127 249 -105T146 -40T80 61T56 195ZM316 193Q316 151 336 126T401 99Q439 99 469 117T517 173Q525 188 531 208T542 250T549 293T552 331Q552 373 532 398T466 425Q428 425 398 407T350 351Q342 336 336 316T326 274T319 231T316 193Z"  />
<glyph unicode="A" horiz-adv-x="575" d="M1 0Q-9 0 -4 10L342 670Q347 680 355 680H387Q395 680 397 670L507 10Q509 0 498 0H466Q456 0 455 10L427 180H142L53 10Q48 0 39 0H1ZM419 230L360 593H358L168 230H419Z"  />
<glyph unicode="B" horiz-adv-x="583" d="M170 670Q172 680 181 680H398Q478 680 520 643T562 537Q562 465 527 417T429 350V348Q443 344 458 335T486 309T507 271T516 220Q516 118 456 59T281 0H62Q52 0 54 10L170 670ZM345 371Q383 371 413 383T465 415T497 464T508 526Q508 575 479 602T391 630H222Q216 630 215 624L172 377Q170 371 176 371H345ZM115 56Q113 50 119 50H292Q333 50 365 62T419 95T452 147T464 212Q464 262 434 291T341 321H168Q162 321 161 315L115 56Z"  />
<glyph unicode="C" horiz-adv-x="537" d="M64 183Q64 202 66 230T74 292T85 360T100 429T117 491T136 540Q174 618 229 654T363 690Q425 690 471 657T537 559Q540 551 532 548L504 535Q494 530 491 539Q473 588 441 613T357 639Q298 639 256 611T185 523Q171 495 159 450T138 355T123 261T117 189Q117 119 152 80T257 41Q312 41 352 67T424 140Q429 147 436 144L464 128Q471 124 466 115Q424 49 371 20T249 -10Q163 -10 114 39T64 183Z"  />
<glyph unicode="D" horiz-adv-x="604" d="M170 670Q172 680 181 680H386Q476 680 523 636T570 502Q570 470 564 420T548 315T524 212T495 131Q460 59 405 30T267 0H62Q52 0 54 10L170 670ZM115 57Q113 51 119 51H266Q335 51 379 76T450 156Q463 182 475 226T496 320T512 416T518 493Q518 564 482 596T369 629H222Q216 629 215 623L115 57Z"  />
<glyph unicode="E" horiz-adv-x="535" d="M170 670Q172 680 181 680H554Q564 680 562 670L557 639Q556 629 545 629H222Q216 629 215 623L172 377Q171 370 177 370H454Q464 370 462 360L457 330Q456 320 445 320H168Q162 320 161 314L115 57Q113 51 120 51H443Q453 51 451 41L446 10Q445 0 434 0H62Q52 0 54 10L170 670Z"  />
<glyph unicode="F" horiz-adv-x="528" d="M170 670Q172 680 181 680H554Q564 680 562 670L557 639Q556 629 545 629H222Q216 629 215 623L170 370Q170 363 176 363H453Q463 363 461 353L456 323Q455 313 444 313H167Q161 313 160 307L107 10Q105 0 96 0H62Q52 0 54 10L170 670Z"  />
<glyph unicode="G" horiz-adv-x="584" d="M65 183Q65 211 71 260T86 361T109 462T137 540Q175 618 232 654T375 690Q438 690 488 658T557 564Q558 555 551 552L522 539Q513 536 511 543Q492 593 455 616T366 639Q304 639 259 610T186 523Q172 495 160 450T139 355T124 261T118 189Q118 118 154 80T260 41Q320 41 365 68T440 156Q452 180 462 213T480 289Q481 295 475 295H326Q316 295 318 305L323 335Q324 344 333 344H533Q542 344 540 334L533 293Q526 251 514 209T490 140Q452 61 394 26T252 -10Q165 -10 115 39T65 183Z"  />
<glyph unicode="H" horiz-adv-x="624" d="M170 670Q172 680 181 680H215Q225 680 223 670L171 376Q169 370 176 370H501Q506 370 508 376L560 670Q562 680 571 680H605Q615 680 613 670L497 10Q495 0 486 0H452Q442 0 444 10L497 314Q498 320 493 320H168Q162 320 161 314L107 10Q105 0 96 0H62Q52 0 54 10L170 670Z"  />
<glyph unicode="I" horiz-adv-x="234" d="M170 670Q172 680 181 680H215Q225 680 223 670L107 10Q105 0 96 0H62Q52 0 54 10L170 670Z"  />
<glyph unicode="J" horiz-adv-x="459" d="M11 48Q9 50 9 54T13 62L38 82Q46 88 53 81Q73 64 97 53T150 41Q212 41 255 78T314 203L396 670Q398 680 407 680H441Q451 680 449 670L366 201Q355 142 336 102T288 37T224 1T145 -10Q105 -10 69 7T11 48Z"  />
<glyph unicode="K" horiz-adv-x="574" d="M170 670Q172 680 181 680H215Q225 680 223 670L155 282L534 671Q544 680 553 680H596Q600 680 601 677T599 669L343 410L494 11Q498 0 487 0H452Q443 0 440 9L305 369L140 201L107 10Q105 0 96 0H62Q52 0 54 10L170 670Z"  />
<glyph unicode="L" horiz-adv-x="507" d="M170 670Q172 680 181 680H215Q225 680 223 670L115 57Q113 51 119 51H443Q453 51 451 41L446 10Q444 0 435 0H62Q52 0 54 10L170 670Z"  />
<glyph unicode="M" horiz-adv-x="725" d="M170 670Q172 680 181 680H211Q220 680 223 670L351 176H354L656 670Q662 680 670 680H706Q716 680 714 670L598 10Q596 0 587 0H556Q546 0 548 10L644 550H641L370 112Q366 105 363 103T352 101H333Q321 101 318 112L203 552H200L104 10Q102 0 93 0H62Q52 0 54 10L170 670Z"  />
<glyph unicode="N" horiz-adv-x="625" d="M170 670Q172 680 181 680H213Q222 680 226 670L460 103H462L564 670Q566 680 575 680H606Q616 680 614 670L498 10Q496 0 487 0H456Q446 0 442 10L207 578H205L104 10Q102 0 93 0H62Q52 0 54 10L170 670Z"  />
<glyph unicode="O" horiz-adv-x="586" d="M251 -10Q163 -10 114 39T65 183Q65 211 71 260T86 361T109 462T137 540Q175 618 232 654T374 690Q462 690 511 641T560 497Q560 478 558 450T550 388T539 319T524 250T507 188T488 140Q450 62 393 26T251 -10ZM259 41Q322 41 366 70T439 157Q452 185 464 230T486 325T501 419T507 491Q507 562 471 600T366 639Q303 639 259 610T186 523Q172 495 160 450T139 355T124 261T118 189Q118 118 154 80T259 41Z"  />
<glyph unicode="P" horiz-adv-x="561" d="M62 0Q52 0 54 10L170 670Q172 680 181 680H399Q481 680 525 641T569 530Q569 474 552 431T503 357T428 312T332 296H164Q157 296 157 290L107 10Q105 0 96 0H62ZM336 347Q417 348 467 393T517 523Q517 574 485 601T389 629H222Q216 629 215 623L167 353Q165 347 172 347H336Z"  />
<glyph unicode="Q" horiz-adv-x="587" d="M452 -43Q443 -48 439 -41L398 30Q339 -10 251 -10Q163 -10 114 39T65 183Q65 211 71 260T86 361T109 462T137 540Q175 618 232 654T374 690Q462 690 511 641T560 497Q560 478 558 450T550 388T539 319T524 250T507 188T488 140Q477 117 464 98T436 62L479 -14Q484 -22 474 -27L452 -43ZM259 41Q326 41 372 75L318 170Q315 178 323 184L345 199Q353 206 359 197L409 109Q425 130 439 157Q452 185 464 230T486 325T501 419T507 491Q507 562 471 600T366 639Q303 639 259 610T186 523Q172 495 160 450T139 355T124 261T118 189Q118 118 154 80T259 41Z"  />
<glyph unicode="R" horiz-adv-x="591" d="M443 0Q435 0 432 9L345 306H334H166Q159 306 159 300L107 10Q105 0 96 0H62Q52 0 54 10L170 670Q172 680 181 680H399Q480 680 524 641T569 529Q569 442 523 386T396 312L485 11Q490 0 479 0H443ZM341 357Q425 357 470 402T516 523Q516 576 484 602T390 629H222Q216 629 215 623L169 363Q167 357 174 357H341Z"  />
<glyph unicode="S" horiz-adv-x="572" d="M240 -10Q209 -10 179 -4T121 14T73 39T37 69Q32 75 38 82L61 108Q68 115 75 109Q114 76 156 59T253 41Q297 41 333 53T395 87T435 139T449 207Q449 231 443 249T421 280T381 303T318 317L289 321Q128 345 128 477Q128 524 144 563T191 631T265 674T360 690Q414 690 461 674T539 631Q546 625 540 617L523 594Q516 584 506 591Q437 639 352 639Q314 639 283 627T230 594T195 545T183 484Q183 436 211 409T316 371L345 367Q430 355 466 317T503 215Q503 164 485 122T433 51T350 6T240 -10Z"  />
<glyph unicode="T" horiz-adv-x="501" d="M196 0Q186 0 188 10L296 623Q297 629 292 629H103Q94 629 96 639L101 670Q103 680 112 680H553Q563 680 561 670L555 639Q553 629 544 629H355Q350 629 349 623L240 10Q238 0 229 0H196Z"  />
<glyph unicode="U" horiz-adv-x="610" d="M276 -10Q223 -10 183 5T119 52T86 129T88 236L164 670Q166 680 175 680H209Q219 680 217 670L140 234Q123 137 159 89T280 41Q320 41 352 51T409 83T449 143T476 234L553 670Q555 680 564 680H597Q607 680 605 670L528 231Q517 165 496 120T444 45T371 3T276 -10Z"  />
<glyph unicode="V" horiz-adv-x="539" d="M216 0Q209 0 207 10L105 666Q102 680 114 680H145Q156 680 157 669L245 91H247L536 670Q541 680 552 680H585Q590 680 592 677T590 666L259 10Q253 0 246 0H216Z"  />
<glyph unicode="W" horiz-adv-x="788" d="M522 0Q513 0 512 10L459 575H457L202 10Q198 0 188 0H161Q152 0 151 10L112 669Q112 680 122 680H153Q164 680 164 669L193 107H195L447 670Q451 680 461 680H486Q496 680 497 670L550 107H552L780 670Q784 680 794 680H828Q840 680 835 669L563 10Q559 0 550 0H522Z"  />
<glyph unicode="X" horiz-adv-x="523" d="M409 0Q401 0 398 9L281 302H280L57 9Q51 0 45 0H1Q-10 0 -3 11L258 357L135 669Q133 674 134 677T141 680H180Q188 680 191 671L294 411H295L491 671Q497 680 505 680H546Q557 680 550 669L317 356L453 11Q458 0 447 0H409Z"  />
<glyph unicode="Y" horiz-adv-x="496" d="M193 0Q183 0 185 10L232 279L106 669Q102 680 114 680H146Q156 680 159 670L266 343H269L493 670Q499 680 509 680H543Q549 680 550 677T549 669L285 279L237 10Q235 0 226 0H193Z"  />
<glyph unicode="Z" horiz-adv-x="518" d="M23 0Q13 0 15 10L20 42Q21 49 28 56L476 628V629H147Q137 629 139 639L144 670Q146 680 155 680H539Q549 680 547 670L542 640Q541 633 535 626L85 52V51H428Q438 51 436 41L431 10Q430 0 419 0H23Z"  />
<glyph unicode="[" horiz-adv-x="272" d="M54 -84Q44 -84 46 -74L188 730Q190 740 199 740H311Q321 740 319 730L315 705Q313 695 304 695H236Q230 695 229 689L101 -33Q99 -39 106 -39H174Q184 -39 182 -49L178 -74Q177 -84 166 -84H54Z"  />
<glyph unicode="\" horiz-adv-x="387" d="M246 -10Q236 -10 235 0L143 680Q143 690 151 690H178Q188 690 189 680L281 0Q283 -10 273 -10H246Z"  />
<glyph unicode="]" horiz-adv-x="272" d="M-1 -84Q-12 -84 -10 -74L-5 -49Q-3 -39 6 -39H74Q79 -39 81 -33L209 689Q210 695 204 695H136Q126 695 128 705L132 730Q133 740 144 740H256Q266 740 264 730L122 -74Q120 -84 111 -84H-1Z"  />
<glyph unicode="^" horiz-adv-x="510" d="M428 283Q419 283 415 293L266 616H264L115 293Q111 283 101 283H75Q70 283 68 285T68 293L241 670Q246 680 255 680H275Q284 680 289 670L462 293Q464 288 462 286T455 283H428Z"  />
<glyph unicode="_" horiz-adv-x="441" d="M-59 -122L-52 -83H387L380 -122H-59Z"  />
<glyph unicode="`" horiz-adv-x="406" d="M326 558Q320 558 318 560T311 568L249 690Q247 694 249 697T256 700H287Q293 700 295 698T300 690L353 568Q355 563 353 561T346 558H326Z"  />
<glyph unicode="a" horiz-adv-x="492" d="M332 0Q322 0 324 10L333 60H332Q312 30 273 10T177 -10Q115 -10 81 21T46 107Q46 188 97 229T246 270H362Q368 270 370 276L379 328Q385 358 384 379T371 414T338 434T281 440Q241 440 211 430T159 402Q149 394 144 404L131 426Q127 433 134 439Q163 462 202 474T292 487Q378 487 411 452T429 330L372 10Q370 0 361 0H332ZM195 35Q225 35 250 43T296 66T330 101T347 147L360 221Q361 227 356 227H247Q166 227 131 197T96 113Q96 77 120 56T195 35Z"  />
<glyph unicode="b" horiz-adv-x="509" d="M241 -10Q187 -10 157 13T114 71H113L102 10Q100 0 92 0H60Q50 0 52 10L168 670Q170 680 179 680H211Q221 680 219 670L173 409H174Q197 442 233 464T326 487Q395 487 429 446T464 332Q464 303 460 270T449 206T433 147T415 102Q362 -10 241 -10ZM238 38Q284 38 317 60T371 125Q380 144 388 170T401 223T410 276T413 324Q413 376 390 407T309 439Q267 439 231 417T171 346Q165 335 159 310T146 256T136 198T132 149Q132 99 158 69T238 38Z"  />
<glyph unicode="c" horiz-adv-x="449" d="M201 -10Q127 -10 89 32T51 152Q51 201 62 259T96 364Q125 424 174 455T286 487Q340 487 374 464T424 395Q427 385 420 381L395 367Q385 361 382 371Q368 406 345 422T281 439Q241 439 204 416T144 347Q133 324 125 299T112 248T105 200T102 161Q102 102 126 70T208 38Q243 38 275 53T337 107Q344 116 352 109L372 91Q379 85 372 76Q340 34 297 12T201 -10Z"  />
<glyph unicode="d" horiz-adv-x="509" d="M340 0Q330 0 332 10L342 67H341Q318 35 282 13T190 -10Q121 -10 86 31T51 145Q51 173 55 206T67 270T82 329T100 375Q155 487 274 487Q328 487 358 463T401 406H402L448 670Q450 680 459 680H490Q501 680 499 670L383 10Q381 0 372 0H340ZM206 38Q248 38 284 60T344 130Q350 141 356 166T369 220T379 279T383 328Q383 378 357 408T277 439Q231 439 198 416T144 351Q135 332 127 307T114 254T105 201T102 153Q102 101 125 70T206 38Z"  />
<glyph unicode="e" horiz-adv-x="476" d="M206 -10Q130 -10 91 32T51 149Q51 175 53 203T61 260T75 314T95 364Q124 424 172 455T286 487Q351 487 392 448T434 330Q434 313 432 292T424 237Q422 227 412 227H113Q107 227 106 221Q101 201 101 187T100 155Q100 98 128 68T213 38Q258 38 293 56T354 102Q361 109 368 104L385 85Q391 77 384 70Q352 35 308 13T206 -10ZM373 270Q378 270 380 276Q383 290 384 303T386 327Q386 384 359 412T280 440Q235 440 199 418T141 350Q133 335 127 316T117 276Q115 270 121 270H373Z"  />
<glyph unicode="f" horiz-adv-x="295" d="M74 0Q65 0 67 10L141 427Q142 433 136 433H87Q78 433 80 443L84 467Q86 477 95 477H144Q149 477 151 483L161 537Q168 579 179 606T209 650T252 673T312 680H338Q348 680 346 670L342 642Q341 632 330 632H310Q285 632 269 629T241 616T224 588T212 542L201 483Q199 477 205 477H302Q313 477 311 467L307 443Q306 433 295 433H198Q193 433 192 427L117 10Q115 0 107 0H74Z"  />
<glyph unicode="g" horiz-adv-x="501" d="M164 -190Q119 -190 82 -171T24 -117Q18 -108 27 -102L50 -84Q59 -80 64 -87Q82 -113 107 -127T170 -142Q231 -142 271 -106T325 10L336 73H335Q312 37 277 17T189 -3Q121 -3 87 37T52 147Q52 169 55 198T64 259T79 319T100 373Q155 487 272 487Q324 487 353 464T394 406H395L405 467Q407 477 417 477H447Q457 477 455 467L375 11Q355 -100 302 -145T164 -190ZM206 45Q244 45 277 65T334 130Q343 146 350 173T363 228T372 284T376 328Q376 377 351 408T274 439Q189 439 146 352Q125 310 114 256T103 156Q103 105 127 75T206 45Z"  />
<glyph unicode="h" horiz-adv-x="519" d="M355 0Q346 0 348 10L399 292Q412 367 389 403T304 439Q279 439 255 430T210 403T175 360T154 304L102 10Q100 0 92 0H59Q50 0 52 10L168 670Q170 680 179 680H211Q221 680 219 670L173 412H174Q198 447 236 467T323 487Q400 487 433 440T452 305L398 10Q396 0 387 0H355Z"  />
<glyph unicode="i" horiz-adv-x="228" d="M162 607Q152 607 154 617L164 670Q166 680 175 680H216Q226 680 224 670L214 617Q213 607 203 607H162ZM60 0Q50 0 52 10L132 467Q134 477 143 477H175Q185 477 183 467L102 10Q100 0 92 0H60Z"  />
<glyph unicode="j" horiz-adv-x="228" d="M162 607Q152 607 154 617L164 670Q166 680 175 680H216Q226 680 224 670L214 617Q213 607 203 607H162ZM-58 -180Q-68 -180 -66 -170L-62 -142Q-61 -132 -50 -132H-42Q-3 -132 14 -117T40 -56L132 467Q134 477 143 477H175Q185 477 183 467L91 -56Q85 -93 75 -117T48 -155T9 -174T-48 -180H-58Z"  />
<glyph unicode="k" horiz-adv-x="480" d="M363 0Q354 0 349 10L246 263L125 138L102 10Q100 0 91 0H59Q50 0 52 10L168 670Q170 680 179 680H211Q221 680 219 670L138 216L387 467Q397 477 405 477H446Q451 477 452 474T449 467L284 299L403 10Q405 6 403 3T395 0H363Z"  />
<glyph unicode="l" horiz-adv-x="250" d="M142 -3Q91 -3 75 23T68 106L171 670Q173 680 181 680H213Q223 680 221 670L118 107Q112 72 120 59T156 45H172Q182 45 180 35L176 7Q175 -3 164 -3H142Z"  />
<glyph unicode="m" horiz-adv-x="815" d="M653 0Q643 0 645 10L696 292Q709 367 686 403T601 439Q576 439 552 430T507 403T472 361T451 304L399 10Q397 0 388 0H357Q347 0 349 10L398 292Q425 439 304 439Q279 439 255 430T210 403T175 360T155 304L102 10Q100 0 92 0H60Q50 0 52 10L133 467Q135 477 144 477H175Q185 477 183 467L173 412H174Q198 447 236 467T323 487Q377 487 408 464T449 398H450Q476 438 518 462T617 487Q696 487 729 440T748 305L695 10Q693 0 684 0H653Z"  />
<glyph unicode="n" horiz-adv-x="519" d="M355 0Q346 0 348 10L399 292Q412 367 389 403T304 439Q279 439 255 430T210 403T175 360T154 304L102 10Q100 0 92 0H59Q50 0 52 10L132 467Q134 477 143 477H175Q185 477 183 467L173 412H174Q198 447 236 467T323 487Q400 487 433 440T452 305L398 10Q396 0 387 0H355Z"  />
<glyph unicode="o" horiz-adv-x="486" d="M98 369Q127 431 175 459T289 487Q365 487 403 444T442 326Q442 300 438 269T427 208T412 152T395 108Q366 46 318 18T204 -10Q128 -10 90 33T51 151Q51 177 55 208T66 269T81 325T98 369ZM391 316Q391 376 366 407T281 439Q188 439 143 348Q136 334 129 311T116 262T106 209T102 161Q102 101 127 70T212 38Q305 38 350 129Q357 142 364 165T377 215T387 268T391 316Z"  />
<glyph unicode="p" horiz-adv-x="509" d="M28 -180Q18 -180 20 -170L132 467Q134 477 143 477H175Q185 477 183 467L173 409H174Q197 442 233 464T326 487Q395 487 429 446T464 332Q464 303 460 270T449 206T433 147T415 102Q362 -10 241 -10Q187 -10 157 13T114 71H113L71 -170Q69 -180 60 -180H28ZM238 38Q284 38 317 60T371 125Q380 144 388 170T401 223T410 276T413 324Q413 376 390 407T309 439Q267 439 231 417T171 346Q165 335 159 310T146 256T136 198T132 149Q132 99 158 69T238 38Z"  />
<glyph unicode="q" horiz-adv-x="509" d="M308 -180Q298 -180 300 -170L342 65H341Q318 33 282 12T190 -10Q121 -10 86 30T51 145Q51 173 55 206T67 270T83 329T101 375Q156 487 275 487Q329 487 359 465T401 407H402L413 467Q415 477 424 477H455Q466 477 464 467L351 -170Q349 -180 340 -180H308ZM207 38Q249 38 284 60T345 130Q350 141 356 166T369 220T379 279T383 328Q383 378 358 408T278 439Q233 439 200 416T145 351Q136 332 128 307T114 254T105 201T102 153Q102 101 125 70T207 38Z"  />
<glyph unicode="r" horiz-adv-x="381" d="M60 0Q50 0 52 10L132 467Q134 477 143 477H175Q185 477 183 467L172 406H173Q192 442 226 464T309 487Q336 487 359 478T396 454Q401 447 396 441L375 416Q368 410 361 415Q346 426 330 432T291 439Q261 439 237 426T196 390T167 337T149 275L102 10Q100 0 92 0H60Z"  />
<glyph unicode="s" horiz-adv-x="462" d="M197 -10Q166 -10 140 -4T92 12T54 33T26 57Q20 63 27 70L50 92Q57 98 63 92Q87 70 120 54T202 37Q235 37 261 46T306 70T335 106T345 151Q345 181 326 197T259 218L213 223Q94 236 94 331Q94 366 107 394T145 443T204 475T279 487Q321 487 360 473T424 441Q429 435 425 428L406 407Q401 398 391 404Q371 417 340 428T273 440Q215 440 180 411T145 338Q145 308 165 292T236 270L282 265Q341 259 368 233T396 161Q396 122 382 91T342 37T280 2T197 -10Z"  />
<glyph unicode="t" horiz-adv-x="295" d="M179 -3Q116 -3 94 25T83 125L140 427Q141 433 135 433H87Q77 433 79 443L83 467Q85 477 94 477H143Q149 477 151 483L174 620Q176 630 185 630H217Q227 630 225 620L201 483Q199 477 205 477H291Q301 477 299 467L295 443Q294 433 284 433H198Q192 433 191 427L134 129Q125 78 138 62T194 45H211Q221 45 219 35L215 7Q214 -3 203 -3H179Z"  />
<glyph unicode="u" horiz-adv-x="513" d="M169 477Q178 477 176 467L125 184Q100 38 217 38Q241 38 265 47T310 74T345 117T365 173L417 467Q419 477 428 477H460Q470 477 468 467L387 10Q385 0 376 0H345Q335 0 337 10L347 65H346Q320 30 283 10T199 -10Q124 -10 91 36T73 171L126 467Q128 477 137 477H169Z"  />
<glyph unicode="v" horiz-adv-x="449" d="M170 0Q163 0 161 10L75 467Q73 477 83 477H115Q125 477 126 467L196 80H198L404 467Q410 477 418 477H453Q464 477 459 467L212 10Q207 0 200 0H170Z"  />
<glyph unicode="w" horiz-adv-x="706" d="M447 0Q437 0 437 10L385 398H384L193 10Q189 0 180 0H153Q143 0 143 10L80 467Q78 477 89 477H118Q129 477 130 467L179 80H180L368 467Q373 477 381 477H407Q416 477 418 467L472 80H473L657 467Q663 477 671 477H704Q715 477 710 467L487 10Q481 0 474 0H447Z"  />
<glyph unicode="x" horiz-adv-x="442" d="M328 0Q320 0 316 8L223 206H222L57 8Q50 0 43 0H4Q-1 0 -2 3T0 10L200 250L97 467Q93 477 104 477H139Q147 477 151 469L233 294H234L380 469Q387 477 394 477H432Q437 477 438 474T436 467L256 248L369 10Q373 0 362 0H328Z"  />
<glyph unicode="y" horiz-adv-x="449" d="M8 -180Q-2 -180 0 -170L4 -142Q5 -132 16 -132H33Q48 -132 60 -128T85 -114T109 -85T137 -39L164 10L75 467Q73 477 83 477H116Q126 477 127 467L198 80H199L406 467Q410 477 419 477H454Q465 477 460 467L182 -47Q160 -88 141 -114T104 -154T68 -174T27 -180H8Z"  />
<glyph unicode="z" horiz-adv-x="447" d="M27 0Q17 0 19 10L23 37Q25 43 30 50L367 428V429H114Q104 429 106 439L111 467Q113 477 122 477H429Q439 477 437 467L433 439Q432 434 425 425L89 49V48H354Q364 48 362 38L357 10Q355 0 346 0H27Z"  />
<glyph unicode="{" horiz-adv-x="304" d="M168 -84Q123 -84 106 -60T98 19L133 222Q141 269 130 286T95 306Q86 308 87 316L92 345Q93 354 103 354Q129 356 145 372T171 439L207 639Q217 693 242 716T312 740H343Q353 740 351 730L347 706Q346 696 336 696H313Q289 696 274 682T254 636L220 444Q215 415 209 396T194 364T176 343T151 330V328Q174 316 181 290T180 215L145 18Q139 -15 147 -27T181 -40H205Q215 -40 213 -50L209 -74Q208 -84 198 -84H168Z"  />
<glyph unicode="|" horiz-adv-x="236" d="M125 -84Q115 -84 115 -74V730Q115 740 125 740H150Q160 740 160 730V-74Q160 -84 150 -84H125Z"  />
<glyph unicode="}" horiz-adv-x="304" d="M-1 -84Q-11 -84 -9 -74L-5 -50Q-4 -40 6 -40H29Q54 -40 68 -26T89 20L123 216Q128 245 134 264T149 297T167 317T192 331V332Q169 344 162 370T164 446L197 638Q203 671 195 683T161 696H137Q127 696 129 706L133 730Q134 740 144 740H174Q220 740 237 716T245 637L210 439Q202 392 213 374T248 354Q258 354 256 344L252 315Q250 306 240 306Q214 305 198 288T172 222L135 17Q126 -37 101 -60T30 -84H-1Z"  />
<glyph unicode="~" horiz-adv-x="510" d="M340 218Q309 218 286 230T243 257Q226 269 208 279T168 289Q142 289 124 276T86 232Q81 224 73 229L55 241Q48 245 52 255Q71 292 101 312T170 333Q201 333 224 321T267 294Q284 282 302 273T342 263Q368 263 386 276T423 319Q428 327 437 322L454 311Q462 306 457 297Q439 260 409 239T340 218Z"  />
<glyph unicode="&#xA0;" horiz-adv-x="236" />
<glyph unicode="&#xA4;" horiz-adv-x="510" d="M427 110Q420 103 414 110L363 173Q337 155 307 145T243 135Q178 135 137 174L63 109Q56 103 50 109L34 130Q29 137 36 144L110 209Q92 242 92 287Q92 333 107 373T152 445L104 507Q97 514 105 520L125 539Q133 545 138 539L188 476Q214 493 243 503T307 513Q339 513 365 503T412 474L487 540Q494 546 500 540L516 518Q522 512 514 505L439 439Q458 403 458 361Q458 315 443 275T399 204L449 141Q454 134 447 128L427 110ZM247 179Q282 179 312 193T365 231T401 287T414 355Q414 406 384 437T303 469Q268 469 238 455T186 417T150 361T137 293Q137 242 166 211T247 179Z"  />
<glyph unicode="&#xA6;" horiz-adv-x="236" d="M125 388Q115 388 115 398V730Q115 740 125 740H150Q160 740 160 730V398Q160 388 150 388H125ZM125 -84Q115 -84 115 -74V262Q115 272 125 272H150Q160 272 160 262V-74Q160 -84 150 -84H125Z"  />
<glyph unicode="&#xA7;" horiz-adv-x="505" d="M180 -192Q107 -192 76 -152T53 -46Q55 -35 62 -34L92 -28Q100 -27 100 -36Q93 -86 111 -116T187 -147Q241 -147 276 -112T311 -19Q311 19 286 41T196 78Q140 90 115 123T89 208Q89 244 98 278T125 339T169 387T229 417V418Q197 432 181 458T165 516Q165 553 177 585T211 641T266 678T339 692Q404 692 435 655T459 557Q458 548 449 547L420 541Q410 540 412 548Q418 591 399 619T331 647Q277 647 246 612T214 524Q214 488 238 465T321 428Q428 403 428 297Q428 262 420 229T394 168T351 120T293 89V88Q326 75 342 50T359 -11Q359 -50 346 -83T309 -141T252 -178T180 -192ZM236 121Q269 121 295 134T340 170T369 223T379 288Q379 335 353 359T281 384Q248 384 222 371T177 335T148 282T138 217Q138 171 164 146T236 121Z"  />
<glyph unicode="&#xA8;" horiz-adv-x="404" d="M349 607Q339 607 341 617L350 670Q352 680 361 680H398Q408 680 406 670L397 617Q395 607 386 607H349ZM157 607Q147 607 149 617L158 670Q160 680 169 680H206Q216 680 214 670L205 617Q203 607 194 607H157Z"  />
<glyph unicode="&#xA9;" horiz-adv-x="831" d="M437 -10Q362 -10 298 16T187 90T114 201T87 340Q87 415 113 479T187 590T298 663T437 690Q512 690 576 664T687 590T760 479T787 340Q787 265 761 201T687 90T576 17T437 -10ZM437 30Q503 30 559 53T657 118T721 216T745 340Q745 407 722 463T657 561T560 626T437 650Q371 650 314 627T216 562T152 464T128 340Q128 273 151 217T216 119T314 54T437 30ZM444 144Q391 144 354 169T301 245Q296 262 293 282T290 340Q290 378 293 398T301 435Q317 485 354 510T444 536Q490 536 523 516T574 466Q579 458 570 453L555 439Q547 434 542 442Q525 467 503 481T444 496Q365 496 340 423Q335 409 334 392T332 340Q332 306 333 289T340 257Q365 184 444 184Q481 184 503 198T542 238Q547 246 555 241L570 227Q579 222 574 214Q556 185 523 165T444 144Z"  />
<glyph unicode="&#xAB;" horiz-adv-x="490" d="M248 257Q243 265 250 271L444 444Q447 447 450 446T453 440L447 398Q444 388 437 379L307 265Q302 261 305 257L393 143Q400 135 397 124L392 87Q391 82 388 82T381 84L248 257ZM56 257Q50 265 58 271L251 444Q254 447 257 446T260 440L254 398Q251 388 244 379L114 265Q109 261 112 257L200 143Q206 135 205 124L199 87Q198 82 195 82T188 84L56 257Z"  />
<glyph unicode="&#xAC;" horiz-adv-x="510" d="M416 119Q406 119 406 129V247Q406 253 400 253H67Q57 253 57 263V290Q57 300 67 300H443Q453 300 453 290V129Q453 119 443 119H416Z"  />
<glyph unicode="&#xAD;" horiz-adv-x="358" d="M61 242Q51 242 53 252L58 282Q59 291 69 291H314Q324 291 322 281L316 250Q315 242 305 242H61Z"  />
<glyph unicode="&#xAE;" horiz-adv-x="461" d="M277 300Q236 300 201 314T139 355T99 416T84 493Q84 534 98 569T139 630T200 670T277 685Q318 685 353 671T414 630T454 569T469 493Q469 452 455 417T414 355T353 315T277 300ZM277 329Q311 329 341 341T392 375T426 427T439 493Q439 528 427 558T393 609T341 643T277 656Q242 656 212 644T160 610T126 558T114 493Q114 457 126 427T160 376T212 342T277 329ZM213 386Q204 386 204 395V593Q204 602 213 602H292Q324 602 342 585T360 539Q360 517 350 502T318 480L360 396Q363 391 361 389T354 386H337Q333 386 331 388T327 393L285 476H240Q237 476 237 474V395Q237 386 228 386H213ZM291 506Q329 506 329 539Q329 573 291 573H240Q237 573 237 571V508Q237 506 240 506H291Z"  />
<glyph unicode="&#xB0;" horiz-adv-x="450" d="M276 401Q245 401 219 412T174 442T144 487T133 544Q133 575 144 601T174 646T219 676T276 687Q307 687 333 676T378 646T407 601T418 544Q418 513 408 487T378 442T333 412T276 401ZM276 439Q321 439 350 469T380 544Q380 589 351 619T276 649Q230 649 201 619T172 544Q172 499 201 469T276 439Z"  />
<glyph unicode="&#xB1;" horiz-adv-x="510" d="M245 107Q235 107 235 117V277Q235 283 229 283H71Q61 283 61 293V321Q61 331 71 331H229Q235 331 235 337V497Q235 507 245 507H273Q283 507 283 497V337Q283 331 289 331H447Q457 331 457 321V293Q457 283 447 283H289Q283 283 283 277V117Q283 107 273 107H245ZM71 0Q61 0 61 10V38Q61 48 71 48H447Q457 48 457 38V10Q457 0 447 0H71Z"  />
<glyph unicode="&#xB4;" horiz-adv-x="404" d="M202 558Q191 558 199 568L291 690Q299 700 310 700H344Q349 700 350 697T348 690L242 568Q237 563 234 561T224 558H202Z"  />
<glyph unicode="&#xB5;" horiz-adv-x="521" d="M27 -180Q17 -180 19 -171L131 468Q133 477 142 477H175Q184 477 182 468L135 207Q132 188 130 176T127 157T126 144T126 134Q126 87 149 63T224 38Q243 38 266 45T310 69T348 111T371 173L423 468Q425 477 434 477H467Q476 477 474 467L412 116Q409 101 408 90T407 71Q407 51 414 48T433 45Q443 45 441 35L437 8Q435 -3 425 -3H420Q388 -3 374 9T357 50Q357 55 357 60T358 71H357Q333 33 296 12T212 -10Q174 -10 148 3T109 46H108L70 -171Q68 -180 60 -180H27H27Z"  />
<glyph unicode="&#xB6;" horiz-adv-x="543" d="M352 -180Q342 -180 344 -170L485 628Q486 634 480 634H385Q380 634 379 628L238 -170Q236 -180 227 -180H200Q190 -180 192 -170L269 268Q230 270 201 284T152 321T123 376T116 444Q118 494 137 537T190 612T268 662T367 680H531Q541 680 539 670L391 -170Q389 -180 380 -180H352Z"  />
<glyph unicode="&#xB7;" horiz-adv-x="209" d="M83 223Q73 223 75 233L86 298Q88 308 97 308H142Q152 308 150 298L140 233Q138 223 129 223H83Z"  />
<glyph unicode="&#xBB;" horiz-adv-x="490" d="M253 84Q250 81 247 82T244 88L251 130Q252 139 261 148L391 262Q395 266 393 270L304 385Q297 393 300 403L306 440Q307 445 310 446T316 444L449 270Q455 262 447 256L253 84ZM60 84Q57 81 54 82T51 88L58 130Q59 139 68 148L198 262Q202 266 200 270L111 385Q106 393 107 403L113 440Q114 445 117 446T123 444L256 270Q263 263 254 256L60 84Z"  />
<glyph unicode="&#x131;" horiz-adv-x="228" d="M60 0Q50 0 52 10L132 467Q134 477 143 477H175Q185 477 183 467L102 10Q100 0 92 0H60Z"  />
<glyph unicode="&#x3BC;" horiz-adv-x="521" d="M27 -180Q17 -180 19 -171L131 468Q133 477 142 477H175Q184 477 182 468L135 207Q132 188 130 176T127 157T126 144T126 134Q126 87 149 63T224 38Q243 38 266 45T310 69T348 111T371 173L423 468Q425 477 434 477H467Q476 477 474 467L412 116Q409 101 408 90T407 71Q407 51 414 48T433 45Q443 45 441 35L437 8Q435 -3 425 -3H420Q388 -3 374 9T357 50Q357 55 357 60T358 71H357Q333 33 296 12T212 -10Q174 -10 148 3T109 46H108L70 -171Q68 -180 60 -180H27H27Z"  />
<glyph unicode="&#x401;" horiz-adv-x="535" d="M62 0Q52 0 54 10L170 670Q172 680 181 680H554Q564 680 562 670L557 639Q556 629 545 629H222Q216 629 215 623L172 377Q171 370 177 370H454Q464 370 462 360L457 330Q456 320 445 320H168Q162 320 161 314L115 57Q113 51 120 51H443Q453 51 451 41L446 10Q445 0 434 0H62H62ZM467 787Q457 787 459 797L468 851Q470 861 479 861H516Q526 861 524 851L515 797Q513 787 504 787H467ZM275 787Q265 787 267 797L276 851Q278 861 287 861H324Q334 861 332 851L323 797Q321 787 312 787H275Z"  />
<glyph unicode="&#x402;" horiz-adv-x="714" d="M197 0Q186 0 188 10L297 623Q298 629 291 629H104Q94 629 96 639L101 670Q103 680 112 680H552Q563 680 561 670L556 639Q554 629 544 629H357Q350 629 350 624L308 386Q307 379 312 381Q328 387 349 393T393 404T439 413T485 416Q575 416 622 370T669 236Q669 188 653 146T604 71T525 19T416 0H389Q384 0 381 3T379 11L384 40Q386 51 396 51H426Q470 51 505 65T565 103T603 162T616 236Q616 297 581 331T476 365Q434 365 389 355T306 330Q298 327 296 318L241 10Q239 0 231 0H197H197Z"  />
<glyph unicode="&#x403;" horiz-adv-x="480" d="M63 0Q52 0 54 10L170 671Q172 680 181 680H537Q548 680 546 670L540 639Q539 629 528 629H222Q216 629 215 623L107 10Q105 0 97 0H63H63ZM330 764Q319 764 328 775L422 878Q427 883 431 885T441 888H477Q482 888 483 885T480 878L373 774Q363 764 354 764H330Z"  />
<glyph unicode="&#x404;" horiz-adv-x="540" d="M251 -10Q65 -10 65 196Q65 228 70 271T84 359T105 449T130 526Q162 607 223 648T365 690Q501 690 547 567Q550 558 542 554L513 540Q503 536 500 544Q491 565 480 582T452 612T414 632T361 640Q297 640 255 610T189 531Q157 467 142 376Q140 370 148 370H392Q395 370 397 368T399 360L394 329Q393 324 390 322T383 320H139Q132 320 131 315Q126 280 122 250T118 196Q118 149 130 119T161 72T206 47T259 40Q317 40 356 65T429 137Q436 145 443 141L470 126Q476 121 471 113Q430 49 378 20T251 -10Z"  />
<glyph unicode="&#x405;" horiz-adv-x="572" d="M240 -10Q209 -10 179 -4T121 14T73 39T37 69Q32 75 38 82L61 108Q68 115 75 109Q114 76 156 59T253 41Q297 41 333 53T395 87T435 139T449 207Q449 231 443 249T421 280T381 303T318 317L289 321Q128 345 128 477Q128 524 144 563T191 631T265 674T360 690Q414 690 461 674T539 631Q546 625 540 617L523 594Q516 584 506 591Q437 639 352 639Q314 639 283 627T230 594T195 545T183 484Q183 436 211 409T316 371L345 367Q430 355 466 317T503 215Q503 164 485 122T433 51T350 6T240 -10Z"  />
<glyph unicode="&#x406;" horiz-adv-x="234" d="M62 0Q52 0 54 10L170 670Q172 680 181 680H215Q225 680 223 670L107 10Q105 0 96 0H62H62Z"  />
<glyph unicode="&#x407;" horiz-adv-x="234" d="M62 0Q52 0 54 10L170 670Q172 680 181 680H215Q225 680 223 670L107 10Q105 0 96 0H62H62ZM290 787Q280 787 282 797L291 851Q293 861 302 861H339Q349 861 347 851L338 797Q336 787 327 787H290ZM98 787Q88 787 90 797L99 851Q101 861 110 861H147Q157 861 155 851L146 797Q144 787 135 787H98Z"  />
<glyph unicode="&#x408;" horiz-adv-x="459" d="M145 -10Q105 -10 69 7T11 48Q9 50 9 54T13 62L38 82Q46 88 53 81Q73 64 97 53T150 41Q212 41 255 78T314 203L396 670Q398 680 407 680H441Q451 680 449 670L366 201Q355 142 336 102T288 37T224 1T145 -10Z"  />
<glyph unicode="&#x409;" horiz-adv-x="982" d="M-29 -3Q-32 -3 -35 0T-37 9L-31 39Q-30 44 -27 46T-21 48H-10Q24 48 54 61T112 114T163 225T208 414L254 671Q256 680 265 680H622Q633 680 631 671L582 396Q580 390 587 390H762Q847 390 891 347T936 230Q936 176 919 133T870 61T796 16T701 0H469Q459 0 461 10L569 623Q570 629 564 629H306Q300 629 299 623L257 388Q236 270 210 194T152 75T80 14T-4 -3H-29ZM704 51Q784 51 833 97T883 229Q883 282 850 310T752 339H579Q573 339 572 333L522 57Q520 51 527 51H704Z"  />
<glyph unicode="&#x40A;" horiz-adv-x="954" d="M62 0Q52 0 54 10L170 670Q172 680 181 680H215Q225 680 223 670L173 386Q171 380 178 380H502Q507 380 509 386L560 670Q562 680 571 680H605Q615 680 613 670L563 386Q561 380 568 380H735Q820 380 864 338T908 227Q908 173 891 131T842 60T768 15T674 0H452Q442 0 444 10L498 323Q499 329 493 329H169Q163 329 162 323L107 10Q105 0 96 0H62ZM676 51Q757 51 806 96T856 224Q856 275 824 302T728 329H560Q554 329 553 323L505 57Q503 51 510 51H676Z"  />
<glyph unicode="&#x40B;" horiz-adv-x="725" d="M197 0Q186 0 188 10L297 623Q298 629 291 629H104Q94 629 96 639L101 670Q103 680 112 680H552Q563 680 561 670L556 639Q554 629 544 629H357Q350 629 350 624L309 390Q308 379 319 383Q355 394 399 405T489 416Q583 416 626 374T653 239L612 10Q610 0 601 0H567Q556 0 558 10L598 239Q605 279 598 304T573 342T530 360T476 365Q436 365 393 355T313 332Q298 326 295 313L241 10Q239 0 231 0H197H197Z"  />
<glyph unicode="&#x40C;" horiz-adv-x="574" d="M63 0Q52 0 54 10L170 670Q172 680 181 680H215Q225 680 223 670L171 376Q169 370 176 370H251Q272 370 290 378T324 398T351 425T373 456L461 603Q475 626 488 641T515 666T548 679T589 683H605Q609 683 612 680T614 672L609 643Q607 634 597 634H589Q557 634 540 621T502 572L424 442Q402 406 381 383T331 352V348Q357 341 371 316T395 258L435 117Q445 82 457 65T503 47H518Q529 47 527 36L522 6Q520 -3 511 -3H491Q441 -3 419 20T384 90L339 256Q329 294 306 307T241 320H168Q162 320 161 314L107 10Q105 0 96 0H63H63ZM337 764Q326 764 335 775L429 878Q434 883 438 885T448 888H484Q489 888 490 885T487 878L380 774Q370 764 361 764H337Z"  />
<glyph unicode="&#x40E;" horiz-adv-x="528" d="M51 -3Q41 -3 43 8L48 38Q49 47 59 47H89Q127 47 150 65T197 123L237 192L100 669Q97 680 107 680H144Q152 680 155 671L274 255H277L522 671Q524 675 526 677T535 680H575Q586 680 579 668L240 104Q226 80 211 61T179 27T141 5T93 -3H51H51ZM351 762Q303 762 277 789T246 864Q245 873 252 874L275 878Q281 880 283 872Q291 840 306 822T357 803Q392 803 414 825T451 873Q454 880 461 878L484 872Q490 870 486 862Q463 812 432 787T351 762Z"  />
<glyph unicode="&#x40F;" horiz-adv-x="616" d="M226 -161Q216 -161 218 -152L243 -6Q244 0 239 0H63Q52 0 54 10L170 670Q172 680 181 680H214Q225 680 223 670L115 57Q113 51 120 51H438Q443 51 445 57L553 670Q555 680 563 680H597Q607 680 605 670L489 10Q487 0 478 0H302Q295 0 294 -6L269 -152Q267 -161 257 -161H226H226Z"  />
<glyph unicode="&#x410;" horiz-adv-x="575" d="M1 0Q-9 0 -4 10L342 670Q347 680 355 680H387Q395 680 397 670L507 10Q509 0 498 0H466Q456 0 455 10L427 180H142L53 10Q48 0 39 0H1ZM419 230L360 593H358L168 230H419Z"  />
<glyph unicode="&#x411;" horiz-adv-x="584" d="M63 0Q52 0 54 10L170 671Q172 680 181 680H544Q555 680 553 670L547 639Q546 629 536 629H222Q216 629 215 623L173 385Q171 379 178 379H345Q426 379 472 339T519 227Q519 173 502 131T453 60T379 15T284 0H63ZM286 51Q326 51 359 62T416 96T453 151T466 224Q466 275 434 302T338 329H170Q164 329 163 323L115 57Q113 51 120 51H286Z"  />
<glyph unicode="&#x412;" horiz-adv-x="583" d="M62 0Q52 0 54 10L170 670Q172 680 181 680H396Q476 680 518 643T560 537Q560 465 526 418T429 351V347Q443 343 458 334T486 309T507 271T516 220Q516 118 456 59T281 0H62ZM292 50Q333 50 365 62T419 95T452 147T464 212Q464 262 434 291T341 321H168Q162 321 161 315L115 56Q113 50 119 50H292ZM345 371Q383 371 413 383T465 415T497 464T508 526Q508 575 479 602T391 630H222Q216 630 215 624L172 377Q170 371 176 371H345Z"  />
<glyph unicode="&#x413;" horiz-adv-x="480" d="M63 0Q52 0 54 10L170 671Q172 680 181 680H537Q548 680 546 670L540 639Q539 629 528 629H222Q216 629 215 623L107 10Q105 0 97 0H63H63Z"  />
<glyph unicode="&#x414;" horiz-adv-x="652" d="M-46 -161Q-49 -161 -51 -159T-53 -152L-21 41Q-20 46 -16 48T-8 51H35Q44 51 49 58Q78 97 102 140T149 246T193 402T238 631L245 671Q247 680 256 680H620Q630 680 628 671L519 57Q517 51 524 51H590Q600 51 598 41L564 -152Q562 -161 553 -161H520Q511 -161 513 -152L538 -6Q539 0 534 0H31Q24 0 23 -6L-2 -152Q-4 -161 -13 -161H-46ZM459 51Q464 51 466 57L566 623Q567 629 561 629H297Q291 629 290 623L281 575Q259 459 240 377T201 236T160 135T111 57Q107 51 113 51H459Z"  />
<glyph unicode="&#x415;" horiz-adv-x="535" d="M62 0Q52 0 54 10L170 670Q172 680 181 680H554Q564 680 562 670L557 639Q556 629 545 629H222Q216 629 215 623L172 377Q171 370 177 370H454Q464 370 462 360L457 330Q456 320 445 320H168Q162 320 161 314L115 57Q113 51 120 51H443Q453 51 451 41L446 10Q445 0 434 0H62H62Z"  />
<glyph unicode="&#x416;" horiz-adv-x="880" d="M-18 -3Q-29 -3 -27 8L-21 38Q-20 47 -10 47H5Q24 47 37 51T60 63T79 84T98 114L184 261Q197 283 208 298T230 323T254 340T283 351V355Q261 369 250 393T229 450L194 569Q189 585 184 597T172 618T153 630T123 634H115Q105 634 107 644L112 674Q113 683 123 683H138Q183 683 204 662T240 594L279 458Q283 443 290 428T307 400T333 379T369 370H433Q438 370 440 376L491 670Q493 680 502 680H535Q546 680 544 670L493 376Q491 370 498 370H558Q579 370 597 378T631 398T659 425T680 456L768 606Q782 629 794 644T821 667T853 679T895 683H911Q922 683 920 672L915 643Q913 634 903 634H895Q879 634 868 632T847 623T829 604T808 572L731 442Q710 406 690 383T640 351V347Q667 337 680 314T702 258L741 117Q746 100 751 87T763 65T782 52T810 47H825Q836 47 834 36L828 6Q826 -3 817 -3H794Q769 -3 752 3T724 20T705 49T691 90L646 256Q635 294 613 307T547 320H489Q483 320 482 314L428 10Q426 0 417 0H384Q373 0 375 10L429 314Q430 320 424 320H359Q318 320 293 307T244 256L140 80Q126 57 114 41T86 16T52 2T6 -3H-18H-18Z"  />
<glyph unicode="&#x417;" horiz-adv-x="530" d="M213 -10Q180 -10 149 -3T92 15T44 41T10 73Q4 79 12 87L37 111Q45 117 51 109Q76 83 118 62T214 41Q304 41 356 88T409 213Q409 267 373 294T272 322H202Q192 322 194 333L199 364Q200 369 203 370T211 372H280Q314 372 345 383T401 416T440 467T455 534Q455 585 419 612T320 640Q267 640 228 623T147 574Q142 572 139 571T132 574L114 599Q112 602 112 605T118 612Q165 647 213 668T325 690Q416 690 461 650T507 538Q507 475 474 425T377 352V348Q421 334 441 298T462 215Q462 164 446 123T398 52T320 6T213 -10Z"  />
<glyph unicode="&#x418;" horiz-adv-x="639" d="M63 0Q52 0 54 10L170 671Q172 680 181 680H215Q225 680 223 671L123 103H126L571 675Q574 680 581 680H619Q630 680 628 671L513 10Q511 0 502 0H468Q457 0 459 10L559 578H556L112 10Q108 5 105 3T96 0H63H63Z"  />
<glyph unicode="&#x419;" horiz-adv-x="639" d="M411 762Q363 762 337 789T306 864Q305 873 312 874L335 878Q341 880 343 872Q351 840 366 822T417 803Q452 803 474 825T511 873Q514 880 521 878L544 872Q550 870 546 862Q523 812 492 787T411 762ZM63 0Q52 0 54 10L170 671Q172 680 181 680H215Q225 680 223 671L123 103H126L571 675Q574 680 581 680H619Q630 680 628 671L513 10Q511 0 502 0H468Q457 0 459 10L559 578H556L112 10Q108 5 105 3T96 0H63H63Z"  />
<glyph unicode="&#x41A;" horiz-adv-x="574" d="M63 0Q52 0 54 10L170 670Q172 680 181 680H215Q225 680 223 670L171 376Q169 370 176 370H251Q272 370 290 378T324 398T351 425T373 456L461 603Q475 626 488 641T515 666T548 679T589 683H605Q609 683 612 680T614 672L609 643Q607 634 597 634H589Q557 634 540 621T502 572L424 442Q402 406 381 383T331 352V348Q357 341 371 316T395 258L435 117Q445 82 457 65T503 47H518Q529 47 527 36L522 6Q520 -3 511 -3H491Q441 -3 419 20T384 90L339 256Q329 294 306 307T241 320H168Q162 320 161 314L107 10Q105 0 96 0H63H63Z"  />
<glyph unicode="&#x41B;" horiz-adv-x="641" d="M-29 -3Q-32 -3 -35 0T-37 9L-31 38Q-30 43 -27 45T-21 47H-10Q24 47 54 60T112 114T163 225T208 414L254 671Q256 680 265 680H621Q632 680 630 671L514 10Q512 0 504 0H469Q459 0 461 10L569 623Q570 629 564 629H306Q300 629 299 623L257 388Q236 270 210 194T152 75T80 14T-4 -3H-29H-29Z"  />
<glyph unicode="&#x41C;" horiz-adv-x="725" d="M62 0Q52 0 54 10L170 670Q172 680 181 680H211Q220 680 223 670L351 176H354L656 670Q662 680 670 680H706Q716 680 714 670L598 10Q596 0 587 0H556Q546 0 548 10L644 550H641L370 112Q366 105 363 103T352 101H333Q321 101 318 112L203 552H200L104 10Q102 0 93 0H62H62Z"  />
<glyph unicode="&#x41D;" horiz-adv-x="624" d="M62 0Q52 0 54 10L170 670Q172 680 181 680H215Q225 680 223 670L171 376Q169 370 176 370H501Q506 370 508 376L560 670Q562 680 571 680H605Q615 680 613 670L497 10Q495 0 486 0H452Q442 0 444 10L497 314Q498 320 493 320H168Q162 320 161 314L107 10Q105 0 96 0H62H62Z"  />
<glyph unicode="&#x41E;" horiz-adv-x="586" d="M251 -10Q163 -10 114 39T65 183Q65 211 71 260T87 361T110 462T137 540Q175 618 232 654T374 690Q462 690 511 641T560 497Q560 478 558 450T550 388T539 319T524 250T507 188T488 140Q450 62 393 26T251 -10ZM259 41Q322 41 366 70T439 157Q452 185 464 230T486 325T501 419T507 491Q507 562 471 600T366 639Q303 639 259 610T186 523Q172 495 160 450T139 355T124 261T118 189Q118 118 154 80T259 41Z"  />
<glyph unicode="&#x41F;" horiz-adv-x="616" d="M63 0Q52 0 54 10L170 670Q172 680 181 680H596Q607 680 605 670L489 10Q487 0 479 0H445Q435 0 437 10L545 623Q546 629 540 629H222Q216 629 215 623L107 10Q105 0 96 0H63H63Z"  />
<glyph unicode="&#x420;" horiz-adv-x="561" d="M62 0Q52 0 54 10L170 670Q172 680 181 680H399Q481 680 525 641T569 530Q569 474 552 431T503 357T428 312T332 296H164Q157 296 157 290L107 10Q105 0 96 0H62ZM336 347Q417 348 467 393T517 523Q517 574 485 601T389 629H222Q216 629 215 623L167 353Q165 347 172 347H336Z"  />
<glyph unicode="&#x421;" horiz-adv-x="537" d="M249 -10Q163 -10 114 39T64 183Q64 202 66 230T74 292T85 360T100 429T117 491T136 540Q174 618 229 654T363 690Q425 690 471 657T537 559Q540 551 532 548L504 535Q494 530 491 539Q473 588 441 613T357 639Q298 639 256 611T185 523Q171 495 159 450T138 355T123 261T117 189Q117 119 152 80T257 41Q312 41 352 67T424 140Q429 147 436 144L464 128Q471 124 466 115Q424 49 371 20T249 -10Z"  />
<glyph unicode="&#x422;" horiz-adv-x="501" d="M196 0Q186 0 188 10L296 623Q297 629 292 629H103Q94 629 96 639L101 670Q103 680 112 680H553Q563 680 561 670L555 639Q553 629 544 629H355Q350 629 349 623L240 10Q238 0 229 0H196H196Z"  />
<glyph unicode="&#x423;" horiz-adv-x="528" d="M51 -3Q41 -3 43 8L48 38Q49 47 59 47H89Q127 47 150 65T197 123L237 192L100 669Q97 680 107 680H144Q152 680 155 671L274 255H277L522 671Q524 675 526 677T535 680H575Q586 680 579 668L240 104Q226 80 211 61T179 27T141 5T93 -3H51H51Z"  />
<glyph unicode="&#x424;" horiz-adv-x="716" d="M301 -10Q291 -10 293 0L306 74Q307 80 301 80Q183 88 125 152T67 319Q67 385 91 440T159 536T263 599T397 623Q402 623 404 629L413 682Q415 690 424 690H458Q469 690 467 682L458 629Q456 623 463 623Q580 615 639 553T698 390Q698 322 674 266T605 168T501 104T367 80Q361 80 360 74L347 0Q345 -10 336 -10H301ZM310 129Q315 129 317 135L393 568Q394 574 388 574Q331 573 282 555T197 503T141 424T120 321Q120 239 166 187T310 129ZM376 129Q432 130 481 149T566 201T624 282T645 388Q645 467 598 518T455 574Q448 574 447 568L371 135Q369 129 376 129Z"  />
<glyph unicode="&#x425;" horiz-adv-x="523" d="M1 0Q-10 0 -3 11L258 357L135 669Q133 674 134 677T141 680H180Q188 680 191 671L294 411H295L491 671Q497 680 505 680H546Q557 680 550 669L317 356L453 11Q458 0 447 0H409Q401 0 398 9L281 302H280L57 9Q51 0 45 0H1H1Z"  />
<glyph unicode="&#x426;" horiz-adv-x="629" d="M500 -161Q490 -161 492 -152L517 -6Q518 0 513 0H63Q52 0 54 10L170 670Q172 680 181 680H214Q225 680 223 670L115 57Q113 51 120 51H438Q443 51 445 57L553 670Q555 680 563 680H596Q607 680 605 670L497 57Q495 51 502 51H568Q572 51 575 49T577 41L544 -152Q542 -161 533 -161H500H500Z"  />
<glyph unicode="&#x427;" horiz-adv-x="587" d="M415 0Q405 0 407 10L455 287Q456 293 449 291Q431 285 408 279T361 267T312 259T266 256Q224 256 192 266T140 299T113 356T115 440L156 671Q158 680 167 680H200Q211 680 209 671L168 438Q160 396 167 370T190 329T231 310T282 305Q327 305 373 315T459 341Q465 343 467 351L523 671Q525 680 533 680H567Q578 680 576 671L460 10Q458 0 450 0H415H415Z"  />
<glyph unicode="&#x428;" horiz-adv-x="903" d="M63 0Q52 0 54 10L170 670Q172 680 181 680H214Q225 680 223 670L115 57Q113 51 120 51H389Q394 51 396 57L504 670Q506 680 514 680H549Q560 680 558 670L450 57Q448 51 455 51H724Q729 51 731 57L839 670Q841 680 849 680H883Q894 680 892 670L776 10Q774 0 765 0H63H63Z"  />
<glyph unicode="&#x429;" horiz-adv-x="916" d="M786 -161Q776 -161 778 -152L803 -6Q804 0 799 0H63Q52 0 54 10L170 670Q172 680 181 680H214Q225 680 223 670L115 57Q113 51 120 51H389Q394 51 396 57L504 670Q506 680 514 680H549Q560 680 558 670L450 57Q448 51 455 51H724Q729 51 731 57L839 670Q841 680 849 680H883Q894 680 892 670L784 57Q782 51 789 51H854Q864 51 862 41L829 -152Q827 -161 818 -161H786H786Z"  />
<glyph unicode="&#x42A;" horiz-adv-x="681" d="M168 0Q157 0 159 10L268 623Q269 629 263 629H103Q93 629 95 639L100 672Q101 680 110 680H321Q332 680 330 671L281 396Q279 390 286 390H461Q546 390 590 347T635 230Q635 176 618 133T569 61T495 16T400 0H168ZM403 51Q442 51 475 63T532 98T569 154T582 229Q582 282 549 310T451 339H277Q271 339 270 333L221 57Q219 51 226 51H403Z"  />
<glyph unicode="&#x42B;" horiz-adv-x="762" d="M63 0Q52 0 54 10L170 671Q172 680 181 680H215Q225 680 223 671L176 396Q174 390 181 390H344Q429 390 474 347T519 230Q519 176 502 133T453 61T378 16T283 0H63ZM287 51Q367 51 416 97T466 229Q466 282 433 310T335 339H172Q166 339 165 333L115 57Q113 51 120 51H287ZM590 0Q579 0 581 10L697 671Q699 680 708 680H742Q753 680 751 671L635 10Q633 0 624 0H590Z"  />
<glyph unicode="&#x42C;" horiz-adv-x="575" d="M63 0Q52 0 54 10L170 671Q172 680 181 680H215Q225 680 223 671L176 396Q174 390 181 390H354Q439 390 484 347T529 230Q529 176 512 133T463 61T388 16T293 0H63ZM297 51Q377 51 426 97T476 229Q476 282 443 310T345 339H172Q166 339 165 333L115 57Q113 51 120 51H297Z"  />
<glyph unicode="&#x42D;" horiz-adv-x="540" d="M210 -10Q140 -10 93 22T26 115Q22 124 32 128L61 141Q71 145 74 137Q90 90 122 65T215 40Q265 40 306 59T379 130Q399 161 413 204T439 314Q440 320 434 320H195Q192 320 190 322T188 330L193 362Q194 367 197 368T204 370H442Q448 370 450 376Q454 399 457 431T461 491Q461 557 426 598T315 640Q284 640 260 633T217 613T181 582T150 543Q144 535 136 539L108 556Q100 561 107 568Q149 630 200 660T321 690Q412 690 463 641T514 490Q514 464 508 412T490 300T459 183T415 91Q395 63 373 44T327 13T273 -4T210 -10Z"  />
<glyph unicode="&#x42E;" horiz-adv-x="783" d="M474 -10Q389 -10 339 36T289 168Q289 191 292 225T304 315Q305 321 299 321H168Q162 321 161 315L107 10Q105 0 97 0H63Q52 0 54 10L171 671Q173 680 182 680H216Q226 680 224 671L172 376Q170 370 177 370H307Q312 370 314 376Q321 413 327 441T340 489T352 524T363 548Q437 690 590 690Q675 690 724 643T773 507Q773 491 771 463T763 399T751 326T736 251T718 183T698 132Q662 61 608 26T474 -10ZM477 41Q596 41 649 147Q658 166 667 195T684 258T698 329T710 399T717 460T720 504Q720 563 688 601T585 639Q465 639 412 533Q403 514 394 485T378 422T364 351T352 281T345 219T342 175Q342 115 376 78T477 41Z"  />
<glyph unicode="&#x42F;" horiz-adv-x="590" d="M-20 -3Q-31 -3 -29 8L-24 39Q-23 48 -13 48H6Q25 48 38 52T61 65T81 86T101 115L182 239Q194 258 212 278T252 307V311Q223 316 198 327T153 357T124 402T113 465Q113 515 130 555T178 622T251 665T342 680H570Q581 680 579 670L463 10Q461 0 452 0H418Q407 0 409 10L459 293Q460 299 454 299H349Q316 299 290 284T241 234L145 85Q131 63 118 47T89 19T55 3T9 -3H-20ZM463 350Q468 350 470 356L517 623Q518 629 512 629H344Q305 629 273 618T216 586T179 535T166 465Q166 411 201 381T294 350H463Z"  />
<glyph unicode="&#x430;" horiz-adv-x="492" d="M177 -10Q115 -10 81 21T46 107Q46 188 97 229T246 270H362Q368 270 370 276L379 328Q385 358 384 379T371 414T338 434T281 440Q241 440 211 430T159 402Q149 394 144 404L131 426Q127 433 134 439Q163 462 202 474T292 487Q378 487 411 452T429 330L372 10Q370 0 361 0H332Q322 0 324 10L333 60H332Q312 30 273 10T177 -10ZM195 35Q225 35 250 43T296 66T330 101T347 147L360 221Q361 227 356 227H247Q166 227 131 197T96 113Q96 77 120 56T195 35Z"  />
<glyph unicode="&#x431;" horiz-adv-x="504" d="M226 -10Q148 -10 107 33T65 158Q65 209 75 260T96 368Q104 409 112 442T132 503T160 554T202 598Q224 616 250 626T305 643T363 651T420 655Q461 658 469 683Q470 689 480 689H512Q517 689 518 686T517 680Q512 659 504 646T484 624T455 613T415 607Q385 605 359 603T309 596T263 581T220 554Q203 540 192 524T172 487T158 442T144 385H147Q174 425 215 449T311 473Q386 473 421 429T457 302Q457 275 453 244T440 182T420 123T392 72Q366 36 326 13T226 -10ZM228 38Q275 38 306 57T358 111Q368 129 377 154T392 205T402 256T406 301Q406 373 377 399T295 425Q244 425 202 389T134 264Q126 239 121 212T116 165Q116 130 124 106T148 66T183 45T228 38Z"  />
<glyph unicode="&#x432;" horiz-adv-x="490" d="M61 0Q50 0 52 10L132 468Q133 473 136 475T144 477H333Q393 477 421 448T450 373Q450 281 363 247V243Q392 235 406 212T421 157Q421 84 378 42T257 0H61ZM259 46Q310 46 340 74T370 152Q370 184 350 203T287 222H146Q140 222 139 216L110 52Q108 46 115 46H259ZM295 268Q316 268 335 275T369 296T391 327T400 369Q400 431 321 431H183Q178 431 176 426L149 273Q147 268 154 268H295Z"  />
<glyph unicode="&#x433;" horiz-adv-x="390" d="M60 0Q50 0 52 10L132 468Q133 473 136 475T143 477H408Q417 477 416 468L411 438Q410 433 407 431T399 429H182Q176 429 175 423L102 10Q100 0 90 0H60H60Z"  />
<glyph unicode="&#x434;" horiz-adv-x="542" d="M-40 -135Q-48 -135 -46 -126L-19 39Q-17 48 -8 48H27Q33 48 39 50T51 60Q66 81 81 104T111 160T138 237T162 342L184 468Q185 477 195 477H478Q488 477 487 468L414 54Q412 48 419 48H474Q483 48 481 39L453 -126Q451 -135 442 -135H413Q403 -135 405 -126L425 -6Q426 0 421 0H30Q23 0 22 -6L1 -126Q-1 -135 -9 -135H-40ZM356 48Q361 48 363 54L428 423Q429 429 423 429H233Q227 429 226 423L210 330Q200 272 188 229T161 153T132 97T103 54Q101 52 102 50T105 48H356Z"  />
<glyph unicode="&#x435;" horiz-adv-x="476" d="M206 -10Q130 -10 91 32T51 149Q51 175 53 203T61 260T75 314T95 364Q124 424 172 455T286 487Q351 487 392 448T434 330Q434 313 432 292T424 237Q422 227 412 227H113Q107 227 106 221Q101 201 101 187T100 155Q100 98 128 68T213 38Q258 38 293 56T354 102Q361 109 368 104L385 85Q391 77 384 70Q352 35 308 13T206 -10ZM373 270Q378 270 380 276Q383 290 384 303T386 327Q386 384 359 412T280 440Q235 440 199 418T141 350Q133 335 127 316T117 276Q115 270 121 270H373Z"  />
<glyph unicode="&#x436;" horiz-adv-x="700" d="M-10 -3Q-21 -3 -19 8L-14 35Q-13 44 -2 44H5Q22 44 33 46T54 55T70 71T86 97L130 179Q146 208 167 228T212 251V255Q186 273 175 315L158 377Q149 409 136 421T93 434H82Q71 434 73 445L78 471Q79 480 91 480H111Q149 480 170 461T203 399L219 336Q227 306 244 288T294 269H329Q334 269 336 275L370 468Q371 473 374 475T382 477H412Q422 477 421 468L387 275Q385 269 392 269H430Q462 269 485 288T525 336L573 419Q585 440 596 452T620 470T648 478T683 480H696Q707 480 705 470L701 444Q700 434 688 434H685Q672 434 663 433T645 428T629 414T612 389L567 314Q553 291 536 274T502 251V247Q521 242 535 225T556 179L571 112Q579 81 591 63T634 44H646Q656 44 654 34L649 7Q647 -3 638 -3H620Q575 -3 553 23T522 91L507 163Q503 184 494 195T472 212T447 219T422 221H384Q378 221 377 215L341 10Q339 0 329 0H299Q288 0 290 10L326 215Q327 221 321 221H281Q271 221 258 220T231 214T203 197T178 163L134 77Q122 53 111 38T86 13T55 1T15 -3H-10H-10Z"  />
<glyph unicode="&#x437;" horiz-adv-x="436" d="M169 -10Q111 -10 73 5T4 52Q-1 59 7 67L27 88Q35 96 41 88Q67 59 97 48T170 37Q233 37 272 66T311 151Q311 187 287 204T220 221H160Q151 221 153 232L157 258Q159 268 168 268H230Q251 268 270 274T306 294T331 326T341 370Q341 404 315 422T239 440Q198 440 169 431T109 398Q98 391 96 398L82 423Q78 430 85 435Q119 460 158 473T248 487Q320 487 356 457T392 376Q392 331 370 297T302 247V243Q331 236 347 212T363 154Q363 75 310 33T169 -10Z"  />
<glyph unicode="&#x438;" horiz-adv-x="534" d="M61 0Q50 0 52 10L132 468Q133 477 144 477H175Q184 477 183 468L118 94H121L435 472Q440 477 445 477H479Q490 477 489 468L408 10Q406 0 396 0H366Q355 0 357 10L422 384H419L106 6Q100 0 95 0H61H61Z"  />
<glyph unicode="&#x439;" horiz-adv-x="534" d="M320 571Q272 571 247 596T216 669Q215 678 221 680L245 684Q252 686 253 679Q258 650 273 631T324 611Q359 611 383 632T420 680Q424 687 432 684L452 677Q458 675 455 667Q432 617 400 594T320 571ZM61 0Q50 0 52 10L132 468Q133 477 144 477H175Q184 477 183 468L118 94H121L435 472Q440 477 445 477H479Q490 477 489 468L408 10Q406 0 396 0H366Q355 0 357 10L422 384H419L106 6Q100 0 95 0H61H61Z"  />
<glyph unicode="&#x43A;" horiz-adv-x="480" d="M61 0Q50 0 52 10L132 468Q135 477 144 477H173Q183 477 182 468L148 274Q146 268 153 268H211Q243 268 266 287T306 336L355 417Q367 437 378 449T402 468T430 477T465 480H481Q491 480 489 470L484 444Q483 434 471 434H466Q440 434 424 424T389 382L343 306Q329 283 315 270T283 251V247Q302 242 316 225T337 179L352 112Q359 81 371 63T415 45H427Q437 45 435 35L430 7Q428 -3 420 -3H401Q356 -3 335 23T304 91L288 163Q283 184 274 195T252 212T227 219T203 221H145Q139 221 138 215L102 10Q100 0 90 0H61H61Z"  />
<glyph unicode="&#x43B;" horiz-adv-x="526" d="M-11 -3Q-21 -3 -19 8L-14 37Q-13 45 -3 45H3Q19 45 39 50T79 78T117 145T150 268L185 468Q186 477 196 477H474Q482 477 481 468L400 10Q398 0 390 0H358Q347 0 349 10L423 423Q424 429 418 429H233Q227 429 226 423L195 247Q182 174 163 126T120 49T69 9T11 -3H-11H-11Z"  />
<glyph unicode="&#x43C;" horiz-adv-x="598" d="M61 0Q50 0 52 10L132 468Q134 477 144 477H175Q184 477 186 470L280 133H283L496 470Q501 477 510 477H545Q555 477 553 468L472 10Q470 0 461 0H431Q420 0 422 10L485 364H482L296 75Q290 66 281 66H260Q255 66 253 69T250 75L167 364H164L101 10Q99 0 90 0H61H61Z"  />
<glyph unicode="&#x43D;" horiz-adv-x="522" d="M61 0Q50 0 52 10L132 468Q133 473 136 475T144 477H174Q184 477 183 468L149 275Q147 269 154 269H386Q391 269 393 275L426 468Q427 477 437 477H468Q478 477 477 468L396 10Q394 0 385 0H355Q344 0 346 10L383 215Q384 221 378 221H145Q139 221 138 215L102 10Q100 0 90 0H61H61Z"  />
<glyph unicode="&#x43E;" horiz-adv-x="486" d="M204 -10Q128 -10 90 33T51 151Q51 177 55 208T66 269T81 325T98 369Q127 431 175 459T289 487Q365 487 403 444T442 326Q442 300 438 269T427 208T412 152T395 108Q366 46 318 18T204 -10ZM212 38Q305 38 350 129Q357 142 364 165T377 215T387 268T391 316Q391 376 366 407T281 439Q188 439 143 348Q136 334 129 311T116 262T106 209T102 161Q102 101 127 70T212 38Z"  />
<glyph unicode="&#x43F;" horiz-adv-x="518" d="M61 0Q50 0 52 10L132 468Q133 477 144 477H465Q474 477 473 468L392 10Q390 0 381 0H351Q340 0 342 10L415 423Q416 429 410 429H182Q176 429 175 423L102 10Q100 0 90 0H61H61Z"  />
<glyph unicode="&#x440;" horiz-adv-x="509" d="M28 -180Q18 -180 20 -170L132 467Q134 477 143 477H175Q185 477 183 467L173 409H174Q197 442 233 464T326 487Q395 487 429 446T464 332Q464 303 460 270T448 206T433 147T415 102Q360 -10 241 -10Q187 -10 157 13T114 71H113L71 -170Q69 -180 60 -180H28ZM238 38Q284 38 317 60T371 125Q380 144 388 170T401 223T410 276T413 324Q413 376 390 407T309 439Q267 439 231 417T171 346Q165 335 159 310T146 256T136 198T132 149Q132 99 158 69T238 38Z"  />
<glyph unicode="&#x441;" horiz-adv-x="449" d="M201 -10Q127 -10 89 32T51 152Q51 201 62 259T96 364Q125 424 174 455T286 487Q340 487 374 464T424 395Q427 385 420 381L395 367Q385 361 382 371Q368 406 345 422T281 439Q241 439 204 416T144 347Q133 324 125 299T112 248T105 200T102 161Q102 102 126 70T208 38Q243 38 275 53T337 107Q344 116 352 109L372 91Q379 85 372 76Q340 34 297 12T201 -10Z"  />
<glyph unicode="&#x442;" horiz-adv-x="399" d="M143 0Q132 0 134 10L207 423Q208 429 202 429H57Q48 429 49 439L53 469Q54 474 57 475T65 477H417Q420 477 423 475T425 467L420 438Q419 434 416 432T409 429H265Q259 429 258 423L185 10Q183 0 174 0H143H143Z"  />
<glyph unicode="&#x443;" horiz-adv-x="449" d="M8 -180Q-2 -180 0 -170L4 -142Q5 -132 16 -132H33Q48 -132 60 -128T85 -114T109 -85T137 -39L164 10L75 467Q73 477 83 477H116Q126 477 127 467L198 80H199L406 467Q410 477 419 477H454Q465 477 460 467L182 -47Q160 -88 141 -114T104 -154T68 -174T27 -180H8H8Z"  />
<glyph unicode="&#x444;" horiz-adv-x="623" d="M227 -180Q217 -180 219 -170L247 -13Q248 -7 242 -7Q147 -2 97 51T46 196Q46 271 73 330T151 427Q185 453 229 467T328 483Q333 483 335 489L368 670Q370 680 378 680H409Q412 680 415 677T417 670L384 489Q382 483 389 483Q489 477 537 425T585 284Q585 207 556 145T473 45Q440 21 397 8T303 -7Q297 -7 296 -13L268 -170Q266 -180 258 -180H227ZM249 41Q254 41 256 47L324 430Q325 436 319 436Q231 435 174 387Q136 355 117 306T98 197Q98 129 134 87T249 41ZM313 41Q396 42 451 87Q491 119 512 170T533 282Q533 313 526 341T501 389T454 422T383 436Q377 436 376 430L308 47Q306 41 313 41Z"  />
<glyph unicode="&#x445;" horiz-adv-x="442" d="M4 0Q-1 0 -2 3T0 10L200 250L97 467Q93 477 104 477H139Q147 477 151 469L233 294H234L380 469Q387 477 394 477H432Q437 477 438 474T436 467L256 248L369 10Q373 0 362 0H328Q320 0 316 8L223 206H222L57 8Q50 0 43 0H4H4Z"  />
<glyph unicode="&#x446;" horiz-adv-x="528" d="M398 -135Q389 -135 391 -126L412 -6Q413 0 408 0H61Q50 0 52 9L132 467Q134 477 144 477H173Q184 477 182 467L110 54Q108 48 115 48H343Q348 48 350 54L422 467Q424 477 434 477H465Q475 477 473 467L401 54Q399 48 406 48H459Q463 48 466 46T468 39L440 -126Q438 -135 428 -135H398H398Z"  />
<glyph unicode="&#x447;" horiz-adv-x="494" d="M326 0Q315 0 317 10L350 196Q350 201 345 199Q320 191 285 181T207 171Q142 171 110 207T91 321L117 468Q118 477 129 477H160Q169 477 168 468L142 316Q132 259 154 239T222 219Q260 219 292 228T354 248Q360 251 360 254L398 468Q399 477 409 477H441Q450 477 449 468L368 10Q366 0 357 0H326H326Z"  />
<glyph unicode="&#x448;" horiz-adv-x="745" d="M61 0Q50 0 52 9L132 467Q134 477 144 477H173Q184 477 182 467L110 54Q108 48 115 48H311Q316 48 318 54L390 467Q392 477 401 477H432Q443 477 441 467L369 54Q367 48 374 48H569Q574 48 576 54L648 467Q650 477 660 477H691Q702 477 700 467L619 9Q617 0 607 0H61H61Z"  />
<glyph unicode="&#x449;" horiz-adv-x="755" d="M624 -135Q615 -135 617 -126L638 -6Q639 0 634 0H61Q50 0 52 9L132 467Q134 477 144 477H173Q184 477 182 467L110 54Q108 48 115 48H311Q316 48 318 54L390 467Q392 477 401 477H432Q443 477 441 467L369 54Q367 48 374 48H569Q574 48 576 54L648 467Q650 477 660 477H691Q702 477 700 467L627 54Q625 48 632 48H685Q689 48 692 46T694 39L666 -126Q664 -135 654 -135H624H624Z"  />
<glyph unicode="&#x44A;" horiz-adv-x="534" d="M116 0Q105 0 107 10L180 423Q181 429 175 429H56Q53 429 51 431T49 439L53 469Q54 474 57 475T64 477H230Q239 477 238 468L206 282Q204 276 211 276H352Q414 276 445 243T476 158Q476 83 431 42T310 0H116ZM315 48Q364 48 395 75T426 154Q426 189 405 208T343 228H203Q197 228 196 222L166 54Q164 48 171 48H315Z"  />
<glyph unicode="&#x44B;" horiz-adv-x="643" d="M61 0Q50 0 52 10L132 468Q133 473 136 475T144 477H174Q184 477 183 468L150 282Q148 276 155 276H286Q349 276 380 243T411 158Q411 83 366 42T244 0H61ZM250 48Q299 48 330 75T361 154Q361 189 340 208T277 228H147Q141 228 140 222L110 54Q108 48 115 48H250ZM476 0Q465 0 467 10L547 467Q549 477 559 477H590Q600 477 598 467L518 10Q516 0 507 0H476Z"  />
<glyph unicode="&#x44C;" horiz-adv-x="478" d="M61 0Q50 0 52 10L132 468Q133 473 136 475T144 477H174Q184 477 183 468L150 282Q148 276 155 276H296Q359 276 390 243T421 158Q421 83 376 42T254 0H61ZM260 48Q309 48 340 75T371 154Q371 189 350 208T287 228H147Q141 228 140 222L110 54Q108 48 115 48H260Z"  />
<glyph unicode="&#x44D;" horiz-adv-x="450" d="M173 -10Q113 -10 76 15T23 84Q20 91 28 96L51 112Q59 117 64 108Q91 37 178 37Q216 37 252 58T311 124Q319 140 327 165T341 216Q342 222 336 222H166Q156 222 158 233L162 259Q163 264 166 265T174 267H345Q351 267 353 273Q356 300 356 321Q356 374 331 407T249 441Q210 441 174 423T114 372Q107 363 100 368L81 386Q74 393 79 399Q108 441 152 464T254 487Q328 487 367 444T406 325Q406 299 402 263T387 188T361 113T322 52Q293 21 256 6T173 -10Z"  />
<glyph unicode="&#x44E;" horiz-adv-x="668" d="M388 -10Q313 -10 276 33T238 153Q238 167 239 182T243 215Q244 221 238 221H145Q139 221 138 215L102 10Q100 0 90 0H61Q50 0 52 10L132 468Q133 473 136 475T144 477H174Q184 477 183 468L149 275Q147 269 154 269H247Q253 269 254 275Q263 310 275 347T312 413Q344 450 382 468T475 487Q549 487 586 443T624 325Q624 295 620 261T608 193T586 128T556 74Q526 32 486 11T388 -10ZM395 38Q435 38 463 53T515 99Q528 117 539 144T557 202T569 263T573 317Q573 342 568 364T551 402T518 429T466 439Q392 439 350 381Q338 364 327 337T307 280T294 217T289 159Q289 105 314 72T395 38Z"  />
<glyph unicode="&#x44F;" horiz-adv-x="489" d="M10 -3Q0 -3 2 8L7 37Q8 45 18 45H32Q58 45 73 56T106 100L128 141Q141 164 152 180T182 204V208Q140 216 114 244T88 320Q88 357 100 386T135 435T189 466T256 477H436Q446 477 444 467L364 10Q362 0 353 0H321Q317 0 314 2T312 10L344 190Q346 196 339 196H281Q254 196 230 185T185 138L151 79Q126 35 102 16T36 -3H10ZM347 244Q352 244 354 250L386 423Q387 429 381 429H259Q207 429 173 403T139 321Q139 286 160 265T223 244H347Z"  />
<glyph unicode="&#x451;" horiz-adv-x="476" d="M206 -10Q130 -10 91 32T51 149Q51 175 53 203T61 260T75 314T95 364Q124 424 172 455T286 487Q351 487 392 448T434 330Q434 313 432 292T424 237Q422 227 412 227H113Q107 227 106 221Q101 201 101 187T100 155Q100 98 128 68T213 38Q258 38 293 56T354 102Q361 109 368 104L385 85Q391 77 384 70Q352 35 308 13T206 -10ZM373 270Q378 270 380 276Q383 290 384 303T386 327Q386 384 359 412T280 440Q235 440 199 418T141 350Q133 335 127 316T117 276Q115 270 121 270H373ZM384 607Q374 607 376 617L385 670Q387 680 396 680H433Q443 680 441 670L432 617Q430 607 421 607H384ZM192 607Q182 607 184 617L193 670Q195 680 204 680H241Q251 680 249 670L240 617Q238 607 229 607H192Z"  />
<glyph unicode="&#x452;" horiz-adv-x="519" d="M59 0Q50 0 52 10L148 554Q149 560 143 560H72Q62 560 64 571L68 596Q69 605 80 605H150Q155 605 157 611L168 670Q170 680 179 680H211Q221 680 219 670L208 611Q206 605 213 605H328Q338 605 336 594L332 569Q330 560 320 560H205Q199 560 198 554L173 411H174Q199 446 237 466T322 487Q400 487 434 440T452 305L398 10Q396 0 387 0H355Q346 0 348 10L399 292Q413 367 389 403T304 439Q279 439 255 430T210 403T175 361T155 305L102 10Q100 0 91 0H59H59Z"  />
<glyph unicode="&#x453;" horiz-adv-x="390" d="M60 0Q50 0 52 10L132 468Q133 473 136 475T143 477H408Q417 477 416 468L411 438Q410 433 407 431T399 429H182Q176 429 175 423L102 10Q100 0 90 0H60H60ZM244 558Q233 558 241 568L333 690Q341 700 352 700H386Q391 700 392 697T390 690L284 568Q279 563 276 561T266 558H244Z"  />
<glyph unicode="&#x454;" horiz-adv-x="450" d="M201 -10Q124 -10 88 36T51 157Q51 183 55 215T67 280T87 344T116 398Q179 487 284 487Q341 487 375 464T430 393Q433 385 427 381L401 367Q398 365 394 365T387 371Q367 406 345 422T279 439Q244 439 213 422T161 377Q144 352 132 322T117 274Q115 269 122 269H295Q305 269 303 258L298 230Q297 225 294 223T287 221H114Q107 221 106 215Q104 201 103 186T102 156Q102 99 129 69T208 38Q254 38 285 56T343 109Q349 117 357 111L378 95Q384 89 379 82Q347 37 304 14T201 -10Z"  />
<glyph unicode="&#x455;" horiz-adv-x="462" d="M197 -10Q166 -10 140 -4T92 12T54 33T26 57Q20 63 27 70L50 92Q57 98 63 92Q87 70 120 54T202 37Q235 37 261 46T306 70T335 106T345 151Q345 181 326 197T259 218L213 223Q94 236 94 331Q94 366 107 394T145 443T204 475T279 487Q321 487 360 473T424 441Q429 435 425 428L406 407Q403 404 400 403T391 404Q371 417 340 428T273 440Q215 440 180 411T145 338Q145 308 165 292T236 270L282 265Q341 259 368 233T396 161Q396 122 382 91T342 37T280 2T197 -10Z"  />
<glyph unicode="&#x456;" horiz-adv-x="228" d="M60 0Q50 0 52 10L132 467Q134 477 143 477H175Q185 477 183 467L102 10Q100 0 92 0H60ZM162 607Q152 607 154 617L164 670Q166 680 175 680H216Q226 680 224 670L214 617Q213 607 203 607H162Z"  />
<glyph unicode="&#x457;" horiz-adv-x="228" d="M259 607Q249 607 251 617L260 670Q262 680 271 680H308Q318 680 316 670L307 617Q305 607 296 607H259ZM67 607Q57 607 59 617L68 670Q70 680 79 680H116Q126 680 124 670L115 617Q113 607 104 607H67ZM60 0Q50 0 52 10L132 467Q134 477 143 477H175Q185 477 183 467L102 10Q100 0 92 0H60Z"  />
<glyph unicode="&#x458;" horiz-adv-x="228" d="M-58 -180Q-68 -180 -66 -170L-62 -142Q-61 -132 -50 -132H-42Q-3 -132 14 -117T40 -56L132 467Q134 477 143 477H175Q185 477 183 467L91 -56Q85 -93 75 -117T48 -155T9 -174T-48 -180H-58ZM162 607Q152 607 154 617L164 670Q166 680 175 680H216Q226 680 224 670L214 617Q213 607 203 607H162Z"  />
<glyph unicode="&#x459;" horiz-adv-x="776" d="M-11 -3Q-21 -3 -19 8L-14 37Q-13 45 -3 45H3Q19 45 39 50T79 78T117 145T150 268L185 468Q186 477 196 477H474Q482 477 481 468L449 282Q447 276 454 276H594Q657 276 688 244T719 158Q719 84 674 42T552 0H358Q347 0 349 10L423 423Q424 429 418 429H233Q227 429 226 423L195 247Q182 174 163 126T120 49T69 9T11 -3H-11ZM557 48Q607 48 637 75T668 155Q668 228 585 228H445Q439 228 438 222L408 54Q406 48 413 48H557Z"  />
<glyph unicode="&#x45A;" horiz-adv-x="775" d="M61 0Q50 0 52 10L132 468Q133 473 136 475T144 477H174Q184 477 183 468L150 280Q148 274 155 274H389Q394 274 396 280L429 468Q430 477 441 477H471Q480 477 479 468L447 280Q445 274 452 274H593Q655 274 686 242T718 157Q718 83 673 42T551 0H357Q346 0 348 10L386 220Q387 226 381 226H147Q141 226 140 220L103 10Q101 0 91 0H61ZM556 48Q606 48 636 75T667 154Q667 226 584 226H444Q438 226 437 220L407 54Q405 48 412 48H556Z"  />
<glyph unicode="&#x45B;" horiz-adv-x="519" d="M238 -180Q228 -180 230 -170L234 -142Q235 -132 246 -132H254Q293 -132 310 -117T336 -56L399 292Q413 367 389 403T304 439Q279 439 255 430T210 403T175 361T155 305L102 10Q100 0 91 0H59Q50 0 52 10L148 554Q149 560 143 560H72Q62 560 64 571L68 596Q69 605 80 605H150Q155 605 157 611L168 670Q170 680 179 680H211Q221 680 219 670L208 611Q206 605 213 605H328Q338 605 336 594L332 569Q330 560 320 560H205Q199 560 198 554L173 411H174Q199 446 237 466T322 487Q400 487 434 440T452 305L387 -56Q380 -93 370 -117T344 -155T305 -174T248 -180H238H238Z"  />
<glyph unicode="&#x45C;" horiz-adv-x="480" d="M61 0Q50 0 52 10L132 468Q135 477 144 477H173Q183 477 182 468L148 274Q146 268 153 268H211Q243 268 266 287T306 336L355 417Q367 437 378 449T402 468T430 477T465 480H481Q491 480 489 470L484 444Q483 434 471 434H466Q440 434 424 424T389 382L343 306Q329 283 315 270T283 251V247Q302 242 316 225T337 179L352 112Q359 81 371 63T415 45H427Q437 45 435 35L430 7Q428 -3 420 -3H401Q356 -3 335 23T304 91L288 163Q283 184 274 195T252 212T227 219T203 221H145Q139 221 138 215L102 10Q100 0 90 0H61H61ZM266 558Q255 558 263 568L355 690Q363 700 374 700H408Q413 700 414 697T412 690L306 568Q301 563 298 561T288 558H266Z"  />
<glyph unicode="&#x45E;" horiz-adv-x="449" d="M8 -180Q-2 -180 0 -170L4 -142Q5 -132 16 -132H33Q48 -132 60 -128T85 -114T109 -85T137 -39L164 10L75 467Q73 477 83 477H116Q126 477 127 467L198 80H199L406 467Q410 477 419 477H454Q465 477 460 467L182 -47Q160 -88 141 -114T104 -154T68 -174T27 -180H8H8ZM273 571Q225 571 200 596T169 669Q168 678 174 680L198 684Q205 686 206 679Q211 650 226 631T277 611Q312 611 336 632T373 680Q377 687 385 684L405 677Q411 675 408 667Q385 617 353 594T273 571Z"  />
<glyph unicode="&#x45F;" horiz-adv-x="519" d="M183 -135Q173 -135 175 -126L196 -6Q197 0 192 0H61Q50 0 52 9L132 467Q134 477 144 477H174Q185 477 183 467L110 54Q108 48 115 48H343Q348 48 350 54L423 467Q425 477 434 477H466Q476 477 474 467L393 9Q391 0 382 0H252Q245 0 244 -6L224 -126Q222 -135 212 -135H183H183Z"  />
<glyph unicode="&#x490;" horiz-adv-x="480" d="M63 0Q52 0 54 10L170 671Q172 680 181 680H488Q497 680 499 689L519 803Q520 806 522 809T531 812H562Q566 812 568 809T569 803L540 638Q538 629 530 629H222Q216 629 215 623L107 10Q105 0 96 0H63H63Z"  />
<glyph unicode="&#x491;" horiz-adv-x="390" d="M60 0Q50 0 52 10L132 467Q133 472 136 474T143 477H364Q369 477 371 483L390 586Q392 596 401 596H429Q439 596 437 586L411 438Q409 429 399 429H182Q176 429 175 423L102 10Q100 0 90 0H60H60Z"  />
<glyph unicode="&#x2013;" horiz-adv-x="484" d="M41 244Q32 244 34 254L38 281Q39 289 49 289H459Q469 289 467 279L463 253Q461 244 452 244H41Z"  />
<glyph unicode="&#x2014;" horiz-adv-x="796" d="M41 244Q32 244 34 254L38 281Q39 289 49 289H771Q781 289 779 279L775 253Q773 244 764 244H41Z"  />
<glyph unicode="&#x2018;" horiz-adv-x="199" d="M135 523Q126 523 128 533L140 601Q143 615 148 623L187 673Q191 681 199 681Q207 681 206 672L182 533Q180 523 171 523H135Z"  />
<glyph unicode="&#x2019;" horiz-adv-x="199" d="M135 522Q126 522 128 531L151 670Q153 680 162 680H199Q208 680 206 670L194 603Q191 587 186 581L147 530Q141 522 135 522Z"  />
<glyph unicode="&#x201A;" horiz-adv-x="199" d="M28 -83Q19 -83 21 -74L44 65Q46 75 55 75H92Q101 75 99 65L87 -2Q84 -18 79 -24L40 -75Q34 -83 28 -83Z"  />
<glyph unicode="&#x201C;" horiz-adv-x="330" d="M266 523Q257 523 259 533L271 601Q274 615 279 623L318 673Q322 681 330 681Q338 681 337 672L313 533Q311 523 302 523H266ZM135 523Q126 523 128 533L140 601Q143 615 148 623L187 673Q191 681 199 681Q207 681 206 672L182 533Q180 523 171 523H135Z"  />
<glyph unicode="&#x201D;" horiz-adv-x="330" d="M266 522Q257 522 259 531L283 670Q285 680 294 680H330Q339 680 337 670L325 603Q322 587 317 581L278 530Q272 522 266 522ZM135 522Q126 522 128 531L151 670Q153 680 162 680H199Q208 680 206 670L194 603Q191 587 186 581L147 530Q141 522 135 522Z"  />
<glyph unicode="&#x201E;" horiz-adv-x="330" d="M159 -83Q150 -83 152 -74L176 65Q178 75 187 75H223Q232 75 230 65L218 -2Q215 -18 210 -24L171 -75Q166 -83 159 -83ZM28 -83Q19 -83 21 -74L44 65Q46 75 55 75H92Q101 75 99 65L87 -2Q84 -18 79 -24L40 -75Q34 -83 28 -83Z"  />
<glyph unicode="&#x2020;" horiz-adv-x="424" d="M128 -180Q118 -180 120 -170L216 375Q217 381 212 381H81Q71 381 73 391L77 418Q78 427 89 427H218Q224 427 226 433L268 670Q269 680 279 680H308Q319 680 317 670L274 433Q272 427 279 427H409Q419 427 417 417L413 390Q411 381 402 381H272Q266 381 265 375L169 -170Q166 -180 157 -180H128Z"  />
<glyph unicode="&#x2021;" horiz-adv-x="424" d="M123 -180Q112 -180 115 -170L152 40Q153 46 148 46H17Q7 46 9 56L13 83Q14 92 24 92H154Q160 92 162 98L216 404Q217 410 212 410H81Q71 410 73 420L77 447Q78 456 88 456H218Q224 456 226 462L263 670Q264 680 274 680H303Q314 680 312 670L274 462Q272 456 279 456H409Q419 456 417 446L413 419Q411 410 402 410H272Q266 410 265 404L210 98Q208 92 215 92H345Q355 92 353 82L349 55Q347 46 338 46H208Q202 46 201 40L164 -170Q161 -180 152 -180H123Z"  />
<glyph unicode="&#x2022;" horiz-adv-x="360" d="M198 192Q148 192 116 224T83 308Q83 359 115 391T198 424Q222 424 243 416T279 392T303 355T312 308Q312 283 304 262T280 225T243 201T198 192Z"  />
<glyph unicode="&#x2026;" horiz-adv-x="625" d="M503 10Q501 0 492 0H447Q436 0 438 10L449 75Q451 85 460 85H505Q516 85 514 75L503 10ZM295 10Q293 0 284 0H238Q228 0 230 10L241 75Q243 85 252 85H297Q307 85 305 75L295 10ZM87 10Q85 0 76 0H30Q20 0 22 10L32 75Q34 85 43 85H89Q99 85 97 75L87 10Z"  />
<glyph unicode="&#x2030;" horiz-adv-x="1023" d="M122 -10Q111 -10 118 0L617 680Q624 690 632 690H657Q666 690 661 680L163 0Q156 -10 147 -10H122ZM217 330Q175 330 149 354T123 423Q123 437 126 463T135 519T148 574T162 614Q198 688 275 688Q317 688 342 664T368 595Q368 581 365 555T356 499T344 444T330 404Q294 330 217 330ZM221 368Q267 368 291 414Q297 427 303 451T315 502T324 553T327 592Q327 618 313 634T271 650Q224 650 200 604Q194 591 188 567T176 516T167 465T164 426Q164 400 178 384T221 368ZM795 -8Q753 -8 728 15T702 84Q702 98 705 124T714 180T726 235T740 276Q776 350 854 350Q896 350 921 326T947 257Q947 243 944 217T935 161T923 106T909 65Q873 -8 795 -8ZM505 -8Q463 -8 437 15T411 84Q411 98 414 124T423 180T436 235T450 276Q486 350 563 350Q605 350 631 326T657 257Q657 243 654 217T645 161T632 106T618 65Q582 -8 505 -8ZM799 30Q846 30 870 75Q876 88 882 112T894 163T903 215T906 254Q906 280 892 295T849 311Q802 311 779 266Q772 253 766 229T754 178T745 127T742 88Q742 62 756 46T799 30ZM509 30Q555 30 579 75Q586 88 592 112T604 163T612 215T616 254Q616 280 602 295T559 311Q513 311 488 266Q482 253 476 229T464 178T455 127T452 88Q452 62 466 46T509 30Z"  />
<glyph unicode="&#x2039;" horiz-adv-x="297" d="M56 257Q50 265 58 271L251 444Q254 447 257 446T260 440L254 398Q251 388 244 379L114 265Q109 261 112 257L200 143Q206 135 205 124L199 87Q198 82 195 82T188 84L56 257Z"  />
<glyph unicode="&#x203A;" horiz-adv-x="297" d="M60 84Q57 81 54 82T51 88L58 130Q59 139 68 148L198 262Q202 266 200 270L111 385Q106 393 107 403L113 440Q114 445 117 446T123 444L256 270Q263 263 254 256L60 84H60Z"  />
<glyph unicode="&#x20AC;" horiz-adv-x="510" d="M241 -10Q169 -10 130 29T90 147Q90 167 92 189T103 254Q104 260 98 260H53Q43 260 45 270L49 293Q51 303 60 303H105Q110 303 112 309L125 378Q127 384 120 384H75Q65 384 67 394L70 416Q72 426 82 426H126Q132 426 133 431Q144 483 152 514T172 568Q201 630 250 660T364 690Q398 690 423 681T466 655T495 618T511 573Q514 565 505 561L479 548Q470 544 467 554Q455 596 430 619T356 642Q311 642 276 620T219 555Q210 536 201 509T184 432Q182 426 189 426H386Q391 426 392 423T391 415L380 393Q375 384 367 384H181Q175 384 174 378L162 309Q160 303 167 303H345Q350 303 351 300T350 292L338 269Q333 260 325 260H160Q154 260 153 254Q145 207 143 188T140 155Q140 38 248 38Q295 38 330 62T391 126Q396 135 404 132L428 119Q436 115 431 106Q417 82 399 61T356 25T304 0T241 -10Z"  />
<glyph unicode="&#x2116;" horiz-adv-x="907" d="M63 0Q52 0 54 10L171 671Q173 680 182 680H220Q227 680 230 672L456 99H459L561 671Q563 680 570 680H604Q615 680 613 671L496 10Q494 0 485 0H443Q437 0 435 5L210 583H207L106 10Q104 0 95 0H63ZM632 159Q629 159 627 162T625 170L629 192Q630 196 633 198T640 201H851Q861 201 859 190L855 168Q853 159 843 159H632ZM756 247Q707 247 679 275T650 357Q650 391 659 425T687 489Q725 549 803 549Q854 549 882 521T910 439Q910 397 898 362T865 301Q823 247 756 247ZM761 289Q783 289 800 299T832 327Q847 347 856 375T865 434Q865 469 849 488T799 508Q747 508 720 462Q708 441 702 415T696 362Q696 289 761 289Z"  />
<glyph unicode="&#x2122;" horiz-adv-x="816" d="M768 286Q758 286 758 296V585H756L641 350Q637 342 629 342H611Q604 342 600 350L485 585H483V296Q483 286 473 286H453Q443 286 443 296V670Q443 680 453 680H474Q482 680 487 671L621 394H623L754 671Q758 680 766 680H788Q798 680 798 670V296Q798 286 788 286H768ZM211 286Q201 286 201 296V636Q201 642 195 642H84Q74 642 74 652V670Q74 680 84 680H359Q369 680 369 670V652Q369 642 359 642H248Q242 642 242 636V296Q242 286 232 286H211Z"  />

</font>
</defs>
</svg>
