<?xml  version="1.0" encoding="UTF-8"?>
<!DOCTYPE svg PUBLIC "-//W3C//DTD SVG 1.0//EN" "http://www.w3.org/TR/2001/REC-SVG-20010904/DTD/svg10.dtd" >
<svg xmlns="http://www.w3.org/2000/svg" >
<metadata>
<version>1.0</version>
<id><![CDATA[Proxima N W10 Reg It]]></id>
<vendor>Monotype Imaging Inc.</vendor>
<credits>
<name>Fonts.com WebFonts</name>
<URL>http://webfonts.fonts.com</URL>
<role>Home of the Web fonts</role>
</credits>
<license>
<URL>http://webfonts.fonts.com/Legal</URL>
</license>
<copyright><![CDATA[Copyright (c) Mark Simonson, 2005. All rights reserved.]]></copyright>
<trademark><![CDATA[Proxima Nova is a trademark of Mark Simonson.]]></trademark>
<licensee>
<name></name>
</licensee>
</metadata>
<defs >
<font horiz-adv-x="538" id="324b7d5c-d187-4ff7-a9ab-e8f3246ab559">
<font-face font-family="" panose-1="2 0 5 6 3 0 0 2 0 4" ascent="741" descent="-259" units-per-em="1000" alphabetic="0">
</font-face>
<missing-glyph horiz-adv-x="0" />

<glyph unicode="&#xA;" />
<glyph unicode="&#xD;" horiz-adv-x="0" />
<glyph unicode=" " horiz-adv-x="258" />
<glyph unicode="!" horiz-adv-x="230" d="M70 187L161 667H255L133 187H70ZM66 -10Q44 -10 30 4T15 40Q15 65 33 82T76 100Q97 100 111 85T126 49Q126 24 108 7T66 -10Z"  />
<glyph unicode="&quot;" horiz-adv-x="343" d="M116 412Q122 466 126 511Q128 530 129 548T132 582T135 608T136 622Q138 646 152 661T190 677Q207 677 218 665T230 635Q230 629 228 622T225 612Q224 610 221 601T213 578T201 545T188 509Q172 466 153 412H116ZM263 412Q269 466 273 511Q275 530 276 548T279 582T282 608T283 622Q285 646 299 661T336 677Q353 677 365 665T377 635Q377 629 375 622T371 612Q370 610 367 601T358 578T347 545T334 509Q319 466 300 412H263Z"  />
<glyph unicode="#" horiz-adv-x="590" d="M185 0L286 181H175L75 0H13L114 181H7L36 234H143L254 433H146L173 485H283L383 667H445L344 485H455L555 667H616L515 485H622L596 433H487L375 234H486L458 181H346L246 0H185ZM425 433H315L204 234H314L425 433Z"  />
<glyph unicode="$" horiz-adv-x="593" d="M215 -5Q149 7 98 36T20 107L77 167Q103 130 142 105T231 69L285 310Q253 323 222 337T167 372T128 419T113 483Q113 522 130 557T179 618T254 661T349 677Q354 677 357 677T366 676L387 768H448L426 669Q479 658 521 633T590 572L533 514Q510 545 478 565T409 595L360 376Q392 363 423 348T478 312T518 264T533 199Q533 159 517 121T471 54T395 6T290 -12Q286 -12 282 -12T274 -11L255 -100H194L215 -5ZM444 186Q444 222 414 245T341 287L291 62H297Q336 62 364 73T409 103T435 143T444 186ZM202 494Q202 460 231 439T304 399L350 604H340Q311 604 286 595T242 571T213 535T202 494Z"  />
<glyph unicode="%" horiz-adv-x="731" d="M74 0L647 667H702L128 0H74ZM505 -12Q474 -12 447 -3T400 24T367 67T355 123Q355 166 369 202T409 263T466 303T533 317Q564 317 591 308T638 281T671 238T683 182Q683 138 669 103T629 42T572 2T505 -12ZM506 38Q529 38 550 48T588 77T613 121T623 177Q623 215 597 240T531 266Q508 266 487 256T450 227T425 184T415 128Q415 90 440 64T506 38ZM236 348Q205 348 178 357T131 384T99 427T87 483Q87 526 101 562T140 623T197 663T265 677Q296 677 323 668T370 641T402 598T414 542Q414 498 400 463T361 402T304 362T236 348ZM238 398Q261 398 282 408T320 437T345 481T355 537Q355 575 329 600T263 626Q240 626 219 616T182 587T157 544T147 488Q147 450 172 424T238 398Z"  />
<glyph unicode="&amp;" horiz-adv-x="641" d="M443 0Q433 12 422 26T400 56Q359 25 314 7T217 -12Q175 -12 139 -2T75 30T32 82T16 155Q16 203 32 238T76 300T138 346T212 380Q201 410 195 438T189 496Q189 533 204 566T244 624T302 663T373 677Q404 677 431 670T478 647T509 610T521 557Q521 513 503 482T454 429T386 390T307 357Q318 334 331 310T358 263Q375 234 390 209T421 160Q457 199 484 239T527 306L585 272Q559 233 527 190T457 107Q475 81 495 55T538 0H443ZM226 50Q261 50 296 65T364 107Q341 139 323 168T293 217Q276 246 261 274T234 328Q206 315 182 300T139 266T111 222T100 165Q100 136 110 115T138 79T178 57T226 50ZM267 496Q267 476 272 454T285 408Q318 420 347 433T399 463T435 501T449 550Q449 584 428 601T376 618Q357 618 338 610T303 587T277 549T267 496Z"  />
<glyph unicode="&apos;" horiz-adv-x="199" d="M116 412Q122 466 126 511Q128 530 129 548T132 582T135 608T136 622Q138 646 152 661T190 677Q207 677 218 665T230 635Q230 629 228 622T225 612Q224 610 221 601T213 578T201 545T188 509Q172 466 153 412H116Z"  />
<glyph unicode="(" horiz-adv-x="248" d="M88 -199Q58 -139 42 -66T25 91Q25 247 91 400T282 685L321 647Q219 514 162 370T104 63Q104 7 114 -54T141 -169L88 -199Z"  />
<glyph unicode=")" horiz-adv-x="248" d="M159 685Q189 625 205 551T222 395Q222 238 156 86T-36 -199L-74 -161Q28 -28 85 116T143 422Q143 479 133 540T106 655L159 685Z"  />
<glyph unicode="*" horiz-adv-x="340" d="M178 389L210 506L99 456L86 496L199 537L110 599L141 635L223 564L242 677H289L256 560L367 611L380 570L268 529L357 467L325 431L243 502L224 389H178Z"  />
<glyph unicode="+" horiz-adv-x="499" d="M293 311L245 98H188L235 311H44L55 363H247L292 570H350L304 363H496L484 311H293Z"  />
<glyph unicode="&#x2c;" horiz-adv-x="230" d="M128 41Q128 18 119 -6T94 -51T57 -91T13 -121L-18 -88Q9 -74 33 -52T66 -4H58Q41 -4 28 8T15 40Q15 65 33 82T75 100Q97 100 112 85T128 41Z"  />
<glyph unicode="-" horiz-adv-x="300" d="M22 209L36 275H276L262 209H22Z"  />
<glyph unicode="." horiz-adv-x="230" d="M66 -10Q44 -10 30 4T15 40Q15 65 33 82T76 100Q97 100 111 85T126 49Q126 24 108 7T66 -10Z"  />
<glyph unicode="/" horiz-adv-x="296" d="M-60 -20L333 687H396L2 -20H-60Z"  />
<glyph unicode="0" horiz-adv-x="612" d="M278 -12Q172 -12 116 58T59 248Q59 323 80 399T142 537T241 638T373 677Q426 677 466 659T535 607T577 526T591 418Q591 343 570 266T508 128T409 27T278 -12ZM285 62Q337 62 378 96T447 184T491 300T506 423Q506 462 499 495T474 552T430 589T365 603Q313 603 272 569T203 481T159 365T143 243Q143 204 151 171T176 114T220 76T285 62Z"  />
<glyph unicode="1" horiz-adv-x="339" d="M124 0L247 557L115 444L76 495L281 667H354L207 0H124Z"  />
<glyph unicode="2" horiz-adv-x="588" d="M0 0L18 81Q118 143 203 198T349 304T444 403T479 498Q479 548 439 575T335 603Q278 603 237 585T164 538L125 597Q163 633 220 655T340 677Q384 677 425 666T497 634T548 579T567 502Q567 445 533 391T441 283T307 177T147 74H473L458 0H0Z"  />
<glyph unicode="3" horiz-adv-x="557" d="M252 -12Q210 -12 170 -2T96 26T36 69T-3 127L57 174Q83 120 136 91T251 62Q326 62 368 102T410 202Q410 247 372 276T262 305Q242 305 224 305T198 304L215 380Q219 380 230 380T254 379T282 379T306 379Q337 379 366 386T417 407T453 444T466 497Q466 542 425 572T314 603Q271 603 228 588T145 537L110 594Q149 632 204 654T320 677Q370 677 412 666T485 634T533 581T550 509Q550 471 534 441T493 388T435 354T370 338Q394 332 416 321T455 291T482 249T492 195Q492 152 475 115T425 49T349 5T252 -12Z"  />
<glyph unicode="4" horiz-adv-x="558" d="M295 0L332 169H15L32 244L406 667H525L430 242H524L509 169H415L378 0H295ZM425 590L114 242H347L425 590Z"  />
<glyph unicode="5" horiz-adv-x="590" d="M278 -12Q188 -12 129 21T35 121L98 171Q124 115 170 89T282 62Q317 62 347 74T400 108T436 159T449 222Q449 253 438 276T406 316T359 340T298 349Q258 349 225 337T160 301L105 328L180 667H588L572 593H247L198 373Q221 392 257 405T338 418Q378 418 414 406T477 370T520 311T536 230Q536 181 517 137T464 60T383 8T278 -12Z"  />
<glyph unicode="6" horiz-adv-x="591" d="M283 -12Q173 -12 114 52T55 234Q55 304 74 382T134 525T237 634T383 677Q453 677 504 651T584 577L528 521Q508 560 469 581T378 603Q330 603 293 581T227 522T181 441T151 352Q146 337 146 332Q159 347 179 362T225 389T279 409T338 417Q382 417 419 405T483 371T525 316T540 242Q540 191 520 145T466 64T384 9T283 -12ZM284 62Q321 62 352 76T405 113T440 167T453 231Q453 286 412 317T305 348Q256 348 214 326T137 266Q136 259 136 244T135 218Q135 149 173 106T284 62Z"  />
<glyph unicode="7" horiz-adv-x="515" d="M65 0L462 593H107L124 667H579L566 610L161 0H65Z"  />
<glyph unicode="8" horiz-adv-x="581" d="M271 -12Q221 -12 178 -2T101 30T49 84T30 158Q30 233 85 283T232 353Q211 361 190 374T153 405T126 445T116 494Q116 541 137 575T193 632T269 666T353 677Q397 677 438 667T511 635T562 584T581 513Q581 477 567 447T528 395T468 357T392 336Q413 326 435 312T476 278T505 233T517 178Q517 136 498 101T444 41T366 2T271 -12ZM320 378Q357 381 388 390T443 414T479 451T492 500Q492 522 481 540T450 572T404 594T348 602Q319 602 292 595T245 572T212 536T199 486Q199 465 210 448T240 416T279 392T320 378ZM274 62Q304 62 332 70T383 95T419 134T433 186Q433 210 421 230T389 265T348 291T305 307Q265 305 231 295T172 267T133 225T118 173Q118 146 130 125T164 90T213 69T274 62Z"  />
<glyph unicode="9" horiz-adv-x="591" d="M347 678Q456 678 515 614T575 432Q575 385 567 334T540 234T495 141T432 63T349 9T246 -11Q176 -11 125 15T45 89L101 145Q121 106 160 85T251 63Q300 63 337 85T402 144T448 224T478 313Q482 326 484 334Q470 319 450 304T404 277T351 256T292 248Q248 248 211 260T147 295T105 350T89 424Q89 475 109 521T163 602T245 657T347 678ZM345 604Q308 604 277 590T224 553T188 499T175 435Q175 380 216 349T324 317Q373 317 415 339T493 399Q494 406 494 422T494 447Q494 516 456 560T345 604Z"  />
<glyph unicode=":" horiz-adv-x="230" d="M66 -10Q44 -10 30 4T15 40Q15 65 33 82T76 100Q97 100 111 85T126 49Q126 24 108 7T66 -10ZM152 380Q131 380 117 395T102 431Q102 456 119 473T162 490Q183 490 197 475T212 440Q212 414 195 397T152 380Z"  />
<glyph unicode=";" horiz-adv-x="230" d="M128 41Q128 18 119 -6T94 -51T57 -91T13 -121L-18 -88Q9 -74 33 -52T66 -4H58Q41 -4 28 8T15 40Q15 65 33 82T75 100Q97 100 112 85T128 41ZM152 380Q131 380 117 395T102 431Q102 456 119 473T162 490Q183 490 197 475T212 440Q212 414 195 397T152 380Z"  />
<glyph unicode="&lt;" horiz-adv-x="499" d="M42 308L55 361L544 580L529 514L112 331L448 150L435 90L42 308Z"  />
<glyph unicode="=" horiz-adv-x="499" d="M64 404L76 457H517L505 404H64ZM21 211L33 263H474L462 211H21Z"  />
<glyph unicode="&gt;" horiz-adv-x="499" d="M-6 90L9 156L426 337L90 520L103 580L495 361L483 308L-6 90Z"  />
<glyph unicode="?" horiz-adv-x="462" d="M190 185Q166 216 166 256Q166 292 183 316T227 359T285 393T342 425T386 463T404 516Q404 555 373 579T282 603Q193 603 129 539L91 595Q137 638 186 657T292 677Q335 677 372 667T436 637T478 591T493 531Q493 486 474 456T427 404T366 366T305 333T258 298T239 251Q239 243 242 232T257 211L190 185ZM174 -10Q153 -10 139 4T124 40Q124 65 142 82T184 100Q206 100 220 85T235 49Q235 24 217 7T174 -10Z"  />
<glyph unicode="@" horiz-adv-x="783" d="M372 -70Q304 -70 246 -46T146 20T79 120T55 244Q55 325 88 396T175 522T302 607T452 638Q523 638 581 613T680 545T744 445T767 321Q767 262 752 218T712 145T656 100T594 85Q552 85 529 109T503 166L502 172Q476 135 434 110T344 85Q274 85 233 130T191 248Q191 300 211 346T264 426T339 479T426 499Q475 499 507 476T554 421L567 483H635L578 212Q577 207 577 202T576 191Q576 165 589 152T623 139Q638 139 656 148T691 178T719 234T731 321Q731 382 711 434T653 524T564 583T448 604Q376 604 311 575T196 496T118 381T89 246Q89 186 110 134T170 44T261 -15T376 -37Q430 -37 475 -22T562 19L580 -7Q533 -37 481 -53T372 -70ZM364 141Q390 141 412 149T453 170T487 199T513 231L542 369Q538 381 530 394T509 418T479 436T439 443Q401 443 369 427T313 384T276 323T262 252Q262 204 289 173T364 141Z"  />
<glyph unicode="A" horiz-adv-x="658" d="M504 0L478 148H145L54 0H-45L370 667H473L595 0H504ZM407 581L187 222H470L407 581Z"  />
<glyph unicode="B" horiz-adv-x="629" d="M24 0L171 667H448Q485 667 516 656T569 624T605 576T618 514Q618 478 606 447T572 392T522 353T463 335Q485 329 503 316T534 285T554 244T561 198Q561 161 548 126T506 62T435 17T333 0H24ZM397 378Q434 378 459 389T499 418T521 458T528 502Q528 541 499 567T427 593H238L190 378H397ZM331 74Q367 74 394 85T439 114T466 155T476 204Q476 247 448 275T369 304H173L122 74H331Z"  />
<glyph unicode="C" horiz-adv-x="676" d="M368 -12Q302 -12 246 8T148 67T83 160T60 280Q60 370 91 443T175 569T295 649T435 678Q535 678 603 636T707 521L628 490Q598 550 546 577T430 604Q376 604 326 581T236 516T172 415T148 284Q148 235 163 194T208 124T279 79T373 62Q420 62 466 81T552 138L613 92Q560 35 495 12T368 -12Z"  />
<glyph unicode="D" horiz-adv-x="700" d="M24 0L171 667H394Q449 667 499 646T588 587T648 497T671 382Q671 314 646 246T570 123T439 34T251 0H24ZM265 74Q338 74 397 98T498 164T561 261T584 378Q584 424 569 463T526 531T460 576T378 593H238L122 74H261H265Z"  />
<glyph unicode="E" horiz-adv-x="569" d="M24 0L171 667H608L592 593H238L190 378H537L521 304H173L122 74H477L461 0H24Z"  />
<glyph unicode="F" horiz-adv-x="550" d="M24 0L171 667H608L592 593H238L190 378H537L521 304H173L107 0H24Z"  />
<glyph unicode="G" horiz-adv-x="713" d="M368 -12Q300 -12 243 9T146 69T83 161T60 280Q60 367 90 440T171 566T292 648T441 678Q536 678 602 637T704 532L629 497Q603 549 549 576T430 604Q375 604 324 580T234 514T172 413T148 284Q148 234 164 194T209 124T280 78T373 62Q430 62 473 83T548 133L579 269H349L365 343H678L624 98Q572 45 508 17T368 -12Z"  />
<glyph unicode="H" horiz-adv-x="712" d="M497 0L564 306H174L107 0H24L171 667H254L191 380H581L644 667H727L580 0H497Z"  />
<glyph unicode="I" horiz-adv-x="239" d="M24 0L171 667H254L107 0H24Z"  />
<glyph unicode="J" horiz-adv-x="475" d="M158 -12Q101 -12 53 9T-22 72L28 132Q46 100 78 81T154 62Q217 62 253 100T304 202L407 667H490L387 201Q363 92 306 40T158 -12Z"  />
<glyph unicode="K" horiz-adv-x="601" d="M433 0L243 304L156 224L107 0H24L171 667H254L179 330L544 667H653L305 350L530 0H433Z"  />
<glyph unicode="L" horiz-adv-x="517" d="M24 0L171 667H254L122 74H433L417 0H24Z"  />
<glyph unicode="M" horiz-adv-x="809" d="M594 0L718 561L367 0H333L230 561L107 0H24L171 667H286L380 153L701 667H824L677 0H594Z"  />
<glyph unicode="N" horiz-adv-x="708" d="M496 0L227 544L107 0H24L171 667H256L522 133L640 667H723L576 0H496Z"  />
<glyph unicode="O" horiz-adv-x="765" d="M368 -12Q304 -12 248 7T150 64T84 156T60 280Q60 364 89 436T169 562T288 647T435 678Q499 678 555 659T653 602T719 510T743 387Q743 303 714 230T634 104T515 19T368 -12ZM373 62Q430 62 481 86T570 152T632 254T655 382Q655 435 638 476T589 546T517 589T430 604Q373 604 322 580T232 514T171 412T148 284Q148 230 165 189T213 120T285 77T373 62Z"  />
<glyph unicode="P" horiz-adv-x="587" d="M24 0L171 667H419Q462 667 496 653T555 616T591 561T604 494Q604 456 591 416T547 342T468 287T349 265H165L107 0H24ZM356 339Q395 339 425 351T476 383T506 431T517 488Q517 509 509 528T486 562T451 584T406 593H238L181 339H356Z"  />
<glyph unicode="Q" horiz-adv-x="765" d="M368 -12Q304 -12 248 7T150 64T84 156T60 280Q60 364 89 436T169 562T288 647T435 678Q499 678 555 659T653 602T719 510T743 387Q743 286 702 202T590 64L632 5L565 -31L526 24Q490 7 451 -2T368 -12ZM373 62Q429 62 482 87L404 199L470 235L545 128Q595 171 625 236T655 382Q655 435 638 476T589 546T517 589T430 604Q373 604 322 580T232 514T171 412T148 284Q148 230 165 189T213 120T285 77T373 62Z"  />
<glyph unicode="R" horiz-adv-x="608" d="M416 0L304 265H164L107 0H24L171 667H416Q452 667 486 655T546 621T589 566T605 493Q605 447 590 408T546 339T477 291T388 269L508 0H416ZM357 338Q396 338 425 349T475 381T506 429T517 486Q517 510 508 529T482 563T446 585T404 593H238L181 338H354H357Z"  />
<glyph unicode="S" horiz-adv-x="586" d="M286 -12Q241 -12 200 -3T123 22T61 59T16 107L73 167Q108 119 165 91T293 62Q332 62 360 73T405 103T431 143T440 186Q440 219 416 240T354 279T275 312T195 351T134 404T109 483Q109 522 126 557T175 618T250 661T345 677Q423 677 487 649T586 572L529 514Q496 560 444 582T336 604Q307 604 282 595T238 571T209 535T198 494Q198 464 222 444T284 407T363 374T443 334T504 279T529 199Q529 159 513 121T467 54T391 6T286 -12Z"  />
<glyph unicode="T" horiz-adv-x="570" d="M189 0L320 593H109L125 667H631L615 593H403L272 0H189Z"  />
<glyph unicode="U" horiz-adv-x="700" d="M336 -12Q274 -12 226 3T144 48T94 118T76 210Q76 223 77 236T81 259L171 667H254L165 261Q163 255 162 244T160 219Q160 185 171 156T205 106T261 74T336 62Q382 62 416 76T474 115T515 178T542 261L632 667H715L626 260Q612 198 590 148T534 63T452 8T336 -12Z"  />
<glyph unicode="V" horiz-adv-x="658" d="M223 0L102 667H192L290 91L643 667H742L326 0H223Z"  />
<glyph unicode="W" horiz-adv-x="883" d="M534 0L506 538L240 0H150L107 667H197L221 111L497 667H567L596 111L867 667H961L624 0H534Z"  />
<glyph unicode="X" horiz-adv-x="652" d="M491 0L337 282L65 0H-42L294 347L120 667H215L357 402L609 667H717L400 337L585 0H491Z"  />
<glyph unicode="Y" horiz-adv-x="626" d="M218 0L280 282L102 667H193L332 357L607 667H710L363 282L301 0H218Z"  />
<glyph unicode="Z" horiz-adv-x="585" d="M-6 0L9 69L494 593H125L141 667H622L608 598L121 74H499L482 0H-6Z"  />
<glyph unicode="[" horiz-adv-x="243" d="M-57 -190L136 678H322L310 623H182L14 -135H142L129 -190H-57Z"  />
<glyph unicode="\" horiz-adv-x="296" d="M98 687H157L237 -20H178L98 687Z"  />
<glyph unicode="]" horiz-adv-x="243" d="M-79 -190L-67 -135H60L229 623H101L113 678H299L106 -190H-79Z"  />
<glyph unicode="^" horiz-adv-x="432" d="M373 333L300 612L103 333H38L281 667H338L432 333H373Z"  />
<glyph unicode="_" horiz-adv-x="564" d="M-78 -95L-65 -40H504L491 -95H-78Z"  />
<glyph unicode="`" horiz-adv-x="226" d="M238 556L101 700H179L295 556H238Z"  />
<glyph unicode="a" horiz-adv-x="575" d="M293 495Q350 495 393 471T461 407L478 483H553L446 0H371L386 69Q356 31 316 10T227 -12Q185 -12 151 1T92 40T54 103T40 187Q40 246 57 301T108 400T187 469T293 495ZM303 428Q262 428 228 409T170 358T133 285T119 201Q119 133 156 94T254 55Q299 55 338 79T401 137L449 350Q431 382 394 405T303 428Z"  />
<glyph unicode="b" horiz-adv-x="575" d="M281 -12Q224 -12 181 12T113 76L96 0H21L168 667H243L187 414Q218 452 258 473T347 495Q388 495 422 482T481 443T520 380T534 296Q534 237 517 182T466 83T386 14T281 -12ZM271 55Q312 55 346 74T404 125T441 197T455 282Q455 350 418 389T320 428Q274 428 235 404T172 345L125 133Q143 100 180 78T271 55Z"  />
<glyph unicode="c" horiz-adv-x="495" d="M262 -12Q213 -12 173 3T103 45T57 113T40 204Q40 264 61 316T118 409T205 472T312 495Q379 495 423 471T493 405L436 362Q417 395 385 411T314 428Q269 428 233 410T171 360T132 289T118 205Q118 168 129 140T161 93T209 65T269 55Q307 55 338 71T391 112L434 62Q403 30 362 9T262 -12Z"  />
<glyph unicode="d" horiz-adv-x="575" d="M293 495Q350 495 393 471T461 407L519 667H594L446 0H371L386 69Q356 31 316 10T227 -12Q185 -12 151 1T92 40T54 103T40 187Q40 246 57 301T108 400T187 469T293 495ZM303 428Q262 428 228 409T170 358T133 285T119 201Q119 133 156 94T254 55Q299 55 338 79T401 137L449 350Q431 382 394 405T303 428Z"  />
<glyph unicode="e" horiz-adv-x="563" d="M276 -12Q221 -12 177 3T103 47T56 114T40 202Q40 262 61 315T118 408T205 471T312 495Q360 495 398 480T464 436T505 369T520 284Q520 267 517 248T512 217H118Q118 214 118 207T117 194Q117 166 127 140T158 94T209 62T281 50Q316 50 353 62T420 97L445 45Q413 19 368 4T276 -12ZM450 272Q451 275 451 281T452 291Q452 351 415 392T305 433Q272 433 242 420T188 385T148 334T126 272H450Z"  />
<glyph unicode="f" horiz-adv-x="283" d="M42 0L134 418H54L69 483H149L157 520Q164 554 177 583T210 633T256 665T318 677Q352 677 376 668T423 636L383 591Q372 602 358 608T321 615Q283 615 263 591T232 520L224 483H322L307 418H209L117 0H42Z"  />
<glyph unicode="g" horiz-adv-x="574" d="M212 -196Q143 -196 89 -179T-4 -114L44 -63Q69 -99 112 -116T211 -134Q238 -134 263 -127T309 -102T347 -56T373 14L387 77Q358 40 316 18T223 -5Q185 -5 152 7T93 43T54 106T39 195Q39 252 56 306T106 402T185 469T291 495Q315 495 339 489T386 470T427 442T460 407L477 483H552L448 14Q435 -46 411 -86T356 -150T288 -185T212 -196ZM253 62Q295 62 335 84T401 139L447 348Q427 385 386 406T297 428Q256 428 223 409T166 359T131 289T118 207Q118 139 154 101T253 62Z"  />
<glyph unicode="h" horiz-adv-x="552" d="M348 0L417 317Q419 324 421 334T423 350Q423 392 395 410T323 428Q281 428 242 404T174 351L96 0H21L168 667H243L187 413Q219 443 262 469T358 495Q422 495 462 465T502 375Q502 369 500 356T496 335L423 0H348Z"  />
<glyph unicode="i" horiz-adv-x="225" d="M186 552Q166 552 153 564T140 596Q140 622 158 637T197 653Q217 653 230 640T243 609Q243 582 225 567T186 552ZM21 0L128 483H203L96 0H21Z"  />
<glyph unicode="j" horiz-adv-x="225" d="M-68 -196Q-106 -196 -135 -186T-183 -154L-147 -100Q-136 -115 -118 -124T-78 -134Q-46 -134 -24 -114T10 -47L128 483H203L85 -47Q69 -119 34 -157T-68 -196ZM186 552Q166 552 153 564T140 596Q140 622 158 637T197 653Q217 653 230 640T243 609Q243 582 225 567T186 552Z"  />
<glyph unicode="k" horiz-adv-x="514" d="M355 0L227 220L126 138L96 0H21L168 667H243L147 230L453 483H552L289 264L446 0H355Z"  />
<glyph unicode="l" horiz-adv-x="225" d="M21 0L168 667H243L96 0H21Z"  />
<glyph unicode="m" horiz-adv-x="808" d="M604 0L675 324Q676 328 677 336T679 353Q679 389 655 408T597 428Q562 428 527 405T465 352L387 0H312L384 324Q386 334 387 341T388 359Q387 388 367 408T304 428Q269 428 235 405T174 352L96 0H21L128 483H203L187 413Q197 425 212 439T247 465T290 486T339 495Q371 495 394 485T433 461T455 432T463 405V403Q492 439 535 467T631 495Q656 495 679 487T719 464T747 427T758 375Q758 367 757 356T753 335L679 0H604Z"  />
<glyph unicode="n" horiz-adv-x="551" d="M347 0L417 317Q419 324 421 333T423 350Q423 392 395 410T328 428Q282 428 242 405T174 352L96 0H21L128 483H203L187 413Q219 443 262 469T358 495Q422 495 462 465T502 375Q502 368 500 356T496 335L422 0H347Z"  />
<glyph unicode="o" horiz-adv-x="572" d="M261 -12Q209 -12 168 3T99 47T55 114T40 202Q40 259 60 312T116 405T201 470T309 495Q360 495 401 480T470 436T514 368T530 280Q530 223 510 170T454 77T369 12T261 -12ZM263 55Q304 55 338 74T398 124T437 195T451 278Q451 347 414 387T307 428Q266 428 232 409T172 359T133 288T119 205Q119 136 156 96T263 55Z"  />
<glyph unicode="p" horiz-adv-x="572" d="M281 -12Q224 -12 181 12T113 76L55 -184H-20L128 483H203L187 414Q218 452 258 473T347 495Q388 495 422 482T481 443T520 380T534 296Q534 237 517 182T466 83T386 14T281 -12ZM271 55Q312 55 346 74T404 125T441 197T455 282Q455 350 418 389T320 428Q274 428 235 404T172 345L125 133Q143 100 180 78T271 55Z"  />
<glyph unicode="q" horiz-adv-x="572" d="M293 495Q350 495 393 471T461 407L478 483H553L405 -184H330L386 69Q356 31 316 10T227 -12Q185 -12 151 1T92 40T54 103T40 187Q40 246 57 301T108 400T187 469T293 495ZM303 428Q262 428 228 409T170 358T133 285T119 201Q119 133 156 94T254 55Q299 55 338 79T401 137L449 350Q431 382 394 405T303 428Z"  />
<glyph unicode="r" horiz-adv-x="330" d="M21 0L128 483H203L186 409Q222 450 263 471T366 493L349 416Q344 418 334 419T311 420Q269 420 232 396T171 341L96 0H21Z"  />
<glyph unicode="s" horiz-adv-x="465" d="M207 -12Q141 -12 89 9T3 73L51 125Q61 111 77 97T114 73T159 56T211 49Q263 49 292 75T322 134Q322 157 303 172T256 200T195 224T134 251T87 289T68 346Q68 376 80 403T115 450T172 483T251 495Q313 495 362 472T435 416L392 367Q384 380 369 392T335 413T293 428T247 434Q198 434 171 413T143 360Q143 338 162 324T209 298T270 274T331 246T378 206T397 147Q397 115 385 87T348 36T288 1T207 -12Z"  />
<glyph unicode="t" horiz-adv-x="294" d="M166 -12Q115 -12 86 9T56 76Q56 80 56 88T59 104L129 418H49L64 483H144L173 615H248L219 483H317L302 418H204L138 120Q137 115 137 110T136 100Q136 55 184 55Q198 55 210 59T230 71L239 11Q225 0 207 -6T166 -12Z"  />
<glyph unicode="u" horiz-adv-x="551" d="M203 483L133 167Q131 159 130 150T128 133Q128 91 156 73T228 55Q270 55 309 78T377 131L454 483H529L422 0H347L363 70Q331 40 288 14T193 -12Q128 -12 89 18T49 108Q49 115 50 127T54 148L128 483H203Z"  />
<glyph unicode="v" horiz-adv-x="490" d="M150 0L56 483H135L207 87L456 483H540L232 0H150Z"  />
<glyph unicode="w" horiz-adv-x="734" d="M439 0L399 388L187 0H112L65 483H140L172 98L384 483H450L491 98L693 483H775L514 0H439Z"  />
<glyph unicode="x" horiz-adv-x="486" d="M338 0L236 198L47 0H-42L197 248L75 483H158L251 299L427 483H517L289 248L421 0H338Z"  />
<glyph unicode="y" horiz-adv-x="490" d="M-20 -118Q-2 -126 27 -126Q47 -126 63 -116T99 -78L148 -3L56 483H135L207 87L456 483H540L168 -98Q136 -149 101 -172T17 -196Q0 -196 -16 -193T-46 -185L-20 -118Z"  />
<glyph unicode="z" horiz-adv-x="472" d="M-2 0L10 58L352 417H90L105 483H469L456 426L112 65H380L366 0H-2Z"  />
<glyph unicode="{" horiz-adv-x="260" d="M99 -190Q77 -190 57 -183T22 -161T-3 -127T-13 -83Q-13 -77 -13 -70T-10 -56L36 150Q37 155 37 158T38 167Q38 189 28 204T-1 219L11 269Q40 269 56 289T78 338L123 543Q139 612 179 645T278 678H339L327 623H266Q233 623 212 602T182 543L133 326Q126 294 111 271T69 238Q85 230 91 216T98 184Q98 176 97 168T94 150L49 -55Q48 -60 48 -65T47 -76Q47 -102 63 -118T104 -135H159L146 -190H99Z"  />
<glyph unicode="|" horiz-adv-x="211" d="M98 -20V687H153V-20H98Z"  />
<glyph unicode="}" horiz-adv-x="260" d="M161 678Q182 678 202 671T237 649T262 615T272 571Q272 555 269 543L223 338Q222 333 222 330T221 321Q221 298 231 284T260 269L249 219Q219 219 203 199T181 150L136 -55Q120 -124 80 -157T-19 -190H-80L-68 -135H-6Q26 -135 47 -115T77 -56L126 162Q133 194 148 217T191 250Q175 258 169 272T162 304Q162 312 163 320T166 338L211 543Q212 548 212 553T213 564Q213 590 197 606T155 623H100L113 678H161Z"  />
<glyph unicode="~" horiz-adv-x="503" d="M568 660Q557 615 542 573T505 497T455 443T389 423Q355 423 337 437T309 472T296 518T287 564T273 599T242 613Q205 613 174 560T122 422L68 429Q78 475 93 517T130 593T180 646T246 666Q280 666 298 652T326 617T338 571T347 525T361 489T392 475Q411 475 428 489T461 528T490 589T512 667L568 660Z"  />
<glyph unicode="&#xA0;" horiz-adv-x="258" />
<glyph unicode="&#xA4;" horiz-adv-x="598" d="M300 95Q255 95 216 107T146 146L47 65L5 117L103 196Q77 240 77 300Q77 357 97 406T155 492L98 566L150 607L207 533Q236 550 270 560T341 570Q391 570 429 556T497 518L596 599L637 549L538 468Q551 445 558 419T565 363Q565 307 544 258T487 173L543 103L491 61L435 132Q373 95 300 95ZM155 307Q155 240 196 202T306 164Q345 164 378 180T436 223T473 284T487 356Q487 385 478 411T450 457T403 489T336 501Q296 501 263 485T205 441T168 379T155 307Z"  />
<glyph unicode="&#xA6;" horiz-adv-x="211" d="M98 -20V296H153V-20H98ZM98 371V687H153V371H98Z"  />
<glyph unicode="&#xA7;" horiz-adv-x="468" d="M436 322Q436 275 406 236T312 178Q351 157 366 132T381 75Q381 45 368 17T331 -33T273 -68T194 -81Q122 -81 68 -60T-21 0L27 46Q52 13 96 -6T192 -26Q243 -26 274 0T305 65Q305 90 287 106T240 134T180 158T119 186T73 225T54 285Q54 333 90 371T199 422Q158 438 133 464T108 532Q108 560 120 586T155 632T212 664T289 677Q356 677 405 657T484 602L439 561Q415 593 374 607T292 621Q243 621 213 598T183 541Q183 516 201 501T248 473T309 450T370 423T417 383T436 322ZM359 306Q359 341 331 360T265 394Q193 385 161 358T129 298Q129 280 138 267T163 242T201 222T251 204Q311 221 335 249T359 306Z"  />
<glyph unicode="&#xA8;" horiz-adv-x="272" d="M365 609Q365 589 350 573T313 557Q296 557 284 569T272 599Q272 619 287 634T324 650Q341 650 353 638T365 609ZM159 609Q159 589 143 573T107 557Q90 557 78 569T65 599Q65 619 81 634T117 650Q135 650 147 638T159 609Z"  />
<glyph unicode="&#xA9;" horiz-adv-x="778" d="M754 334Q754 263 727 200T653 90T543 16T408 -11Q337 -11 274 16T165 90T91 200T64 334Q64 406 91 468T164 578T274 652T408 679Q480 679 543 652T653 578T727 469T754 334ZM723 334Q723 399 698 456T631 556T531 623T408 648Q343 648 286 624T187 556T120 456T95 334Q95 269 119 212T186 112T286 45T408 20Q473 20 530 44T630 112T698 212T723 334ZM524 173Q497 150 464 136T390 121Q345 121 310 135T249 175T211 234T198 307Q198 358 218 402T271 479T346 529T434 548Q485 548 525 529T590 468L559 446Q541 480 508 497T432 515Q396 515 361 500T298 457T253 391T235 308Q235 276 246 248T277 199T326 166T390 154Q422 154 453 167T505 201L524 173Z"  />
<glyph unicode="&#xAB;" horiz-adv-x="439" d="M149 63L29 243L229 420H308L104 238L220 63H149ZM293 63L173 243L373 420H452L248 238L364 63H293Z"  />
<glyph unicode="&#xAC;" horiz-adv-x="504" d="M462 211H407L450 404H64L76 457H517L462 211Z"  />
<glyph unicode="&#xAD;" horiz-adv-x="300" d="M22 209L36 275H276L262 209H22Z"  />
<glyph unicode="&#xAE;" horiz-adv-x="494" d="M508 465Q508 421 492 383T446 315T378 270T295 253Q251 253 213 269T146 315T101 382T84 465Q84 509 100 548T146 615T213 660T296 677Q340 677 379 661T446 616T491 548T508 465ZM479 465Q479 503 465 536T425 594T367 633T295 648Q257 648 224 634T165 595T126 537T112 465Q112 427 126 394T165 335T223 296T295 281Q333 281 366 295T425 335T464 393T479 465ZM329 343L287 439H241L220 343H188L241 586H333Q361 586 382 569T403 522Q403 504 396 489T377 463T351 446T323 440L367 343H329ZM369 519Q369 537 358 547T328 558H267L247 468H314Q337 468 353 482T369 519Z"  />
<glyph unicode="&#xB0;" horiz-adv-x="290" d="M335 555Q335 529 326 507T300 469T261 443T213 433Q188 433 166 442T128 468T102 507T92 555Q92 580 101 602T127 641T166 667T213 677Q238 677 260 668T299 642T325 603T335 555ZM287 555Q287 585 265 607T213 629Q183 629 162 607T140 555Q140 524 161 503T212 481Q242 481 264 502T287 555Z"  />
<glyph unicode="&#xB1;" horiz-adv-x="499" d="M295 324L248 110H191L238 324H46L58 376H250L295 583H353L307 376H499L487 324H295ZM-25 0L-14 52H427L416 0H-25Z"  />
<glyph unicode="&#xB4;" horiz-adv-x="226" d="M126 556H67L247 700H327L126 556Z"  />
<glyph unicode="&#xB5;" horiz-adv-x="564" d="M53 -184H-22L129 483H204L133 166Q126 136 130 115T146 80T176 60T217 53Q238 53 260 59T302 75T341 99T374 128L453 483H528L446 113Q440 87 448 71T480 55Q490 55 500 57L491 -8Q483 -10 472 -11T450 -12Q402 -12 383 11T366 74Q331 39 286 14T193 -12Q158 -12 136 0T103 36L53 -184Z"  />
<glyph unicode="&#xB6;" horiz-adv-x="449" d="M256 -100L416 622H327L167 -100H122L216 323Q188 323 163 334T120 367T90 416T79 479Q79 514 93 548T134 608T195 651T273 667H471L301 -100H256Z"  />
<glyph unicode="&#xB7;" horiz-adv-x="230" d="M110 190Q89 190 75 204T60 240Q60 265 77 282T120 300Q141 300 155 285T170 249Q170 224 153 207T110 190Z"  />
<glyph unicode="&#xBA;" horiz-adv-x="405" d="M236 318Q202 318 174 328T127 357T97 402T86 460Q86 499 100 533T139 592T197 633T269 648Q338 648 378 609T419 505Q419 466 405 432T366 373T308 333T236 318ZM238 366Q266 366 288 377T326 408T350 453T359 506Q359 548 335 573T268 598Q240 598 218 587T179 556T155 511T146 459Q146 417 171 392T238 366Z"  />
<glyph unicode="&#xBB;" horiz-adv-x="439" d="M148 420L268 240L68 63H-11L193 245L77 420H148ZM292 420L412 240L212 63H133L337 245L221 420H292Z"  />
<glyph unicode="&#x127;" horiz-adv-x="553" d="M349 0L418 317Q420 324 422 334T424 350Q424 392 396 410T324 428Q282 428 243 404T175 351L97 0H22L140 535H73L84 583H150L169 667H244L225 583H383L372 535H215L188 413Q220 443 263 469T359 495Q423 495 463 465T503 375Q503 369 501 356T497 335L424 0H349Z"  />
<glyph unicode="&#x131;" horiz-adv-x="225" d="M21 0L128 483H203L96 0H21Z"  />
<glyph unicode="&#x138;" horiz-adv-x="514" d="M355 0L227 220L126 138L96 0H21L128 483H203L147 230L453 483H552L289 264L446 0H355Z"  />
<glyph unicode="&#x192;" horiz-adv-x="396" d="M33 423H139L164 596Q172 654 201 685Q228 714 271 723T375 724V648Q314 653 288 640T255 584L232 423H350V353H222L168 -32Q159 -95 128 -126Q105 -149 70 -155T-15 -155V-81Q22 -84 45 -75T74 -25L129 353H33V423Z"  />
<glyph unicode="&#x2D8;" horiz-adv-x="351" d="M434 626Q395 585 345 562T240 538Q186 538 146 561T83 626L125 658Q142 625 172 606T248 586Q292 586 331 605T402 658L434 626H434Z"  />
<glyph unicode="&#x393;" horiz-adv-x="550" d="M24 0L171 667H608L592 593H238L107 0H24Z"  />
<glyph unicode="&#x3A0;" horiz-adv-x="712" d="M497 0L627 593H237L107 0H24L171 667H727L580 0H497Z"  />
<glyph unicode="&#x3A6;" horiz-adv-x="806" d="M307 0L322 66Q194 78 130 138T66 298Q66 359 94 413T172 507T292 573T444 601L459 667H542L526 599Q654 588 718 528T783 367Q783 306 755 252T676 158T556 92T404 64L390 0H307ZM696 367Q696 432 648 475T509 526L421 139Q483 144 534 163T621 212T676 281T696 367ZM153 298Q153 233 200 191T339 140L427 526Q364 521 314 502T228 453T173 384T153 298Z"  />
<glyph unicode="&#x401;" horiz-adv-x="569" d="M562 776Q562 756 547 740T510 724Q493 724 481 736T469 766Q469 786 484 801T521 817Q538 817 550 805T562 776ZM356 776Q356 756 340 740T304 724Q287 724 275 736T262 766Q262 786 278 801T314 817Q332 817 344 805T356 776ZM24 0L171 667H608L592 593H238L190 378H537L521 304H173L122 74H477L461 0H24Z"  />
<glyph unicode="&#x402;" horiz-adv-x="769" d="M460 62Q523 62 567 99T625 200L627 208Q643 280 612 317T503 355Q461 355 420 349T344 332L272 0H189L320 593H108L124 667H630L614 593H403L361 406Q396 415 437 422T526 429Q585 429 625 412T687 366T714 296T710 208L708 200Q696 146 670 106T609 40T531 1T444 -12L460 62Z"  />
<glyph unicode="&#x403;" horiz-adv-x="550" d="M409 723H350L530 867H610L409 723ZM24 0L171 667H608L592 593H238L107 0H24Z"  />
<glyph unicode="&#x404;" horiz-adv-x="676" d="M368 -12Q302 -12 246 8T148 67T83 160T60 280Q60 370 91 443T175 569T295 649T435 678Q535 678 603 636T707 521L628 490Q598 550 546 577T430 604Q386 604 343 588T264 543T201 472T160 378H537L521 304H148V284Q148 235 163 194T208 124T279 79T373 62Q420 62 466 81T552 138L613 92Q560 35 495 12T368 -12Z"  />
<glyph unicode="&#x405;" horiz-adv-x="586" d="M286 -12Q241 -12 200 -3T123 22T61 59T16 107L73 167Q108 119 165 91T293 62Q332 62 360 73T405 103T431 143T440 186Q440 219 416 240T354 279T275 312T195 351T134 404T109 483Q109 522 126 557T175 618T250 661T345 677Q423 677 487 649T586 572L529 514Q496 560 444 582T336 604Q307 604 282 595T238 571T209 535T198 494Q198 464 222 444T284 407T363 374T443 334T504 279T529 199Q529 159 513 121T467 54T391 6T286 -12Z"  />
<glyph unicode="&#x406;" horiz-adv-x="239" d="M24 0L171 667H254L107 0H24Z"  />
<glyph unicode="&#x407;" horiz-adv-x="239" d="M385 776Q385 756 370 740T333 724Q316 724 304 736T292 766Q292 786 307 801T344 817Q361 817 373 805T385 776ZM179 776Q179 756 163 740T127 724Q110 724 98 736T85 766Q85 786 101 801T137 817Q155 817 167 805T179 776ZM24 0L171 667H254L107 0H24Z"  />
<glyph unicode="&#x408;" horiz-adv-x="475" d="M158 -12Q101 -12 53 9T-22 72L28 132Q46 100 78 81T154 62Q217 62 253 100T304 202L407 667H490L387 201Q363 92 306 40T158 -12Z"  />
<glyph unicode="&#x409;" horiz-adv-x="1060" d="M-8 62Q22 62 47 72T98 112T148 194T203 332L318 667H726L668 402H839Q886 402 921 388T979 348T1012 289T1019 218Q1016 180 1000 142T952 72T875 20T764 0H497L627 593H376L284 326Q246 216 210 150T137 47T60 0T-25 -12L-8 62ZM652 328L596 74H769Q804 74 832 84T882 113T915 157T931 212Q937 262 908 295T824 328H652Z"  />
<glyph unicode="&#x40A;" horiz-adv-x="1060" d="M497 0L564 306H173L107 0H24L170 667H253L190 380H580L643 667H726L663 380H845Q890 380 923 366T978 329T1009 274T1016 206Q1013 170 998 134T953 68T880 19T775 0H497ZM647 306L596 74H782Q813 74 839 83T884 110T915 150T930 199Q936 245 910 275T832 306H647Z"  />
<glyph unicode="&#x40B;" horiz-adv-x="785" d="M625 201Q642 278 611 316T503 355Q461 355 420 349T344 332L272 0H189L320 593H108L124 667H630L614 593H403L361 406Q396 415 437 422T526 429Q585 429 625 413T687 366T714 293T708 200L664 0H581L625 201Z"  />
<glyph unicode="&#x40C;" horiz-adv-x="601" d="M414 723H355L535 867H615L414 723ZM433 0L243 304L156 224L107 0H24L171 667H254L179 330L544 667H653L305 350L530 0H433Z"  />
<glyph unicode="&#x40E;" horiz-adv-x="626" d="M88 -12Q46 -12 15 3T-30 41L20 107Q33 88 52 75T100 62Q118 62 133 67T162 83T191 112T226 155L249 185L101 667H190L309 253L609 667H709L298 118Q275 88 253 64T206 23T153 -3T88 -12ZM598 793Q559 752 509 729T404 705Q350 705 310 728T247 793L289 825Q306 792 336 773T412 753Q456 753 495 772T566 825L598 793H598Z"  />
<glyph unicode="&#x40F;" horiz-adv-x="712" d="M260 0H24L170 667H253L122 74H513L643 667H726L580 0H343L315 -127H232L260 0Z"  />
<glyph unicode="&#x410;" horiz-adv-x="658" d="M504 0L478 148H145L54 0H-45L370 667H473L595 0H504ZM407 581L187 222H470L407 581Z"  />
<glyph unicode="&#x411;" horiz-adv-x="587" d="M603 667L588 593H237L195 402H361Q404 402 438 388T496 351T533 296T546 229Q546 191 533 151T489 77T410 22T292 0H24L170 667H603ZM179 328L122 74H298Q337 74 367 86T417 118T448 166T459 223Q459 244 451 263T428 297T393 319T348 328H179Z"  />
<glyph unicode="&#x412;" horiz-adv-x="629" d="M24 0L171 667H448Q485 667 516 656T569 624T605 576T618 514Q618 478 606 447T572 392T522 353T463 335Q485 329 503 316T534 285T554 244T561 198Q561 161 548 126T506 62T435 17T333 0H24ZM397 378Q434 378 459 389T499 418T521 458T528 502Q528 541 499 567T427 593H238L190 378H397ZM331 74Q367 74 394 85T439 114T466 155T476 204Q476 247 448 275T369 304H173L122 74H331Z"  />
<glyph unicode="&#x413;" horiz-adv-x="550" d="M24 0L171 667H608L592 593H238L107 0H24Z"  />
<glyph unicode="&#x414;" horiz-adv-x="723" d="M-8 67Q22 70 47 80T98 117T148 196T203 332L318 667H726L596 74H656L613 -123H530L557 0H60L33 -123H-49L-8 67ZM284 326Q247 220 209 161T126 74H513L627 593H376L284 326Z"  />
<glyph unicode="&#x415;" horiz-adv-x="569" d="M24 0L171 667H608L592 593H238L190 378H537L521 304H173L122 74H477L461 0H24Z"  />
<glyph unicode="&#x416;" horiz-adv-x="909" d="M-37 0L342 350L133 667H230L434 343L505 667H588L521 362L849 667H961L613 350L839 0H742L552 304L497 254L442 0H359L414 254L388 295L73 0H-37Z"  />
<glyph unicode="&#x417;" horiz-adv-x="584" d="M269 -12Q224 -12 183 -2T106 26T45 69T6 127L66 174Q79 147 99 127T146 92T204 70T268 62Q307 62 338 72T390 102T423 146T435 202Q435 247 395 276T278 305H154L170 379H322Q353 379 383 386T438 407T476 444T491 497Q491 519 480 538T447 572T397 595T330 603Q284 603 239 588T154 537L119 594Q158 632 215 654T336 677Q388 677 432 666T507 634T557 581T575 509Q575 471 558 441T514 388T454 354T389 338Q415 333 438 322T478 292T506 250T517 195Q517 152 499 115T447 49T369 5T269 -12Z"  />
<glyph unicode="&#x418;" horiz-adv-x="708" d="M24 0L171 667H254L136 133L638 667H723L576 0H492L613 544L104 0H24Z"  />
<glyph unicode="&#x419;" horiz-adv-x="708" d="M24 0L171 667H254L136 133L638 667H723L576 0H492L613 544L104 0H24ZM644 793Q605 752 555 729T450 705Q396 705 356 728T293 793L335 825Q352 792 382 773T458 753Q502 753 541 772T612 825L644 793H644Z"  />
<glyph unicode="&#x41A;" horiz-adv-x="601" d="M433 0L243 304L156 224L107 0H24L171 667H254L179 330L544 667H653L305 350L530 0H433Z"  />
<glyph unicode="&#x41B;" horiz-adv-x="712" d="M-9 62Q21 62 47 72T98 112T148 194T203 332L318 667H726L580 0H497L627 593H376L284 326Q246 216 210 150T137 47T60 0T-25 -12L-9 62Z"  />
<glyph unicode="&#x41C;" horiz-adv-x="809" d="M594 0L718 561L367 0H333L230 561L107 0H24L171 667H286L380 153L701 667H824L677 0H594Z"  />
<glyph unicode="&#x41D;" horiz-adv-x="712" d="M497 0L564 306H174L107 0H24L171 667H254L191 380H581L644 667H727L580 0H497Z"  />
<glyph unicode="&#x41E;" horiz-adv-x="765" d="M368 -12Q304 -12 248 7T150 64T84 156T60 280Q60 364 89 436T169 562T288 647T435 678Q499 678 555 659T653 602T719 510T743 387Q743 303 714 230T634 104T515 19T368 -12ZM373 62Q430 62 481 86T570 152T632 254T655 382Q655 435 638 476T589 546T517 589T430 604Q373 604 322 580T232 514T171 412T148 284Q148 230 165 189T213 120T285 77T373 62Z"  />
<glyph unicode="&#x41F;" horiz-adv-x="712" d="M497 0L627 593H237L107 0H24L171 667H727L580 0H497Z"  />
<glyph unicode="&#x420;" horiz-adv-x="587" d="M24 0L171 667H419Q462 667 496 653T555 616T591 561T604 494Q604 456 591 416T547 342T468 287T349 265H165L107 0H24ZM356 339Q395 339 425 351T476 383T506 431T517 488Q517 509 509 528T486 562T451 584T406 593H238L181 339H356Z"  />
<glyph unicode="&#x421;" horiz-adv-x="676" d="M368 -12Q302 -12 246 8T148 67T83 160T60 280Q60 370 91 443T175 569T295 649T435 678Q535 678 603 636T707 521L628 490Q598 550 546 577T430 604Q376 604 326 581T236 516T172 415T148 284Q148 235 163 194T208 124T279 79T373 62Q420 62 466 81T552 138L613 92Q560 35 495 12T368 -12Z"  />
<glyph unicode="&#x422;" horiz-adv-x="570" d="M189 0L320 593H109L125 667H631L615 593H403L272 0H189Z"  />
<glyph unicode="&#x423;" horiz-adv-x="626" d="M88 -12Q46 -12 15 3T-30 41L20 107Q33 88 52 75T100 62Q118 62 133 67T162 83T191 112T226 155L249 185L101 667H190L309 253L609 667H709L298 118Q275 88 253 64T206 23T153 -3T88 -12Z"  />
<glyph unicode="&#x424;" horiz-adv-x="806" d="M307 0L322 66Q194 78 130 138T66 298Q66 359 94 413T172 507T292 573T444 601L459 667H542L526 599Q654 588 718 528T783 367Q783 306 755 252T676 158T556 92T404 64L390 0H307ZM696 367Q696 432 648 475T509 526L421 139Q483 144 534 163T621 212T676 281T696 367ZM153 298Q153 233 200 191T339 140L427 526Q364 521 314 502T228 453T173 384T153 298Z"  />
<glyph unicode="&#x425;" horiz-adv-x="652" d="M491 0L337 282L65 0H-42L294 347L120 667H215L357 402L609 667H717L400 337L585 0H491Z"  />
<glyph unicode="&#x426;" horiz-adv-x="723" d="M557 0H24L170 667H253L122 74H513L643 667H726L596 74H656L613 -123H530L557 0Z"  />
<glyph unicode="&#x427;" horiz-adv-x="611" d="M194 493Q177 416 208 378T317 339Q359 339 399 345T475 362L542 667H625L479 0H396L459 288Q424 279 383 272T293 265Q234 265 194 281T132 328T105 400T111 494L150 667H233L194 493Z"  />
<glyph unicode="&#x428;" horiz-adv-x="958" d="M972 667L826 0H24L170 667H253L122 74H399L530 667H613L482 74H759L889 667H972Z"  />
<glyph unicode="&#x429;" horiz-adv-x="970" d="M972 667L842 74H903L860 -123H777L804 0H24L170 667H253L122 74H399L530 667H613L482 74H759L889 667H972Z"  />
<glyph unicode="&#x42A;" horiz-adv-x="752" d="M189 0L320 593H108L124 667H418L360 402H526Q569 402 603 388T662 351T698 296T711 229Q711 191 698 151T654 77T575 22T456 0H189ZM344 328L288 74H461Q501 74 531 86T582 118T613 166T624 223Q624 244 616 263T592 297T557 319T512 328H344Z"  />
<glyph unicode="&#x42B;" horiz-adv-x="788" d="M573 0L719 667H802L656 0H573ZM253 667L195 402H361Q404 402 438 388T497 351T533 296T546 229Q546 191 533 151T489 77T410 22T291 0H24L170 667H253ZM179 328L122 74H296Q336 74 366 86T417 118T448 166T459 223Q459 244 451 263T427 297T392 319T347 328H179Z"  />
<glyph unicode="&#x42C;" horiz-adv-x="587" d="M253 667L195 402H361Q404 402 438 388T497 351T533 296T546 229Q546 191 533 151T489 77T410 22T291 0H24L170 667H253ZM179 328L122 74H296Q336 74 366 86T417 118T448 166T459 223Q459 244 451 263T427 297T392 319T347 328H179Z"  />
<glyph unicode="&#x42D;" horiz-adv-x="676" d="M346 678Q413 678 469 658T567 599T631 506T654 386Q654 296 623 223T539 97T419 17T279 -12Q180 -12 111 30T7 145L86 176Q116 116 168 89T284 62Q330 62 374 79T456 127T520 203T559 304H185L201 378H567V382Q567 431 551 472T506 542T435 587T341 604Q294 604 248 585T163 528L101 574Q155 631 219 654T346 678Z"  />
<glyph unicode="&#x42E;" horiz-adv-x="992" d="M579 -12Q510 -12 454 11T359 75T303 175T291 304V306H173L107 0H24L170 667H253L190 380H304Q321 444 356 498T439 593T548 655T677 678Q746 678 802 655T896 591T953 491T965 363Q959 284 927 216T843 97T724 17T579 -12ZM585 62Q642 62 692 84T782 146T846 240T878 358Q884 413 872 458T832 536T763 586T670 604Q613 604 563 582T473 520T409 426T378 308Q372 252 384 207T423 130T492 80T585 62Z"  />
<glyph unicode="&#x42F;" horiz-adv-x="608" d="M-8 0L234 271Q210 277 187 290T144 324T113 373T101 437Q101 478 116 519T162 593T241 646T357 667H624L476 0H393L452 265H328L99 0H-8ZM468 338L524 593H349Q310 593 280 581T230 549T199 501T188 444Q188 421 197 402T221 368T258 346T304 338H468Z"  />
<glyph unicode="&#x430;" horiz-adv-x="575" d="M293 495Q350 495 393 471T461 407L478 483H553L446 0H371L386 69Q356 31 316 10T227 -12Q185 -12 151 1T92 40T54 103T40 187Q40 246 57 301T108 400T187 469T293 495ZM303 428Q262 428 228 409T170 358T133 285T119 201Q119 133 156 94T254 55Q299 55 338 79T401 137L449 350Q431 382 394 405T303 428Z"  />
<glyph unicode="&#x431;" horiz-adv-x="577" d="M263 55Q304 55 338 74T398 124T437 195T451 278Q451 347 414 387T307 428Q266 428 232 409T172 359T133 288T119 205Q119 136 156 96T263 55ZM261 -12Q209 -12 168 3T99 47T55 114T40 202Q40 228 44 255T55 306T70 351T84 385Q108 440 138 481T206 550T291 595T396 619Q467 630 496 641T528 667H601Q594 637 572 618T519 586T453 567T387 556Q331 548 292 533T224 497T176 450T144 392Q179 437 226 466T333 495Q380 495 416 480T478 436T517 368T530 280Q530 223 510 170T454 77T369 12T261 -12Z"  />
<glyph unicode="&#x432;" horiz-adv-x="554" d="M21 0L127 483H373Q430 483 465 456T501 377Q501 327 472 292T392 245Q421 234 440 209T460 145Q460 115 449 89T418 43T368 12T301 0H21ZM293 66Q335 66 360 90T385 150Q385 179 366 197T309 215H143L110 66H293ZM340 281Q379 281 400 304T422 359Q422 388 401 402T346 417H187L157 281H340Z"  />
<glyph unicode="&#x433;" horiz-adv-x="436" d="M450 417H187L96 0H21L127 483H465L450 417Z"  />
<glyph unicode="&#x434;" horiz-adv-x="561" d="M-23 62Q-6 65 9 74T41 103T73 157T109 245L193 483H529L437 66H493L451 -123H376L404 0H39L12 -123H-62L-23 62ZM182 236Q158 167 132 127T75 66H362L439 417H244L182 236Z"  />
<glyph unicode="&#x435;" horiz-adv-x="563" d="M276 -12Q221 -12 177 3T103 47T56 114T40 202Q40 262 61 315T118 408T205 471T312 495Q360 495 398 480T464 436T505 369T520 284Q520 267 517 248T512 217H118Q118 214 118 207T117 194Q117 166 127 140T158 94T209 62T281 50Q316 50 353 62T420 97L445 45Q413 19 368 4T276 -12ZM450 272Q451 275 451 281T452 291Q452 351 415 392T305 433Q272 433 242 420T188 385T148 334T126 272H450Z"  />
<glyph unicode="&#x436;" horiz-adv-x="711" d="M-40 0L233 264L67 483H157L322 265L370 483H445L400 277L647 483H748L485 264L643 0H552L424 220L379 183L339 0H264L304 183L279 214L61 0H-40Z"  />
<glyph unicode="&#x437;" horiz-adv-x="514" d="M300 495Q401 495 447 462T494 373Q494 340 478 316T436 275T383 250T332 240Q351 237 371 230T407 209T433 178T444 137Q444 103 426 76T376 29T303 -1T217 -12Q141 -12 87 10T3 70L49 115Q108 50 217 50Q247 50 274 57T322 76T355 104T367 141Q367 177 332 195T242 214H126L140 275H248Q283 275 313 280T366 296T400 323T413 364Q413 397 383 415T294 433Q240 433 194 417T106 372L74 421Q119 456 176 475T300 495Z"  />
<glyph unicode="&#x438;" horiz-adv-x="552" d="M21 0L127 483H202L121 114L455 483H529L423 0H348L430 376L93 0H21Z"  />
<glyph unicode="&#x439;" horiz-adv-x="552" d="M21 0L127 483H202L121 114L455 483H529L423 0H348L430 376L93 0H21ZM529 626Q490 585 440 562T335 538Q281 538 241 561T178 626L220 658Q237 625 267 606T343 586Q387 586 426 605T497 658L529 626H529Z"  />
<glyph unicode="&#x43A;" horiz-adv-x="514" d="M355 0L227 220L126 138L96 0H21L128 483H203L147 230L453 483H552L289 264L446 0H355Z"  />
<glyph unicode="&#x43B;" horiz-adv-x="552" d="M-25 50Q8 50 39 94T109 245L193 483H529L423 0H348L439 417H244L182 236Q159 168 135 121T83 45T26 2T-39 -12L-25 50Z"  />
<glyph unicode="&#x43C;" horiz-adv-x="643" d="M439 0L521 379L282 0H254L179 379L96 0H21L127 483H223L291 125L516 483H620L514 0H439Z"  />
<glyph unicode="&#x43D;" horiz-adv-x="551" d="M21 0L131 483H206L161 285H413L458 483H533L423 0H348L398 219H146L96 0H21Z"  />
<glyph unicode="&#x43E;" horiz-adv-x="572" d="M261 -12Q209 -12 168 3T99 47T55 114T40 202Q40 259 60 312T116 405T201 470T309 495Q360 495 401 480T470 436T514 368T530 280Q530 223 510 170T454 77T369 12T261 -12ZM263 55Q304 55 338 74T398 124T437 195T451 278Q451 347 414 387T307 428Q266 428 232 409T172 359T133 288T119 205Q119 136 156 96T263 55Z"  />
<glyph unicode="&#x43F;" horiz-adv-x="551" d="M348 0L443 417H191L96 0H21L131 483H533L423 0H348Z"  />
<glyph unicode="&#x440;" horiz-adv-x="572" d="M281 -12Q224 -12 181 12T113 76L55 -184H-20L128 483H203L187 414Q218 452 258 473T347 495Q388 495 422 482T481 443T520 380T534 296Q534 237 517 182T466 83T386 14T281 -12ZM271 55Q312 55 346 74T404 125T441 197T455 282Q455 350 418 389T320 428Q274 428 235 404T172 345L125 133Q143 100 180 78T271 55Z"  />
<glyph unicode="&#x441;" horiz-adv-x="495" d="M262 -12Q213 -12 173 3T103 45T57 113T40 204Q40 264 61 316T118 409T205 472T312 495Q379 495 423 471T493 405L436 362Q417 395 385 411T314 428Q269 428 233 410T171 360T132 289T118 205Q118 168 129 140T161 93T209 65T269 55Q307 55 338 71T391 112L434 62Q403 30 362 9T262 -12Z"  />
<glyph unicode="&#x442;" horiz-adv-x="402" d="M109 0L200 417H60L75 483H431L416 417H275L184 0H109Z"  />
<glyph unicode="&#x443;" horiz-adv-x="490" d="M-20 -118Q-2 -126 27 -126Q47 -126 63 -116T99 -78L148 -3L56 483H135L207 87L456 483H540L168 -98Q136 -149 101 -172T17 -196Q0 -196 -16 -193T-46 -185L-20 -118Z"  />
<glyph unicode="&#x444;" horiz-adv-x="798" d="M263 495Q308 495 343 472T397 410L454 667H529L473 413Q501 452 535 473T611 495Q647 495 673 480T717 440T742 381T751 310Q751 253 735 196T691 92T622 17T532 -12Q487 -12 452 11T398 73L342 -184H267L322 70Q266 -12 184 -12Q148 -12 122 3T78 43T53 101T44 173Q44 230 60 287T104 391T173 466T263 495ZM277 428Q242 428 214 406T165 349T133 271T121 184Q121 125 145 90T217 55Q253 55 283 77T336 132L384 350Q374 381 345 404T277 428ZM518 55Q553 55 581 77T630 134T662 212T674 299Q674 358 650 393T578 428Q542 428 512 406T459 351L411 133Q421 102 450 79T518 55Z"  />
<glyph unicode="&#x445;" horiz-adv-x="486" d="M338 0L236 198L47 0H-42L197 248L75 483H158L251 299L427 483H517L289 248L421 0H338Z"  />
<glyph unicode="&#x446;" horiz-adv-x="561" d="M404 0H21L127 483H202L110 66H362L454 483H529L437 66H493L451 -123H376L404 0Z"  />
<glyph unicode="&#x447;" horiz-adv-x="541" d="M192 483L162 347Q154 313 157 291T173 256T208 238T260 232Q298 232 333 239T393 258L443 483H518L412 0H337L380 197Q350 183 309 174T225 165Q130 165 97 203T82 324L117 483H192Z"  />
<glyph unicode="&#x448;" horiz-adv-x="783" d="M760 483L654 0H21L127 483H202L110 66H314L406 483H481L389 66H593L685 483H760Z"  />
<glyph unicode="&#x449;" horiz-adv-x="798" d="M760 483L668 66H724L682 -123H607L635 0H21L127 483H202L110 66H314L406 483H481L389 66H593L685 483H760Z"  />
<glyph unicode="&#x44A;" horiz-adv-x="610" d="M109 0L200 417H60L75 483H290L248 296H412Q484 296 519 257T550 160Q547 128 534 100T498 49T443 13T371 0H109ZM234 230L198 66H373Q416 66 442 90T473 153Q477 188 459 209T398 230H234Z"  />
<glyph unicode="&#x44B;" horiz-adv-x="712" d="M508 0L614 483H689L583 0H508ZM202 483L160 296H317Q386 296 424 261T462 168Q462 135 450 105T416 51T360 14T286 0H21L127 483H202ZM146 230L110 66H289Q334 66 359 93T385 162Q385 194 364 212T304 230H146Z"  />
<glyph unicode="&#x44C;" horiz-adv-x="522" d="M202 483L160 296H317Q386 296 424 261T462 168Q462 135 450 105T416 51T360 14T286 0H21L127 483H202ZM146 230L110 66H289Q334 66 359 93T385 162Q385 194 364 212T304 230H146Z"  />
<glyph unicode="&#x44D;" horiz-adv-x="495" d="M248 495Q297 495 338 480T408 438T454 370T471 279Q471 219 450 167T393 74T306 11T199 -12Q132 -12 88 12T18 78L71 118Q91 85 124 68T196 50Q233 50 264 62T319 97T360 148T385 212H139L154 277H393Q392 352 349 392T242 432Q204 432 171 416T117 374L77 421Q108 453 149 474T248 495Z"  />
<glyph unicode="&#x44E;" horiz-adv-x="767" d="M456 -12Q404 -12 363 3T294 47T250 114T234 202V216H143L96 0H21L127 483H202L158 282H244Q256 326 280 365T338 433T414 478T504 495Q555 495 596 480T665 436T709 368T725 280Q725 223 705 170T649 77T564 12T456 -12ZM457 55Q498 55 533 74T593 124T632 195T646 278Q646 347 609 387T502 428Q461 428 426 409T366 359T327 288T313 205Q313 136 351 96T457 55Z"  />
<glyph unicode="&#x44F;" horiz-adv-x="547" d="M5 0L178 194Q136 205 109 235T82 315Q82 348 94 378T128 432T184 469T258 483H524L418 0H343L384 187H256L96 0H5ZM398 253L434 417H255Q211 417 185 390T159 321Q159 289 179 271T234 253H398Z"  />
<glyph unicode="&#x451;" horiz-adv-x="563" d="M514 609Q514 589 499 573T462 557Q445 557 433 569T421 599Q421 619 436 634T473 650Q490 650 502 638T514 609ZM308 609Q308 589 292 573T256 557Q239 557 227 569T214 599Q214 619 230 634T266 650Q284 650 296 638T308 609ZM276 -12Q221 -12 177 3T103 47T56 114T40 202Q40 262 61 315T118 408T205 471T312 495Q360 495 398 480T464 436T505 369T520 284Q520 267 517 248T512 217H118Q118 214 118 207T117 194Q117 166 127 140T158 94T209 62T281 50Q316 50 353 62T420 97L445 45Q413 19 368 4T276 -12ZM450 272Q451 275 451 281T452 291Q452 351 415 392T305 433Q272 433 242 420T188 385T148 334T126 272H450Z"  />
<glyph unicode="&#x452;" horiz-adv-x="554" d="M215 535L188 413Q204 428 225 442T272 469T324 488T379 495Q454 495 485 458T499 341L414 -47Q398 -119 353 -157T237 -196Q200 -196 180 -187T140 -160L179 -103Q189 -116 203 -125T241 -134Q275 -134 301 -114T339 -47L419 318Q426 350 423 371T409 405T378 423T334 428Q312 428 290 422T247 406T208 382T175 353L98 0H23L140 535H72L82 583H150L169 667H244L225 583H381L371 535H215Z"  />
<glyph unicode="&#x453;" horiz-adv-x="436" d="M319 556H260L440 700H520L319 556ZM450 417H187L96 0H21L127 483H465L450 417Z"  />
<glyph unicode="&#x454;" horiz-adv-x="495" d="M262 -12Q213 -12 173 3T103 45T57 113T40 204Q40 264 61 316T118 409T205 472T312 495Q379 495 423 471T493 405L439 365Q420 398 387 415T315 433Q279 433 248 421T193 388T153 339T127 277H373L358 212H118V208Q118 170 129 141T161 91T209 61T269 51Q307 51 339 67T394 109L434 62Q403 30 362 9T262 -12Z"  />
<glyph unicode="&#x455;" horiz-adv-x="465" d="M207 -12Q141 -12 89 9T3 73L51 125Q61 111 77 97T114 73T159 56T211 49Q263 49 292 75T322 134Q322 157 303 172T256 200T195 224T134 251T87 289T68 346Q68 376 80 403T115 450T172 483T251 495Q313 495 362 472T435 416L392 367Q384 380 369 392T335 413T293 428T247 434Q198 434 171 413T143 360Q143 338 162 324T209 298T270 274T331 246T378 206T397 147Q397 115 385 87T348 36T288 1T207 -12Z"  />
<glyph unicode="&#x456;" horiz-adv-x="225" d="M186 552Q166 552 153 564T140 596Q140 622 158 637T197 653Q217 653 230 640T243 609Q243 582 225 567T186 552ZM21 0L128 483H203L96 0H21Z"  />
<glyph unicode="&#x457;" horiz-adv-x="225" d="M344 609Q344 589 329 573T292 557Q275 557 263 569T251 599Q251 619 266 634T303 650Q320 650 332 638T344 609ZM138 609Q138 589 122 573T86 557Q69 557 57 569T44 599Q44 619 60 634T96 650Q114 650 126 638T138 609ZM21 0L128 483H203L96 0H21Z"  />
<glyph unicode="&#x458;" horiz-adv-x="225" d="M-68 -196Q-106 -196 -135 -186T-183 -154L-147 -100Q-136 -115 -118 -124T-78 -134Q-46 -134 -24 -114T10 -47L128 483H203L85 -47Q69 -119 34 -157T-68 -196ZM186 552Q166 552 153 564T140 596Q140 622 158 637T197 653Q217 653 230 640T243 609Q243 582 225 567T186 552Z"  />
<glyph unicode="&#x459;" horiz-adv-x="849" d="M-25 50Q8 50 39 94T109 245L193 483H529L487 296H644Q713 296 751 261T789 168Q789 135 777 105T743 51T687 14T613 0H348L439 417H244L182 236Q159 168 135 121T83 45T26 2T-39 -12L-25 50ZM473 230L437 66H616Q660 66 686 93T712 162Q712 194 691 212T630 230H473Z"  />
<glyph unicode="&#x45A;" horiz-adv-x="849" d="M21 0L127 483H202L158 282H409L454 483H529L484 282H650Q716 282 752 249T788 161Q788 129 777 100T744 49T691 13T621 0H348L395 216H143L96 0H21ZM470 216L437 66H623Q664 66 687 91T710 154Q710 183 691 199T636 216H470Z"  />
<glyph unicode="&#x45B;" horiz-adv-x="553" d="M349 0L418 317Q420 324 422 334T424 350Q424 392 396 410T324 428Q282 428 243 404T175 351L97 0H22L140 535H73L84 583H150L169 667H244L225 583H383L372 535H215L188 413Q220 443 263 469T359 495Q423 495 463 465T503 375Q503 369 501 356T497 335L424 0H349Z"  />
<glyph unicode="&#x45C;" horiz-adv-x="514" d="M335 556H276L456 700H536L335 556ZM355 0L227 220L126 138L96 0H21L128 483H203L147 230L453 483H552L289 264L446 0H355Z"  />
<glyph unicode="&#x45E;" horiz-adv-x="490" d="M-20 -118Q-2 -126 27 -126Q47 -126 63 -116T99 -78L148 -3L56 483H135L207 87L456 483H540L168 -98Q136 -149 101 -172T17 -196Q0 -196 -16 -193T-46 -185L-20 -118ZM496 626Q457 585 407 562T302 538Q248 538 208 561T145 626L187 658Q204 625 234 606T310 586Q354 586 393 605T464 658L496 626H496Z"  />
<glyph unicode="&#x45F;" horiz-adv-x="552" d="M184 0H21L127 483H202L110 66H362L454 483H529L423 0H259L232 -126H157L184 0Z"  />
<glyph unicode="&#x490;" horiz-adv-x="550" d="M24 0L170 667H524L551 790H634L592 593H237L107 0H24Z"  />
<glyph unicode="&#x491;" horiz-adv-x="436" d="M96 0H21L127 483H390L418 609H493L450 417H187L96 0Z"  />
<glyph unicode="&#x2013;" horiz-adv-x="593" d="M22 209L36 275H569L555 209H22Z"  />
<glyph unicode="&#x2014;" horiz-adv-x="833" d="M22 209L36 275H809L795 209H22Z"  />
<glyph unicode="&#x2018;" horiz-adv-x="230" d="M108 515Q108 539 117 562T143 608T180 647T224 677L255 644Q228 630 204 608T171 560Q172 561 174 561T179 561Q196 561 209 549T222 516Q222 491 203 474T161 457Q140 457 124 471T108 515Z"  />
<glyph unicode="&#x2019;" horiz-adv-x="230" d="M256 619Q256 595 247 572T221 526T184 486T140 456L110 489Q137 503 161 525T194 573H186Q169 573 156 585T143 618Q143 642 161 659T203 677Q225 677 240 663T256 619Z"  />
<glyph unicode="&#x201A;" horiz-adv-x="230" d="M128 41Q128 18 119 -6T94 -51T57 -91T13 -121L-18 -88Q9 -74 33 -52T66 -4H58Q41 -4 28 8T15 40Q15 65 33 82T75 100Q97 100 112 85T128 41Z"  />
<glyph unicode="&#x201C;" horiz-adv-x="390" d="M275 515Q275 539 284 562T310 608T347 647T391 677L421 644Q394 630 370 608T337 560Q339 561 346 561Q363 561 375 549T388 516Q388 491 370 474T328 457Q306 457 291 471T275 515ZM116 515Q116 539 125 562T151 608T188 647T232 677L262 644Q235 630 211 608T178 560Q179 561 181 561T186 561Q203 561 216 549T229 516Q229 491 211 474T169 457Q147 457 132 471T116 515Z"  />
<glyph unicode="&#x201D;" horiz-adv-x="390" d="M256 619Q256 595 247 572T221 526T184 486T140 456L110 489Q137 503 161 525T194 573H186Q169 573 156 585T143 618Q143 642 161 659T203 677Q225 677 240 663T256 619ZM416 619Q416 595 407 572T381 526T344 486T300 456L270 489Q297 503 321 525T354 573H345Q328 573 316 585T303 618Q303 642 321 659T363 677Q385 677 400 663T416 619Z"  />
<glyph unicode="&#x201E;" horiz-adv-x="390" d="M128 41Q128 18 119 -6T94 -51T57 -91T13 -121L-18 -88Q9 -74 33 -52T66 -4H58Q41 -4 28 8T15 40Q15 65 33 82T75 100Q97 100 112 85T128 41ZM288 41Q288 18 279 -6T253 -51T216 -91T172 -121L141 -88Q169 -74 193 -52T225 -4H217Q200 -4 188 8T175 40Q175 65 193 82T235 100Q256 100 272 85T288 41Z"  />
<glyph unicode="&#x2020;" horiz-adv-x="263" d="M216 535L173 327H125L176 535L86 531L95 574L183 571L203 677H251L223 571L313 574L304 531L216 535Z"  />
<glyph unicode="&#x2021;" horiz-adv-x="263" d="M304 531L216 535L168 322L258 326L249 283L161 286L140 180H92L120 286L31 283L40 326L128 322L175 535L86 531L95 574L183 571L203 677H251L223 571L313 574L304 531Z"  />
<glyph unicode="&#x2022;" horiz-adv-x="358" d="M288 253Q288 229 278 208T252 170T213 145T167 135Q125 135 98 162T70 232Q70 256 80 277T106 315T145 340T191 350Q233 350 260 323T288 253Z"  />
<glyph unicode="&#x2026;" horiz-adv-x="691" d="M66 -10Q44 -10 30 4T15 40Q15 65 33 82T76 100Q97 100 111 85T126 49Q126 24 108 7T66 -10ZM296 -10Q275 -10 261 4T246 40Q246 65 263 82T306 100Q327 100 341 85T356 49Q356 24 339 7T296 -10ZM526 -10Q505 -10 491 4T476 40Q476 65 493 82T536 100Q557 100 571 85T586 49Q586 24 569 7T526 -10Z"  />
<glyph unicode="&#x2030;" horiz-adv-x="1083" d="M74 0L647 667H702L128 0H74ZM505 -12Q474 -12 447 -3T400 24T367 67T355 123Q355 166 369 202T409 263T466 303T533 317Q564 317 591 308T638 281T671 238T683 182Q683 138 669 103T629 42T572 2T505 -12ZM506 38Q529 38 550 48T588 77T613 121T623 177Q623 215 597 240T531 266Q508 266 487 256T450 227T425 184T415 128Q415 90 440 64T506 38ZM236 348Q205 348 178 357T131 384T99 427T87 483Q87 526 101 562T140 623T197 663T265 677Q296 677 323 668T370 641T402 598T414 542Q414 498 400 463T361 402T304 362T236 348ZM238 398Q261 398 282 408T320 437T345 481T355 537Q355 575 329 600T263 626Q240 626 219 616T182 587T157 544T147 488Q147 450 172 424T238 398ZM857 -12Q826 -12 799 -3T752 24T719 67T707 123Q707 166 721 202T761 263T818 303T885 317Q916 317 943 308T990 281T1023 238T1035 182Q1035 138 1021 103T981 42T924 2T857 -12ZM858 38Q881 38 902 48T940 77T965 121T975 177Q975 215 950 240T884 266Q861 266 840 256T802 227T777 184T767 128Q767 90 792 64T858 38Z"  />
<glyph unicode="&#x2039;" horiz-adv-x="295" d="M149 63L29 243L229 420H308L104 238L220 63H149Z"  />
<glyph unicode="&#x203A;" horiz-adv-x="295" d="M148 420L268 240L68 63H-11L193 245L77 420H148Z"  />
<glyph unicode="&#x20AC;" horiz-adv-x="695" d="M392 -12Q331 -12 279 5T186 55T119 133T86 237H29L41 289H84Q84 312 86 334T94 379H60L72 431H110Q132 488 168 534T250 612T349 661T459 678Q559 678 627 636T731 521L652 490Q622 550 570 577T454 604Q415 604 378 592T308 558T248 504T202 431H517L505 379H184Q172 337 172 289H485L473 237H176Q190 158 248 110T397 62Q444 62 490 81T576 138L637 92Q584 35 519 12T392 -12Z"  />
<glyph unicode="&#x2116;" horiz-adv-x="1113" d="M944 350Q910 350 882 360T835 389T805 434T794 492Q794 531 808 565T847 624T905 665T977 680Q1046 680 1086 641T1127 537Q1127 498 1113 464T1074 405T1016 365T944 350ZM946 398Q974 398 996 409T1034 440T1058 485T1067 538Q1067 580 1043 605T976 630Q948 630 926 619T887 588T863 543T854 491Q854 449 879 424T946 398ZM496 0L227 544L107 0H24L171 667H256L522 133L640 667H723L576 0H496Z"  />
<glyph unicode="&#x2122;" horiz-adv-x="454" d="M436 447L476 629L361 447H353L318 629L278 447H250L298 667H341L370 507L469 667H512L464 447H436ZM195 641L152 447H124L167 641H105L110 667H262L257 641H195Z"  />


</font>
</defs>
</svg>
